CrimsonText_New_Draft_39-Regular.ufo
<glyph name="numbersign" format="1">
  <advance width="600"/>
  <unicode hex="0023"/>
  <note>
    numbersign
  </note>
  <outline>
    <contour>
      <point x="304" y="0" type="line"/>
      <point x="357" y="0" type="line"/>
      <point x="496" y="660" type="line"/>
      <point x="443" y="660" type="line"/>
    </contour>
    <contour>
      <point x="40" y="195" type="line"/>
      <point x="540" y="195" type="line"/>
      <point x="540" y="245" type="line"/>
      <point x="40" y="245" type="line"/>
    </contour>
    <contour>
      <point x="104" y="0" type="line"/>
      <point x="157" y="0" type="line"/>
      <point x="296" y="660" type="line"/>
      <point x="243" y="660" type="line"/>
    </contour>
    <contour>
      <point x="60" y="415" type="line"/>
      <point x="560" y="415" type="line"/>
      <point x="560" y="465" type="line"/>
      <point x="60" y="465" type="line"/>
    </contour>
  </outline>
</glyph>
<glyph name="percent" format="1">
  <advance width="860"/>
  <unicode hex="0025"/>
  <note>
    percent
  </note>
  <outline>
    <contour>
      <point x="189" y="-15" type="line"/>
      <point x="721" y="636" type="line"/>
      <point x="675" y="675" type="line"/>
      <point x="143" y="24" type="line"/>
    </contour>
    <contour>
      <point x="227" y="322" type="curve" smooth="yes"/>
      <point x="324" y="322"/>
      <point x="406" y="397"/>
      <point x="406" y="495" type="curve" smooth="yes"/>
      <point x="406" y="597"/>
      <point x="328" y="668"/>
      <point x="227" y="668" type="curve" smooth="yes"/>
      <point x="131" y="668"/>
      <point x="48" y="592"/>
      <point x="48" y="495" type="curve" smooth="yes"/>
      <point x="48" y="393"/>
      <point x="124" y="322"/>
    </contour>
    <contour>
      <point x="227" y="380" type="curve" smooth="yes"/>
      <point x="166" y="380"/>
      <point x="121" y="428"/>
      <point x="121" y="496" type="curve" smooth="yes"/>
      <point x="121" y="564"/>
      <point x="166" y="612"/>
      <point x="227" y="612" type="curve" smooth="yes"/>
      <point x="288" y="612"/>
      <point x="336" y="565"/>
      <point x="336" y="496" type="curve" smooth="yes"/>
      <point x="336" y="427"/>
      <point x="288" y="380"/>
    </contour>
    <contour>
      <point x="633" y="-8" type="curve" smooth="yes"/>
      <point x="730" y="-8"/>
      <point x="812" y="67"/>
      <point x="812" y="165" type="curve" smooth="yes"/>
      <point x="812" y="267"/>
      <point x="734" y="338"/>
      <point x="633" y="338" type="curve" smooth="yes"/>
      <point x="537" y="338"/>
      <point x="454" y="262"/>
      <point x="454" y="165" type="curve" smooth="yes"/>
      <point x="454" y="63"/>
      <point x="530" y="-8"/>
    </contour>
    <contour>
      <point x="633" y="50" type="curve" smooth="yes"/>
      <point x="572" y="50"/>
      <point x="527" y="98"/>
      <point x="527" y="166" type="curve" smooth="yes"/>
      <point x="527" y="234"/>
      <point x="572" y="282"/>
      <point x="633" y="282" type="curve" smooth="yes"/>
      <point x="694" y="282"/>
      <point x="742" y="235"/>
      <point x="742" y="166" type="curve" smooth="yes"/>
      <point x="742" y="97"/>
      <point x="694" y="50"/>
    </contour>
  </outline>
</glyph>
<glyph name="comma" format="1">
  <advance width="234"/>
  <unicode hex="002C"/>
  <note>
    comma
  </note>
  <outline>
    <contour>
      <point x="43" y="-176" type="line"/>
      <point x="125" y="-144"/>
      <point x="184" y="-59"/>
      <point x="184" y="21" type="curve" smooth="yes"/>
      <point x="184" y="83"/>
      <point x="151" y="112"/>
      <point x="116" y="112" type="curve" smooth="yes"/>
      <point x="81" y="112"/>
      <point x="57" y="87"/>
      <point x="57" y="58" type="curve" smooth="yes"/>
      <point x="57" y="4"/>
      <point x="111" y="7"/>
      <point x="111" y="-44" type="curve" smooth="yes"/>
      <point x="111" y="-89"/>
      <point x="81" y="-123"/>
      <point x="28" y="-147" type="curve"/>
    </contour>
  </outline>
</glyph>
<glyph name="hyphen" format="1">
  <advance width="373"/>
  <unicode hex="002D"/>
  <note>
    hyphen
  </note>
  <outline>
    <contour>
      <point x="80" y="172" type="line"/>
      <point x="293" y="201" type="line"/>
      <point x="293" y="270" type="line"/>
      <point x="80" y="241" type="line"/>
    </contour>
  </outline>
</glyph>
<glyph name="period" format="1">
  <advance width="234"/>
  <unicode hex="002E"/>
  <note>
    period
  </note>
  <outline>
    <contour>
      <point x="117" y="-10" type="curve" smooth="yes"/>
      <point x="153" y="-10"/>
      <point x="180" y="16"/>
      <point x="180" y="51" type="curve" smooth="yes"/>
      <point x="180" y="86"/>
      <point x="153" y="112"/>
      <point x="117" y="112" type="curve" smooth="yes"/>
      <point x="81" y="112"/>
      <point x="54" y="86"/>
      <point x="54" y="51" type="curve" smooth="yes"/>
      <point x="54" y="16"/>
      <point x="81" y="-10"/>
    </contour>
  </outline>
</glyph>
<glyph name="slash" format="1">
  <advance width="366"/>
  <unicode hex="002F"/>
  <note>
    slash
  </note>
  <outline>
    <contour>
      <point x="20" y="-180" type="line"/>
      <point x="85" y="-180" type="line"/>
      <point x="386" y="728" type="line"/>
      <point x="321" y="728" type="line"/>
    </contour>
  </outline>
</glyph>
<glyph name="one" format="1">
  <advance width="344"/>
  <unicode hex="0031"/>
  <note>
    one
  </note>
  <outline>
    <contour>
      <point x="226" y="217" type="curve" smooth="yes"/>
      <point x="226" y="467" type="line" smooth="yes"/>
      <point x="226" y="554"/>
      <point x="228" y="623"/>
      <point x="230" y="670" type="curve"/>
      <point x="37" y="590" type="line"/>
      <point x="41" y="546" type="line"/>
      <point x="71" y="553"/>
      <point x="116" y="563"/>
      <point x="136" y="566" type="curve"/>
      <point x="138" y="547"/>
      <point x="141" y="514"/>
      <point x="141" y="449" type="curve" smooth="yes"/>
      <point x="141" y="217" type="line" smooth="yes"/>
      <point x="141" y="87"/>
      <point x="137" y="61"/>
      <point x="133" y="54" type="curve"/>
      <point x="124" y="50"/>
      <point x="79" y="42"/>
      <point x="45" y="39" type="curve"/>
      <point x="48" y="-3" type="line"/>
      <point x="93" y="0"/>
      <point x="151" y="2"/>
      <point x="184" y="2" type="curve" smooth="yes"/>
      <point x="216" y="2"/>
      <point x="274" y="0"/>
      <point x="319" y="-3" type="curve"/>
      <point x="322" y="39" type="line"/>
      <point x="288" y="42"/>
      <point x="243" y="50"/>
      <point x="234" y="54" type="curve"/>
      <point x="230" y="61"/>
      <point x="226" y="87"/>
    </contour>
  </outline>
</glyph>
<glyph name="four" format="1">
  <advance width="581"/>
  <unicode hex="0034"/>
  <note>
    four
  </note>
  <outline>
    <contour>
      <point x="423" y="190" type="curve"/>
      <point x="422" y="503" type="line"/>
      <point x="422" y="557"/>
      <point x="423" y="610"/>
      <point x="425" y="664" type="curve"/>
      <point x="384" y="664" type="line"/>
      <point x="37" y="225" type="line"/>
      <point x="47" y="190" type="line"/>
      <point x="524" y="190" type="line"/>
      <point x="524" y="255" type="line"/>
      <point x="184" y="255" type="line" smooth="yes"/>
      <point x="159" y="255"/>
      <point x="133" y="257"/>
      <point x="108" y="258" type="curve"/>
      <point x="113" y="232" type="line"/>
      <point x="369" y="569" type="line"/>
      <point x="338" y="569" type="line"/>
      <point x="338" y="190" type="line"/>
      <point x="338" y="95"/>
      <point x="337" y="71"/>
      <point x="336" y="54" type="curve"/>
      <point x="327" y="50"/>
      <point x="282" y="42"/>
      <point x="248" y="39" type="curve"/>
      <point x="251" y="-3" type="line"/>
      <point x="296" y="0"/>
      <point x="348" y="2"/>
      <point x="381" y="2" type="curve" smooth="yes"/>
      <point x="413" y="2"/>
      <point x="457" y="0"/>
      <point x="492" y="-3" type="curve"/>
      <point x="494" y="39" type="line"/>
      <point x="468" y="42"/>
      <point x="433" y="50"/>
      <point x="426" y="54" type="curve"/>
      <point x="424" y="71"/>
      <point x="423" y="95"/>
    </contour>
  </outline>
</glyph>
<glyph name="eight" format="1">
  <advance width="567"/>
  <unicode hex="0038"/>
  <note>
    eight
  </note>
  <outline>
    <contour>
      <point x="277" y="-10" type="curve" smooth="yes"/>
      <point x="417" y="-10"/>
      <point x="512" y="69"/>
      <point x="512" y="176" type="curve" smooth="yes"/>
      <point x="512" y="255"/>
      <point x="467" y="304"/>
      <point x="333" y="360" type="curve" smooth="yes"/>
      <point x="201" y="417"/>
      <point x="170" y="453"/>
      <point x="170" y="518" type="curve" smooth="yes"/>
      <point x="170" y="584"/>
      <point x="218" y="623"/>
      <point x="282" y="623" type="curve" smooth="yes"/>
      <point x="359" y="623"/>
      <point x="404" y="570"/>
      <point x="404" y="488" type="curve" smooth="yes"/>
      <point x="404" y="437"/>
      <point x="384" y="393"/>
      <point x="337" y="345" type="curve"/>
      <point x="362" y="330" type="line"/>
      <point x="440" y="366"/>
      <point x="490" y="425"/>
      <point x="490" y="498" type="curve" smooth="yes"/>
      <point x="490" y="599"/>
      <point x="407" y="670"/>
      <point x="292" y="670" type="curve" smooth="yes"/>
      <point x="172" y="670"/>
      <point x="81" y="596"/>
      <point x="81" y="495" type="curve" smooth="yes"/>
      <point x="81" y="412"/>
      <point x="127" y="358"/>
      <point x="263" y="301" type="curve" smooth="yes"/>
      <point x="391" y="247"/>
      <point x="423" y="210"/>
      <point x="423" y="149" type="curve" smooth="yes"/>
      <point x="423" y="82"/>
      <point x="373" y="41"/>
      <point x="294" y="41" type="curve" smooth="yes"/>
      <point x="197" y="41"/>
      <point x="145" y="101"/>
      <point x="145" y="170" type="curve" smooth="yes"/>
      <point x="145" y="228"/>
      <point x="177" y="280"/>
      <point x="259" y="320" type="curve"/>
      <point x="223" y="339" type="line"/>
      <point x="119" y="312"/>
      <point x="55" y="251"/>
      <point x="55" y="167" type="curve" smooth="yes"/>
      <point x="55" y="64"/>
      <point x="143" y="-10"/>
    </contour>
  </outline>
</glyph>
<glyph name="less" format="1">
  <advance width="600"/>
  <unicode hex="003C"/>
  <outline>
    <contour>
      <point x="56" y="251" type="line"/>
      <point x="544" y="32" type="line"/>
      <point x="544" y="103" type="line"/>
      <point x="89" y="306" type="line"/>
      <point x="89" y="264" type="line"/>
      <point x="544" y="466" type="line"/>
      <point x="544" y="537" type="line"/>
      <point x="56" y="318" type="line"/>
    </contour>
  </outline>
</glyph>
<glyph name="D" format="1">
  <advance width="750"/>
  <unicode hex="0044"/>
  <note>
    D
  </note>
  <outline>
    <contour>
      <point x="47" y="660" type="curve"/>
      <point x="45" y="618" type="line"/>
      <point x="71" y="619"/>
      <point x="106" y="612"/>
      <point x="113" y="608" type="curve"/>
      <point x="117" y="601"/>
      <point x="121" y="572"/>
      <point x="121" y="442" type="curve" smooth="yes"/>
      <point x="121" y="217" type="line" smooth="yes"/>
      <point x="121" y="87"/>
      <point x="116" y="60"/>
      <point x="113" y="54" type="curve"/>
      <point x="106" y="50"/>
      <point x="71" y="40"/>
      <point x="45" y="39" type="curve"/>
      <point x="47" y="-3" type="line"/>
      <point x="67" y="-1"/>
      <point x="150" y="2"/>
      <point x="188" y="2" type="curve" smooth="yes"/>
      <point x="229" y="2"/>
      <point x="285" y="-1"/>
      <point x="328" y="-1" type="curve" smooth="yes"/>
      <point x="527" y="-1"/>
      <point x="691" y="124"/>
      <point x="691" y="333" type="curve" smooth="yes"/>
      <point x="691" y="533"/>
      <point x="557" y="661"/>
      <point x="313" y="661" type="curve" smooth="yes"/>
      <point x="254" y="661"/>
      <point x="197" y="658"/>
      <point x="155" y="658" type="curve" smooth="yes"/>
      <point x="122" y="658"/>
      <point x="82" y="659"/>
    </contour>
    <contour>
      <point x="211" y="604" type="curve"/>
      <point x="235" y="611"/>
      <point x="269" y="614"/>
      <point x="301" y="614" type="curve" smooth="yes"/>
      <point x="493" y="614"/>
      <point x="587" y="493"/>
      <point x="587" y="308" type="curve" smooth="yes"/>
      <point x="587" y="142"/>
      <point x="495" y="51"/>
      <point x="335" y="51" type="curve" smooth="yes"/>
      <point x="285" y="51"/>
      <point x="249" y="54"/>
      <point x="215" y="61" type="curve"/>
      <point x="210" y="80"/>
      <point x="207" y="112"/>
      <point x="207" y="217" type="curve" smooth="yes"/>
      <point x="207" y="442" type="line" smooth="yes"/>
      <point x="207" y="553"/>
      <point x="208" y="581"/>
    </contour>
    <contour>
      <point x="375" y="0" type="move" name="bottom"/>
    </contour>
    <contour>
      <point x="375" y="330" type="move" name="center"/>
    </contour>
    <contour>
      <point x="215" y="330" type="move" name="stroke"/>
    </contour>
    <contour>
      <point x="375" y="660" type="move" name="top"/>
    </contour>
  </outline>
</glyph>
<glyph name="F" format="1">
  <advance width="569"/>
  <unicode hex="0046"/>
  <note>
    F
  </note>
  <outline>
    <contour>
      <point x="53" y="-3" type="line"/>
      <point x="85" y="0"/>
      <point x="143" y="2"/>
      <point x="176" y="2" type="curve" smooth="yes"/>
      <point x="209" y="2"/>
      <point x="268" y="0"/>
      <point x="303" y="-3" type="curve"/>
      <point x="305" y="41" type="line"/>
      <point x="277" y="44"/>
      <point x="224" y="53"/>
      <point x="215" y="54" type="curve"/>
      <point x="211" y="61"/>
      <point x="207" y="87"/>
      <point x="207" y="217" type="curve" smooth="yes"/>
      <point x="207" y="482" type="line" smooth="yes"/>
      <point x="207" y="526"/>
      <point x="209" y="599"/>
      <point x="210" y="608" type="curve"/>
      <point x="226" y="610"/>
      <point x="257" y="612"/>
      <point x="278" y="612" type="curve" smooth="yes"/>
      <point x="405" y="612" type="line" smooth="yes"/>
      <point x="418" y="612"/>
      <point x="434" y="611"/>
      <point x="445" y="609" type="curve"/>
      <point x="459" y="584"/>
      <point x="472" y="550"/>
      <point x="483" y="514" type="curve"/>
      <point x="531" y="521" type="line"/>
      <point x="510" y="664" type="line"/>
      <point x="474" y="661"/>
      <point x="442" y="660"/>
      <point x="408" y="660" type="curve" smooth="yes"/>
      <point x="166" y="660" type="line" smooth="yes"/>
      <point x="133" y="660"/>
      <point x="83" y="660"/>
      <point x="48" y="661" type="curve"/>
      <point x="46" y="619" type="line"/>
      <point x="72" y="618"/>
      <point x="107" y="609"/>
      <point x="114" y="605" type="curve"/>
      <point x="118" y="598"/>
      <point x="122" y="572"/>
      <point x="122" y="442" type="curve" smooth="yes"/>
      <point x="122" y="217" type="line" smooth="yes"/>
      <point x="122" y="87"/>
      <point x="118" y="61"/>
      <point x="114" y="54" type="curve"/>
      <point x="107" y="50"/>
      <point x="74" y="40"/>
      <point x="51" y="39" type="curve"/>
    </contour>
    <contour>
      <point x="405" y="222" type="curve"/>
      <point x="451" y="222" type="line"/>
      <point x="449" y="260"/>
      <point x="448" y="302"/>
      <point x="448" y="334" type="curve" smooth="yes"/>
      <point x="448" y="366"/>
      <point x="449" y="405"/>
      <point x="451" y="441" type="curve"/>
      <point x="405" y="441" type="line"/>
      <point x="402" y="418"/>
      <point x="397" y="384"/>
      <point x="391" y="363" type="curve"/>
      <point x="382" y="360"/>
      <point x="364" y="359"/>
      <point x="342" y="359" type="curve" smooth="yes"/>
      <point x="242" y="359" type="line" smooth="yes"/>
      <point x="223" y="359"/>
      <point x="202" y="360"/>
      <point x="185" y="361" type="curve"/>
      <point x="185" y="306" type="line"/>
      <point x="202" y="307"/>
      <point x="223" y="308"/>
      <point x="242" y="308" type="curve" smooth="yes"/>
      <point x="342" y="308" type="line" smooth="yes"/>
      <point x="364" y="308"/>
      <point x="382" y="307"/>
      <point x="391" y="304" type="curve"/>
      <point x="397" y="283"/>
      <point x="402" y="247"/>
    </contour>
    <contour>
      <point x="165" y="0" type="move" name="bottom"/>
    </contour>
    <contour>
      <point x="285" y="660" type="move" name="top"/>
    </contour>
  </outline>
</glyph>
<glyph name="I" format="1">
  <advance width="328"/>
  <unicode hex="0049"/>
  <note>
    I
  </note>
  <outline>
    <contour>
      <point x="47" y="-3" type="line"/>
      <point x="82" y="0"/>
      <point x="131" y="2"/>
      <point x="164" y="2" type="curve" smooth="yes"/>
      <point x="197" y="2"/>
      <point x="246" y="0"/>
      <point x="281" y="-3" type="curve"/>
      <point x="283" y="39" type="line"/>
      <point x="257" y="40"/>
      <point x="222" y="50"/>
      <point x="215" y="54" type="curve"/>
      <point x="211" y="61"/>
      <point x="207" y="87"/>
      <point x="207" y="217" type="curve" smooth="yes"/>
      <point x="207" y="442" type="line" smooth="yes"/>
      <point x="207" y="572"/>
      <point x="211" y="598"/>
      <point x="215" y="605" type="curve"/>
      <point x="222" y="609"/>
      <point x="257" y="619"/>
      <point x="283" y="619" type="curve"/>
      <point x="281" y="661" type="line"/>
      <point x="246" y="659"/>
      <point x="197" y="657"/>
      <point x="164" y="657" type="curve" smooth="yes"/>
      <point x="131" y="657"/>
      <point x="82" y="659"/>
      <point x="47" y="661" type="curve"/>
      <point x="45" y="619" type="line"/>
      <point x="71" y="619"/>
      <point x="106" y="609"/>
      <point x="113" y="605" type="curve"/>
      <point x="117" y="598"/>
      <point x="121" y="572"/>
      <point x="121" y="442" type="curve" smooth="yes"/>
      <point x="121" y="217" type="line" smooth="yes"/>
      <point x="121" y="87"/>
      <point x="117" y="61"/>
      <point x="113" y="54" type="curve"/>
      <point x="106" y="50"/>
      <point x="71" y="40"/>
      <point x="45" y="39" type="curve"/>
    </contour>
    <contour>
      <point x="164" y="0" type="move" name="bottom"/>
    </contour>
    <contour>
      <point x="224" y="0" type="move" name="ogonek"/>
    </contour>
    <contour>
      <point x="164" y="660" type="move" name="top"/>
    </contour>
    <contour>
      <point x="20" y="660" type="move" name="topleft"/>
    </contour>
  </outline>
</glyph>
<glyph name="L" format="1">
  <advance width="562"/>
  <unicode hex="004C"/>
  <note>
    L
  </note>
  <outline>
    <contour>
      <point x="512" y="-5" type="curve"/>
      <point x="557" y="157" type="line"/>
      <point x="509" y="167" type="line"/>
      <point x="484" y="113"/>
      <point x="464" y="74"/>
      <point x="452" y="57" type="curve"/>
      <point x="422" y="53"/>
      <point x="396" y="53"/>
      <point x="371" y="53" type="curve" smooth="yes"/>
      <point x="279" y="53" type="line" smooth="yes"/>
      <point x="248" y="53"/>
      <point x="229" y="55"/>
      <point x="212" y="57" type="curve"/>
      <point x="211" y="66"/>
      <point x="209" y="122"/>
      <point x="209" y="217" type="curve" smooth="yes"/>
      <point x="209" y="442" type="line" smooth="yes"/>
      <point x="209" y="572"/>
      <point x="213" y="598"/>
      <point x="217" y="605" type="curve"/>
      <point x="224" y="609"/>
      <point x="263" y="615"/>
      <point x="309" y="618" type="curve"/>
      <point x="307" y="661" type="line"/>
      <point x="272" y="659"/>
      <point x="219" y="659"/>
      <point x="179" y="659" type="curve" smooth="yes"/>
      <point x="146" y="659"/>
      <point x="84" y="659"/>
      <point x="49" y="661" type="curve"/>
      <point x="47" y="619" type="line"/>
      <point x="73" y="617"/>
      <point x="108" y="609"/>
      <point x="115" y="605" type="curve"/>
      <point x="119" y="598"/>
      <point x="123" y="572"/>
      <point x="123" y="442" type="curve" smooth="yes"/>
      <point x="123" y="217" type="line" smooth="yes"/>
      <point x="123" y="87"/>
      <point x="119" y="61"/>
      <point x="115" y="54" type="curve"/>
      <point x="108" y="50"/>
      <point x="73" y="40"/>
      <point x="47" y="39" type="curve"/>
      <point x="49" y="-3" type="line"/>
      <point x="84" y="0"/>
      <point x="134" y="0"/>
      <point x="167" y="0" type="curve" smooth="yes"/>
      <point x="415" y="0" type="line" smooth="yes"/>
      <point x="450" y="0"/>
      <point x="478" y="-1"/>
    </contour>
    <contour>
      <point x="303" y="0" type="move" name="bottom"/>
    </contour>
    <contour>
      <point x="208" y="340" type="move" name="center"/>
    </contour>
    <contour>
      <point x="374" y="360" type="move" name="dotacc"/>
    </contour>
    <contour>
      <point x="166" y="660" type="move" name="top"/>
    </contour>
    <contour>
      <point x="401" y="660" type="move" name="topright"/>
    </contour>
  </outline>
</glyph>
<glyph name="R" format="1">
  <advance width="615"/>
  <unicode hex="0052"/>
  <note>
    R
  </note>
  <outline>
    <contour>
      <point x="49" y="-3" type="line"/>
      <point x="83" y="0"/>
      <point x="132" y="2"/>
      <point x="165" y="2" type="curve" smooth="yes"/>
      <point x="198" y="2"/>
      <point x="246" y="0"/>
      <point x="281" y="-3" type="curve"/>
      <point x="283" y="39" type="line"/>
      <point x="257" y="41"/>
      <point x="224" y="51"/>
      <point x="213" y="54" type="curve"/>
      <point x="210" y="61"/>
      <point x="207" y="87"/>
      <point x="207" y="217" type="curve" smooth="yes"/>
      <point x="207" y="461" type="line" smooth="yes"/>
      <point x="207" y="557"/>
      <point x="207" y="602"/>
      <point x="209" y="610" type="curve"/>
      <point x="222" y="614"/>
      <point x="249" y="617"/>
      <point x="277" y="617" type="curve" smooth="yes"/>
      <point x="360" y="617"/>
      <point x="410" y="576"/>
      <point x="410" y="489" type="curve" smooth="yes"/>
      <point x="410" y="406"/>
      <point x="354" y="354"/>
      <point x="257" y="354" type="curve" smooth="yes"/>
      <point x="235" y="354"/>
      <point x="218" y="354"/>
      <point x="192" y="356" type="curve"/>
      <point x="192" y="308" type="line"/>
      <point x="263" y="308" type="line" smooth="yes"/>
      <point x="401" y="308"/>
      <point x="500" y="388"/>
      <point x="500" y="501" type="curve" smooth="yes"/>
      <point x="500" y="603"/>
      <point x="431" y="662"/>
      <point x="294" y="662" type="curve" smooth="yes"/>
      <point x="235" y="662"/>
      <point x="185" y="659"/>
      <point x="149" y="659" type="curve" smooth="yes"/>
      <point x="114" y="659"/>
      <point x="82" y="659"/>
      <point x="47" y="660" type="curve"/>
      <point x="45" y="618" type="line"/>
      <point x="71" y="619"/>
      <point x="106" y="612"/>
      <point x="113" y="608" type="curve"/>
      <point x="117" y="601"/>
      <point x="121" y="572"/>
      <point x="121" y="442" type="curve" smooth="yes"/>
      <point x="121" y="217" type="line" smooth="yes"/>
      <point x="121" y="87"/>
      <point x="117" y="61"/>
      <point x="113" y="54" type="curve"/>
      <point x="106" y="50"/>
      <point x="73" y="40"/>
      <point x="47" y="39" type="curve"/>
    </contour>
    <contour>
      <point x="576" y="-11" type="curve" smooth="yes"/>
      <point x="589" y="-11"/>
      <point x="607" y="-9"/>
      <point x="621" y="-7" type="curve"/>
      <point x="622" y="30" type="line"/>
      <point x="569" y="37"/>
      <point x="538" y="53"/>
      <point x="460" y="169" type="curve" smooth="yes"/>
      <point x="341" y="345" type="line"/>
      <point x="264" y="329" type="line"/>
      <point x="342" y="189" type="line" smooth="yes"/>
      <point x="429" y="34"/>
      <point x="482" y="-11"/>
    </contour>
    <contour>
      <point x="338" y="0" type="move" name="bottom"/>
    </contour>
    <contour>
      <point x="288" y="660" type="move" name="top"/>
    </contour>
  </outline>
</glyph>
<glyph name="U" format="1">
  <advance width="728"/>
  <unicode hex="0055"/>
  <note>
    U
  </note>
  <outline>
    <contour>
      <point x="45" y="661" type="curve"/>
      <point x="43" y="619" type="line"/>
      <point x="69" y="619"/>
      <point x="104" y="609"/>
      <point x="111" y="605" type="curve"/>
      <point x="115" y="598"/>
      <point x="119" y="572"/>
      <point x="119" y="442" type="curve" smooth="yes"/>
      <point x="119" y="240" type="line" smooth="yes"/>
      <point x="119" y="82"/>
      <point x="215" y="-10"/>
      <point x="373" y="-10" type="curve" smooth="yes"/>
      <point x="509" y="-10"/>
      <point x="611" y="72"/>
      <point x="611" y="260" type="curve" smooth="yes"/>
      <point x="611" y="422" type="line" smooth="yes"/>
      <point x="611" y="572"/>
      <point x="615" y="598"/>
      <point x="619" y="605" type="curve"/>
      <point x="626" y="609"/>
      <point x="674" y="619"/>
      <point x="687" y="619" type="curve"/>
      <point x="685" y="661" type="line"/>
      <point x="650" y="659"/>
      <point x="608" y="658"/>
      <point x="575" y="658" type="curve" smooth="yes"/>
      <point x="539" y="658"/>
      <point x="508" y="659"/>
      <point x="473" y="661" type="curve"/>
      <point x="471" y="619" type="line"/>
      <point x="497" y="619"/>
      <point x="532" y="609"/>
      <point x="539" y="605" type="curve"/>
      <point x="543" y="598"/>
      <point x="547" y="572"/>
      <point x="547" y="422" type="curve" smooth="yes"/>
      <point x="547" y="261" type="line" smooth="yes"/>
      <point x="547" y="113"/>
      <point x="481" y="57"/>
      <point x="385" y="57" type="curve" smooth="yes"/>
      <point x="269" y="57"/>
      <point x="208" y="118"/>
      <point x="207" y="252" type="curve" smooth="yes"/>
      <point x="206" y="442" type="line" smooth="yes"/>
      <point x="205" y="572"/>
      <point x="210" y="598"/>
      <point x="214" y="605" type="curve"/>
      <point x="221" y="609"/>
      <point x="256" y="619"/>
      <point x="282" y="619" type="curve"/>
      <point x="280" y="661" type="line"/>
      <point x="245" y="659"/>
      <point x="196" y="658"/>
      <point x="162" y="658" type="curve" smooth="yes"/>
      <point x="129" y="658"/>
      <point x="80" y="659"/>
    </contour>
    <contour>
      <point x="377" y="0" type="move" name="bottom"/>
    </contour>
    <contour>
      <point x="451" y="0" type="move" name="ogonek"/>
    </contour>
    <contour>
      <point x="377" y="660" type="move" name="top"/>
    </contour>
    <contour>
      <point x="708" y="660" type="move" name="topright"/>
    </contour>
  </outline>
</glyph>
<glyph name="V" format="1">
  <advance width="653"/>
  <unicode hex="0056"/>
  <note>
    V
  </note>
  <outline>
    <contour>
      <point x="307" y="-4" type="line"/>
      <point x="353" y="-4" type="line"/>
      <point x="600" y="607" type="line"/>
      <point x="606" y="609"/>
      <point x="634" y="617"/>
      <point x="655" y="619" type="curve"/>
      <point x="653" y="661" type="line"/>
      <point x="630" y="660"/>
      <point x="605" y="659"/>
      <point x="570" y="659" type="curve" smooth="yes"/>
      <point x="540" y="659"/>
      <point x="490" y="660"/>
      <point x="460" y="661" type="curve"/>
      <point x="458" y="619" type="line"/>
      <point x="484" y="619"/>
      <point x="519" y="609"/>
      <point x="527" y="607" type="curve"/>
      <point x="341" y="100" type="line"/>
      <point x="364" y="100" type="line"/>
      <point x="168" y="607" type="line"/>
      <point x="175" y="609"/>
      <point x="210" y="619"/>
      <point x="236" y="619" type="curve"/>
      <point x="234" y="661" type="line"/>
      <point x="199" y="659"/>
      <point x="158" y="658"/>
      <point x="123" y="658" type="curve" smooth="yes"/>
      <point x="87" y="658"/>
      <point x="40" y="659"/>
      <point x="12" y="661" type="curve"/>
      <point x="10" y="619" type="line"/>
      <point x="31" y="617"/>
      <point x="59" y="609"/>
      <point x="65" y="607" type="curve"/>
    </contour>
    <contour>
      <point x="327" y="0" type="move" name="bottom"/>
    </contour>
    <contour>
      <point x="327" y="660" type="move" name="top"/>
    </contour>
  </outline>
</glyph>
<glyph name="Y" format="1">
  <advance width="594"/>
  <unicode hex="0059"/>
  <note>
    Y
  </note>
  <outline>
    <contour>
      <point x="544" y="607" type="line"/>
      <point x="558" y="612"/>
      <point x="586" y="618"/>
      <point x="599" y="619" type="curve"/>
      <point x="597" y="661" type="line"/>
      <point x="574" y="660"/>
      <point x="546" y="659"/>
      <point x="516" y="659" type="curve" smooth="yes"/>
      <point x="488" y="659"/>
      <point x="435" y="660"/>
      <point x="403" y="661" type="curve"/>
      <point x="401" y="619" type="line"/>
      <point x="419" y="618"/>
      <point x="455" y="611"/>
      <point x="472" y="607" type="curve"/>
      <point x="309" y="335" type="line"/>
      <point x="325" y="335" type="line"/>
      <point x="155" y="607" type="line"/>
      <point x="170" y="611"/>
      <point x="207" y="618"/>
      <point x="227" y="619" type="curve"/>
      <point x="225" y="661" type="line"/>
      <point x="188" y="659"/>
      <point x="143" y="658"/>
      <point x="110" y="658" type="curve" smooth="yes"/>
      <point x="74" y="658"/>
      <point x="28" y="659"/>
      <point x="0" y="661" type="curve"/>
      <point x="-2" y="619" type="line"/>
      <point x="11" y="618"/>
      <point x="39" y="612"/>
      <point x="53" y="607" type="curve"/>
      <point x="275" y="257" type="line"/>
      <point x="254" y="322" type="line"/>
      <point x="254" y="217" type="line" smooth="yes"/>
      <point x="254" y="87"/>
      <point x="250" y="61"/>
      <point x="246" y="54" type="curve"/>
      <point x="239" y="50"/>
      <point x="204" y="41"/>
      <point x="168" y="40" type="curve"/>
      <point x="170" y="-3" type="line"/>
      <point x="215" y="0"/>
      <point x="265" y="2"/>
      <point x="297" y="2" type="curve" smooth="yes"/>
      <point x="330" y="2"/>
      <point x="379" y="0"/>
      <point x="424" y="-3" type="curve"/>
      <point x="426" y="40" type="line"/>
      <point x="390" y="41"/>
      <point x="355" y="50"/>
      <point x="348" y="54" type="curve"/>
      <point x="344" y="61"/>
      <point x="340" y="87"/>
      <point x="340" y="217" type="curve" smooth="yes"/>
      <point x="340" y="322" type="line"/>
      <point x="315" y="257" type="line"/>
    </contour>
    <contour>
      <point x="297" y="0" type="move" name="bottom"/>
    </contour>
    <contour>
      <point x="297" y="660" type="move" name="top"/>
    </contour>
    <contour>
      <point x="20" y="660" type="move" name="topleft"/>
    </contour>
  </outline>
</glyph>
<glyph name="bracketleft" format="1">
  <advance width="325"/>
  <unicode hex="005B"/>
  <note>
    bracketleft
  </note>
  <outline>
    <contour>
      <point x="280" y="-220" type="line"/>
      <point x="280" y="-173" type="line"/>
      <point x="185" y="-173" type="line"/>
      <point x="185" y="675" type="line"/>
      <point x="280" y="675" type="line"/>
      <point x="280" y="722" type="line"/>
      <point x="105" y="722" type="line"/>
      <point x="105" y="-220" type="line"/>
    </contour>
  </outline>
</glyph>
<glyph name="b" format="1">
  <advance width="550"/>
  <unicode hex="0062"/>
  <note>
    b
  </note>
  <outline>
    <contour>
      <point x="95" y="27" type="curve"/>
      <point x="139" y="6"/>
      <point x="198" y="-8"/>
      <point x="255" y="-8" type="curve" smooth="yes"/>
      <point x="390" y="-8"/>
      <point x="502" y="90"/>
      <point x="502" y="233" type="curve" smooth="yes"/>
      <point x="502" y="363"/>
      <point x="416" y="438"/>
      <point x="317" y="438" type="curve" smooth="yes"/>
      <point x="259" y="438"/>
      <point x="207" y="408"/>
      <point x="175" y="363" type="curve"/>
      <point x="172" y="364" type="line"/>
      <point x="174" y="525"/>
      <point x="175" y="597"/>
      <point x="178" y="680" type="curve"/>
      <point x="159" y="694" type="line"/>
      <point x="121" y="678"/>
      <point x="75" y="662"/>
      <point x="27" y="651" type="curve"/>
      <point x="29" y="620" type="line"/>
      <point x="46" y="619"/>
      <point x="75" y="617"/>
      <point x="93" y="615" type="curve"/>
      <point x="95" y="591"/>
      <point x="97" y="454"/>
      <point x="97" y="363" type="curve"/>
      <point x="97" y="191" type="line"/>
      <point x="97" y="134"/>
      <point x="97" y="96"/>
    </contour>
    <contour>
      <point x="277" y="45" type="curve" smooth="yes"/>
      <point x="233" y="45"/>
      <point x="200" y="56"/>
      <point x="173" y="75" type="curve"/>
      <point x="173" y="317" type="line"/>
      <point x="201" y="355"/>
      <point x="241" y="373"/>
      <point x="281" y="373" type="curve" smooth="yes"/>
      <point x="356" y="373"/>
      <point x="415" y="322"/>
      <point x="414" y="215" type="curve" smooth="yes"/>
      <point x="413" y="107"/>
      <point x="355" y="45"/>
    </contour>
    <contour>
      <point x="280" y="0" type="move" name="bottom"/>
    </contour>
    <contour>
      <point x="280" y="660" type="move" name="top"/>
    </contour>
  </outline>
</glyph>
<glyph name="c" format="1">
  <advance width="443"/>
  <unicode hex="0063"/>
  <note>
    c
  </note>
  <outline>
    <contour>
      <point x="251" y="-8" type="curve" smooth="yes"/>
      <point x="324" y="-8"/>
      <point x="382" y="26"/>
      <point x="420" y="95" type="curve"/>
      <point x="394" y="118" type="line"/>
      <point x="360" y="76"/>
      <point x="326" y="59"/>
      <point x="275" y="59" type="curve" smooth="yes"/>
      <point x="194" y="59"/>
      <point x="133" y="118"/>
      <point x="133" y="225" type="curve" smooth="yes"/>
      <point x="133" y="354"/>
      <point x="216" y="411"/>
      <point x="295" y="394" type="curve"/>
      <point x="259" y="405" type="line"/>
      <point x="311" y="353" type="line" smooth="yes"/>
      <point x="334" y="330"/>
      <point x="345" y="323"/>
      <point x="367" y="323" type="curve" smooth="yes"/>
      <point x="391" y="323"/>
      <point x="406" y="338"/>
      <point x="406" y="361" type="curve" smooth="yes"/>
      <point x="406" y="401"/>
      <point x="357" y="438"/>
      <point x="270" y="438" type="curve" smooth="yes"/>
      <point x="142" y="438"/>
      <point x="44" y="338"/>
      <point x="44" y="207" type="curve" smooth="yes"/>
      <point x="44" y="72"/>
      <point x="138" y="-8"/>
    </contour>
    <contour>
      <point x="245" y="0" type="move" name="bottom"/>
    </contour>
    <contour>
      <point x="245" y="430" type="move" name="top"/>
    </contour>
  </outline>
</glyph>
<glyph name="f" format="1">
  <advance width="301"/>
  <unicode hex="0066"/>
  <note>
    f
  </note>
  <outline>
    <contour>
      <point x="265" y="-2" type="curve"/>
      <point x="266" y="39" type="line"/>
      <point x="237" y="42"/>
      <point x="194" y="50"/>
      <point x="181" y="54" type="curve"/>
      <point x="178" y="64"/>
      <point x="175" y="113"/>
      <point x="174" y="206" type="curve" smooth="yes"/>
      <point x="172" y="378" type="line"/>
      <point x="170" y="428" type="line"/>
      <point x="170" y="515" type="line" smooth="yes"/>
      <point x="170" y="630"/>
      <point x="209" y="666"/>
      <point x="248" y="666" type="curve"/>
      <point x="224" y="671" type="line"/>
      <point x="270" y="627" type="line" smooth="yes"/>
      <point x="287" y="612"/>
      <point x="299" y="605"/>
      <point x="318" y="605" type="curve" smooth="yes"/>
      <point x="337" y="605"/>
      <point x="350" y="617"/>
      <point x="350" y="636" type="curve" smooth="yes"/>
      <point x="350" y="670"/>
      <point x="310" y="698"/>
      <point x="255" y="698" type="curve" smooth="yes"/>
      <point x="164" y="698"/>
      <point x="95" y="619"/>
      <point x="95" y="486" type="curve" smooth="yes"/>
      <point x="95" y="378" type="line"/>
      <point x="97" y="199" type="line"/>
      <point x="97" y="102"/>
      <point x="96" y="61"/>
      <point x="94" y="52" type="curve"/>
      <point x="88" y="48"/>
      <point x="46" y="40"/>
      <point x="29" y="39" type="curve"/>
      <point x="32" y="-1" type="line"/>
      <point x="64" y="1"/>
      <point x="109" y="3"/>
      <point x="143" y="3" type="curve" smooth="yes"/>
      <point x="175" y="3"/>
      <point x="218" y="1"/>
    </contour>
    <contour>
      <point x="23" y="378" type="line"/>
      <point x="283" y="378" type="line"/>
      <point x="283" y="428" type="line"/>
      <point x="170" y="428" type="line"/>
      <point x="95" y="429" type="line"/>
      <point x="70" y="421"/>
      <point x="48" y="415"/>
      <point x="23" y="411" type="curve"/>
    </contour>
  </outline>
</glyph>
<glyph name="k" format="1">
  <advance width="490"/>
  <unicode hex="006B"/>
  <note>
    k
  </note>
  <outline>
    <contour>
      <point x="40" y="-3" type="line"/>
      <point x="68" y="0"/>
      <point x="103" y="2"/>
      <point x="136" y="2" type="curve" smooth="yes"/>
      <point x="169" y="2"/>
      <point x="205" y="0"/>
      <point x="231" y="-3" type="curve"/>
      <point x="234" y="36" type="line"/>
      <point x="224" y="38"/>
      <point x="186" y="47"/>
      <point x="175" y="51" type="curve"/>
      <point x="175" y="57"/>
      <point x="173" y="81"/>
      <point x="173" y="145" type="curve"/>
      <point x="174" y="390" type="line"/>
      <point x="174" y="515"/>
      <point x="176" y="597"/>
      <point x="179" y="680" type="curve"/>
      <point x="160" y="694" type="line"/>
      <point x="121" y="678"/>
      <point x="76" y="662"/>
      <point x="28" y="651" type="curve"/>
      <point x="30" y="620" type="line"/>
      <point x="47" y="619"/>
      <point x="76" y="617"/>
      <point x="94" y="615" type="curve"/>
      <point x="96" y="591"/>
      <point x="98" y="454"/>
      <point x="98" y="363" type="curve" smooth="yes"/>
      <point x="98" y="218" type="line" smooth="yes"/>
      <point x="98" y="111"/>
      <point x="95" y="58"/>
      <point x="93" y="51" type="curve"/>
      <point x="84" y="47"/>
      <point x="49" y="38"/>
      <point x="37" y="37" type="curve"/>
    </contour>
    <contour>
      <point x="481" y="-2" type="curve"/>
      <point x="483" y="37" type="line"/>
      <point x="465" y="39"/>
      <point x="453" y="41"/>
      <point x="437" y="47" type="curve"/>
      <point x="427" y="57"/>
      <point x="405" y="80"/>
      <point x="383" y="104" type="curve" smooth="yes"/>
      <point x="243" y="257" type="line"/>
      <point x="230" y="220" type="line"/>
      <point x="411" y="381" type="line"/>
      <point x="432" y="386"/>
      <point x="459" y="391"/>
      <point x="477" y="393" type="curve"/>
      <point x="474" y="431" type="line"/>
      <point x="444" y="430"/>
      <point x="406" y="429"/>
      <point x="376" y="429" type="curve" smooth="yes"/>
      <point x="346" y="429"/>
      <point x="304" y="429"/>
      <point x="274" y="430" type="curve"/>
      <point x="272" y="392" type="line"/>
      <point x="291" y="390"/>
      <point x="315" y="386"/>
      <point x="337" y="381" type="curve"/>
      <point x="198" y="243" type="line"/>
      <point x="159" y="232" type="line"/>
      <point x="158" y="208" type="line"/>
      <point x="186" y="208" type="line"/>
      <point x="321" y="59" type="line" smooth="yes"/>
      <point x="339" y="39"/>
      <point x="352" y="20"/>
      <point x="368" y="0" type="curve"/>
      <point x="407" y="0"/>
      <point x="438" y="0"/>
    </contour>
    <contour>
      <point x="265" y="0" type="move" name="bottom"/>
    </contour>
    <contour>
      <point x="136" y="660" type="move" name="top"/>
    </contour>
  </outline>
</glyph>
<glyph name="l" format="1">
  <advance width="275"/>
  <unicode hex="006C"/>
  <note>
    l
  </note>
  <outline>
    <contour>
      <point x="29" y="-3" type="line"/>
      <point x="67" y="0"/>
      <point x="104" y="2"/>
      <point x="138" y="2" type="curve" smooth="yes"/>
      <point x="172" y="2"/>
      <point x="212" y="0"/>
      <point x="250" y="-3" type="curve"/>
      <point x="253" y="36" type="line"/>
      <point x="231" y="37"/>
      <point x="190" y="47"/>
      <point x="181" y="51" type="curve"/>
      <point x="179" y="57"/>
      <point x="175" y="101"/>
      <point x="175" y="219" type="curve"/>
      <point x="176" y="380" type="line"/>
      <point x="176" y="525"/>
      <point x="177" y="597"/>
      <point x="180" y="680" type="curve"/>
      <point x="161" y="694" type="line"/>
      <point x="122" y="678"/>
      <point x="76" y="662"/>
      <point x="28" y="651" type="curve"/>
      <point x="30" y="620" type="line"/>
      <point x="47" y="619"/>
      <point x="76" y="617"/>
      <point x="94" y="615" type="curve"/>
      <point x="96" y="591"/>
      <point x="98" y="454"/>
      <point x="98" y="363" type="curve" smooth="yes"/>
      <point x="98" y="238" type="line" smooth="yes"/>
      <point x="98" y="111"/>
      <point x="95" y="58"/>
      <point x="92" y="51" type="curve"/>
      <point x="84" y="47"/>
      <point x="48" y="38"/>
      <point x="26" y="37" type="curve"/>
    </contour>
    <contour>
      <point x="137" y="0" type="move" name="bottom"/>
    </contour>
    <contour>
      <point x="137" y="350" type="move" name="center"/>
    </contour>
    <contour>
      <point x="285" y="350" type="move" name="dotacc"/>
    </contour>
    <contour>
      <point x="137" y="660" type="move" name="top"/>
    </contour>
    <contour>
      <point x="216" y="688" type="move" name="topright"/>
    </contour>
  </outline>
</glyph>
<glyph name="o" format="1">
  <advance width="518"/>
  <unicode hex="006F"/>
  <note>
    o
  </note>
  <outline>
    <contour>
      <point x="263" y="-8" type="curve" smooth="yes"/>
      <point x="380" y="-8"/>
      <point x="472" y="92"/>
      <point x="472" y="218" type="curve" smooth="yes"/>
      <point x="472" y="349"/>
      <point x="390" y="438"/>
      <point x="266" y="438" type="curve" smooth="yes"/>
      <point x="146" y="438"/>
      <point x="46" y="349"/>
      <point x="46" y="214" type="curve" smooth="yes"/>
      <point x="46" y="83"/>
      <point x="132" y="-8"/>
    </contour>
    <contour>
      <point x="272" y="39" type="curve" smooth="yes"/>
      <point x="193" y="39"/>
      <point x="136" y="116"/>
      <point x="136" y="229" type="curve" smooth="yes"/>
      <point x="136" y="329"/>
      <point x="183" y="393"/>
      <point x="255" y="393" type="curve" smooth="yes"/>
      <point x="332" y="393"/>
      <point x="384" y="316"/>
      <point x="384" y="200" type="curve" smooth="yes"/>
      <point x="384" y="105"/>
      <point x="339" y="39"/>
    </contour>
    <contour>
      <point x="259" y="0" type="move" name="bottom"/>
    </contour>
    <contour>
      <point x="259" y="215" type="move" name="center"/>
    </contour>
    <contour>
      <point x="331" y="0" type="move" name="ogonek"/>
    </contour>
    <contour>
      <point x="259" y="430" type="move" name="top"/>
    </contour>
    <contour>
      <point x="498" y="430" type="move" name="topright"/>
    </contour>
  </outline>
</glyph>
<glyph name="r" format="1">
  <advance width="360"/>
  <unicode hex="0072"/>
  <note>
    r
  </note>
  <outline>
    <contour>
      <point x="33" y="-3" type="line"/>
      <point x="68" y="0"/>
      <point x="106" y="2"/>
      <point x="148" y="2" type="curve" smooth="yes"/>
      <point x="180" y="2"/>
      <point x="221" y="0"/>
      <point x="268" y="-3" type="curve"/>
      <point x="269" y="38" type="line"/>
      <point x="240" y="41"/>
      <point x="192" y="49"/>
      <point x="183" y="52" type="curve"/>
      <point x="181" y="68"/>
      <point x="177" y="121"/>
      <point x="176" y="185" type="curve" smooth="yes"/>
      <point x="175" y="279" type="line"/>
      <point x="194" y="320"/>
      <point x="217" y="349"/>
      <point x="241" y="366" type="curve"/>
      <point x="224" y="372" type="line"/>
      <point x="243" y="356"/>
      <point x="265" y="346"/>
      <point x="290" y="346" type="curve" smooth="yes"/>
      <point x="325" y="346"/>
      <point x="348" y="363"/>
      <point x="348" y="392" type="curve" smooth="yes"/>
      <point x="348" y="420"/>
      <point x="327" y="436"/>
      <point x="292" y="436" type="curve" smooth="yes"/>
      <point x="258" y="436"/>
      <point x="215" y="414"/>
      <point x="174" y="340" type="curve"/>
      <point x="171" y="341" type="line"/>
      <point x="176" y="421" type="line"/>
      <point x="161" y="436" type="line"/>
      <point x="119" y="422"/>
      <point x="76" y="411"/>
      <point x="28" y="403" type="curve"/>
      <point x="28" y="370" type="line"/>
      <point x="52" y="366"/>
      <point x="76" y="360"/>
      <point x="91" y="353" type="curve"/>
      <point x="94" y="340"/>
      <point x="100" y="301"/>
      <point x="100" y="236" type="curve"/>
      <point x="99" y="158" type="line" smooth="yes"/>
      <point x="98" y="81"/>
      <point x="98" y="58"/>
      <point x="96" y="51" type="curve"/>
      <point x="87" y="47"/>
      <point x="49" y="38"/>
      <point x="30" y="37" type="curve"/>
    </contour>
    <contour>
      <point x="138" y="0" type="move" name="bottom"/>
    </contour>
    <contour>
      <point x="168" y="430" type="move" name="top"/>
    </contour>
  </outline>
</glyph>
<glyph name="w" format="1">
  <advance width="761"/>
  <unicode hex="0077"/>
  <note>
    w
  </note>
  <outline>
    <contour>
      <point x="508" y="-4" type="line"/>
      <point x="538" y="-4" type="line"/>
      <point x="711" y="381" type="line"/>
      <point x="726" y="386"/>
      <point x="745" y="391"/>
      <point x="757" y="393" type="curve"/>
      <point x="755" y="431" type="line"/>
      <point x="735" y="430"/>
      <point x="695" y="429"/>
      <point x="675" y="429" type="curve" smooth="yes"/>
      <point x="654" y="429"/>
      <point x="617" y="429"/>
      <point x="597" y="430" type="curve"/>
      <point x="595" y="392" type="line"/>
      <point x="612" y="390"/>
      <point x="632" y="386"/>
      <point x="650" y="381" type="curve"/>
      <point x="526" y="74" type="line"/>
      <point x="555" y="75" type="line"/>
      <point x="438" y="381" type="line"/>
      <point x="456" y="386"/>
      <point x="476" y="390"/>
      <point x="493" y="392" type="curve"/>
      <point x="491" y="430" type="line"/>
      <point x="466" y="429"/>
      <point x="427" y="429"/>
      <point x="397" y="429" type="curve" smooth="yes"/>
      <point x="367" y="429"/>
      <point x="327" y="430"/>
      <point x="302" y="431" type="curve"/>
      <point x="300" y="393" type="line"/>
      <point x="315" y="391"/>
      <point x="335" y="386"/>
      <point x="353" y="381" type="curve"/>
    </contour>
    <contour>
      <point x="217" y="-4" type="line"/>
      <point x="247" y="-4" type="line"/>
      <point x="398" y="326" type="line"/>
      <point x="371" y="390" type="line"/>
      <point x="236" y="74" type="line"/>
      <point x="268" y="75" type="line"/>
      <point x="144" y="381" type="line"/>
      <point x="162" y="386"/>
      <point x="180" y="390"/>
      <point x="197" y="392" type="curve"/>
      <point x="195" y="430" type="line"/>
      <point x="170" y="429"/>
      <point x="132" y="429"/>
      <point x="102" y="429" type="curve" smooth="yes"/>
      <point x="72" y="429"/>
      <point x="34" y="430"/>
      <point x="8" y="431" type="curve"/>
      <point x="6" y="393" type="line"/>
      <point x="18" y="391"/>
      <point x="38" y="386"/>
      <point x="53" y="381" type="curve"/>
    </contour>
    <contour>
      <point x="378" y="0" type="move" name="bottom"/>
    </contour>
    <contour>
      <point x="396" y="430" type="move" name="top"/>
    </contour>
  </outline>
</glyph>
<glyph name="braceleft" format="1">
  <advance width="369"/>
  <unicode hex="007B"/>
  <note>
    braceleft
  </note>
  <outline>
    <contour>
      <point x="207" y="-82" type="curve" smooth="yes"/>
      <point x="207" y="-9"/>
      <point x="247" y="51"/>
      <point x="247" y="131" type="curve" smooth="yes"/>
      <point x="247" y="198"/>
      <point x="209" y="250"/>
      <point x="128" y="261" type="curve"/>
      <point x="128" y="247" type="line"/>
      <point x="211" y="258"/>
      <point x="247" y="306"/>
      <point x="247" y="371" type="curve" smooth="yes"/>
      <point x="247" y="451"/>
      <point x="207" y="511"/>
      <point x="207" y="584" type="curve" smooth="yes"/>
      <point x="207" y="642"/>
      <point x="240" y="675"/>
      <point x="314" y="690" type="curve"/>
      <point x="306" y="730" type="line"/>
      <point x="185" y="712"/>
      <point x="125" y="659"/>
      <point x="125" y="572" type="curve" smooth="yes"/>
      <point x="125" y="498"/>
      <point x="175" y="416"/>
      <point x="175" y="353" type="curve" smooth="yes"/>
      <point x="175" y="302"/>
      <point x="141" y="276"/>
      <point x="70" y="273" type="curve"/>
      <point x="70" y="229" type="line"/>
      <point x="141" y="226"/>
      <point x="175" y="200"/>
      <point x="175" y="149" type="curve" smooth="yes"/>
      <point x="175" y="86"/>
      <point x="125" y="4"/>
      <point x="125" y="-70" type="curve" smooth="yes"/>
      <point x="125" y="-157"/>
      <point x="185" y="-210"/>
      <point x="306" y="-228" type="curve"/>
      <point x="314" y="-188" type="line"/>
      <point x="240" y="-173"/>
      <point x="207" y="-140"/>
    </contour>
  </outline>
</glyph>
<glyph name="asciitilde" format="1">
  <advance width="600"/>
  <unicode hex="007E"/>
  <outline>
    <contour>
      <point x="512" y="333" type="line"/>
      <point x="492" y="295"/>
      <point x="465" y="274"/>
      <point x="429" y="274" type="curve" smooth="yes"/>
      <point x="369" y="274"/>
      <point x="273" y="357"/>
      <point x="186" y="357" type="curve" smooth="yes"/>
      <point x="128" y="357"/>
      <point x="81" y="320"/>
      <point x="56" y="256" type="curve"/>
      <point x="88" y="236" type="line"/>
      <point x="107" y="274"/>
      <point x="135" y="295"/>
      <point x="171" y="295" type="curve" smooth="yes"/>
      <point x="231" y="295"/>
      <point x="327" y="212"/>
      <point x="414" y="212" type="curve" smooth="yes"/>
      <point x="472" y="212"/>
      <point x="519" y="249"/>
      <point x="544" y="313" type="curve"/>
    </contour>
  </outline>
</glyph>
<glyph name="exclamdown" format="1">
  <advance width="266"/>
  <unicode hex="00A1"/>
  <note>
    exclamdown
  </note>
  <outline>
    <contour>
      <point x="114" y="246" type="line"/>
      <point x="109" y="102"/>
      <point x="82" y="-73"/>
      <point x="82" y="-169" type="curve" smooth="yes"/>
      <point x="82" y="-206"/>
      <point x="102" y="-228"/>
      <point x="133" y="-228" type="curve" smooth="yes"/>
      <point x="164" y="-228"/>
      <point x="184" y="-206"/>
      <point x="184" y="-169" type="curve" smooth="yes"/>
      <point x="184" y="-73"/>
      <point x="157" y="102"/>
      <point x="152" y="246" type="curve"/>
    </contour>
    <contour>
      <point x="133" y="438" type="curve" smooth="yes"/>
      <point x="97" y="438"/>
      <point x="70" y="412"/>
      <point x="70" y="377" type="curve" smooth="yes"/>
      <point x="70" y="342"/>
      <point x="97" y="316"/>
      <point x="133" y="316" type="curve" smooth="yes"/>
      <point x="169" y="316"/>
      <point x="196" y="342"/>
      <point x="196" y="377" type="curve" smooth="yes"/>
      <point x="196" y="412"/>
      <point x="169" y="438"/>
    </contour>
  </outline>
</glyph>
<glyph name="yen" format="1">
  <advance width="594"/>
  <unicode hex="00A5"/>
  <note>
    yen
  </note>
  <outline>
    <contour>
      <point x="544" y="607" type="line"/>
      <point x="558" y="612"/>
      <point x="586" y="618"/>
      <point x="599" y="619" type="curve"/>
      <point x="597" y="661" type="line"/>
      <point x="574" y="660"/>
      <point x="546" y="659"/>
      <point x="516" y="659" type="curve" smooth="yes"/>
      <point x="488" y="659"/>
      <point x="435" y="660"/>
      <point x="403" y="661" type="curve"/>
      <point x="401" y="619" type="line"/>
      <point x="419" y="618"/>
      <point x="455" y="611"/>
      <point x="472" y="607" type="curve"/>
      <point x="309" y="335" type="line"/>
      <point x="325" y="335" type="line"/>
      <point x="155" y="607" type="line"/>
      <point x="170" y="611"/>
      <point x="207" y="618"/>
      <point x="227" y="619" type="curve"/>
      <point x="225" y="661" type="line"/>
      <point x="188" y="659"/>
      <point x="143" y="658"/>
      <point x="110" y="658" type="curve" smooth="yes"/>
      <point x="74" y="658"/>
      <point x="28" y="659"/>
      <point x="0" y="661" type="curve"/>
      <point x="-2" y="619" type="line"/>
      <point x="11" y="618"/>
      <point x="39" y="612"/>
      <point x="53" y="607" type="curve"/>
      <point x="275" y="257" type="line"/>
      <point x="254" y="322" type="line"/>
      <point x="254" y="217" type="line" smooth="yes"/>
      <point x="254" y="87"/>
      <point x="250" y="61"/>
      <point x="246" y="54" type="curve"/>
      <point x="239" y="50"/>
      <point x="204" y="41"/>
      <point x="168" y="40" type="curve"/>
      <point x="170" y="-3" type="line"/>
      <point x="215" y="0"/>
      <point x="265" y="2"/>
      <point x="297" y="2" type="curve" smooth="yes"/>
      <point x="330" y="2"/>
      <point x="379" y="0"/>
      <point x="424" y="-3" type="curve"/>
      <point x="426" y="40" type="line"/>
      <point x="390" y="41"/>
      <point x="355" y="50"/>
      <point x="348" y="54" type="curve"/>
      <point x="344" y="61"/>
      <point x="340" y="87"/>
      <point x="340" y="217" type="curve" smooth="yes"/>
      <point x="340" y="322" type="line"/>
      <point x="315" y="257" type="line"/>
    </contour>
    <contour>
      <point x="89" y="273" type="line"/>
      <point x="505" y="273" type="line"/>
      <point x="505" y="319" type="line"/>
      <point x="89" y="319" type="line"/>
    </contour>
    <contour>
      <point x="89" y="137" type="line"/>
      <point x="505" y="137" type="line"/>
      <point x="505" y="183" type="line"/>
      <point x="89" y="183" type="line"/>
    </contour>
  </outline>
</glyph>
<glyph name="logicalnot" format="1">
  <advance width="600"/>
  <unicode hex="00AC"/>
  <outline>
    <contour>
      <point x="544" y="421" type="line"/>
      <point x="56" y="421" type="line"/>
      <point x="56" y="356" type="line"/>
      <point x="480" y="356" type="line"/>
      <point x="480" y="149" type="line"/>
      <point x="544" y="149" type="line"/>
    </contour>
  </outline>
</glyph>
<glyph name="threesuperior" format="1">
  <advance width="316"/>
  <unicode hex="00B3"/>
  <note>
    uni00B3
  </note>
  <outline>
    <contour>
      <point x="110" y="247" type="curve" smooth="yes"/>
      <point x="203" y="247"/>
      <point x="288" y="301"/>
      <point x="288" y="385" type="curve" smooth="yes"/>
      <point x="288" y="444"/>
      <point x="228" y="484"/>
      <point x="192" y="484" type="curve"/>
      <point x="226" y="506"/>
      <point x="258" y="526"/>
      <point x="258" y="569" type="curve" smooth="yes"/>
      <point x="258" y="616"/>
      <point x="211" y="647"/>
      <point x="174" y="647" type="curve" smooth="yes"/>
      <point x="123" y="647"/>
      <point x="82" y="629"/>
      <point x="53" y="593" type="curve"/>
      <point x="52" y="592"/>
      <point x="60" y="558"/>
      <point x="67" y="558" type="curve" smooth="yes"/>
      <point x="77" y="558"/>
      <point x="113" y="596"/>
      <point x="140" y="596" type="curve" smooth="yes"/>
      <point x="168" y="596"/>
      <point x="192" y="579"/>
      <point x="192" y="554" type="curve" smooth="yes"/>
      <point x="192" y="507"/>
      <point x="153" y="479"/>
      <point x="100" y="468" type="curve"/>
      <point x="94" y="466"/>
      <point x="91" y="462"/>
      <point x="91" y="457" type="curve" smooth="yes"/>
      <point x="91" y="450"/>
      <point x="94" y="444"/>
      <point x="100" y="438" type="curve"/>
      <point x="131" y="442"/>
      <point x="148" y="444"/>
      <point x="152" y="444" type="curve" smooth="yes"/>
      <point x="191" y="444"/>
      <point x="217" y="418"/>
      <point x="217" y="371" type="curve" smooth="yes"/>
      <point x="217" y="314"/>
      <point x="176" y="283"/>
      <point x="129" y="283" type="curve" smooth="yes"/>
      <point x="118" y="283"/>
      <point x="105" y="289"/>
      <point x="91" y="300" type="curve" smooth="yes"/>
      <point x="77" y="311"/>
      <point x="65" y="317"/>
      <point x="55" y="317" type="curve" smooth="yes"/>
      <point x="39" y="317"/>
      <point x="27" y="300"/>
      <point x="27" y="280" type="curve" smooth="yes"/>
      <point x="27" y="273" type="line"/>
      <point x="35" y="261"/>
      <point x="71" y="247"/>
    </contour>
  </outline>
</glyph>
<glyph name="AE" format="1">
  <advance width="897"/>
  <unicode hex="00C6"/>
  <note>
    AE
  </note>
  <outline>
    <contour>
      <point x="698" y="232" type="curve"/>
      <point x="744" y="232" type="line"/>
      <point x="742" y="268"/>
      <point x="741" y="308"/>
      <point x="741" y="340" type="curve" smooth="yes"/>
      <point x="741" y="372"/>
      <point x="742" y="411"/>
      <point x="744" y="447" type="curve"/>
      <point x="698" y="447" type="line"/>
      <point x="695" y="424"/>
      <point x="690" y="390"/>
      <point x="684" y="369" type="curve"/>
      <point x="675" y="366"/>
      <point x="657" y="365"/>
      <point x="635" y="365" type="curve" smooth="yes"/>
      <point x="554" y="365" type="line" smooth="yes"/>
      <point x="535" y="365"/>
      <point x="514" y="366"/>
      <point x="487" y="367" type="curve"/>
      <point x="487" y="312" type="line"/>
      <point x="514" y="313"/>
      <point x="535" y="314"/>
      <point x="554" y="314" type="curve" smooth="yes"/>
      <point x="635" y="314" type="line" smooth="yes"/>
      <point x="657" y="314"/>
      <point x="675" y="313"/>
      <point x="684" y="310" type="curve"/>
      <point x="690" y="289"/>
      <point x="695" y="255"/>
    </contour>
    <contour>
      <point x="188" y="209" type="line"/>
      <point x="224" y="211"/>
      <point x="266" y="212"/>
      <point x="325" y="212" type="curve" smooth="yes"/>
      <point x="384" y="212"/>
      <point x="423" y="211"/>
      <point x="449" y="208" type="curve"/>
      <point x="449" y="264" type="line"/>
      <point x="426" y="262"/>
      <point x="384" y="261"/>
      <point x="325" y="261" type="curve" smooth="yes"/>
      <point x="266" y="261"/>
      <point x="223" y="262"/>
      <point x="200" y="264" type="curve"/>
    </contour>
    <contour>
      <point x="815" y="163" type="line"/>
      <point x="790" y="109"/>
      <point x="770" y="71"/>
      <point x="758" y="54" type="curve"/>
      <point x="747" y="52"/>
      <point x="728" y="50"/>
      <point x="677" y="50" type="curve" smooth="yes"/>
      <point x="574" y="50" type="line" smooth="yes"/>
      <point x="543" y="50"/>
      <point x="524" y="52"/>
      <point x="507" y="54" type="curve"/>
      <point x="506" y="63"/>
      <point x="504" y="115"/>
      <point x="504" y="158" type="curve" smooth="yes"/>
      <point x="504" y="482" type="line" smooth="yes"/>
      <point x="504" y="526"/>
      <point x="506" y="599"/>
      <point x="507" y="608" type="curve"/>
      <point x="524" y="610"/>
      <point x="543" y="612"/>
      <point x="574" y="612" type="curve" smooth="yes"/>
      <point x="698" y="612" type="line" smooth="yes"/>
      <point x="711" y="612"/>
      <point x="727" y="611"/>
      <point x="738" y="609" type="curve"/>
      <point x="752" y="584"/>
      <point x="765" y="550"/>
      <point x="776" y="514" type="curve"/>
      <point x="824" y="521" type="line"/>
      <point x="803" y="664" type="line"/>
      <point x="767" y="661"/>
      <point x="735" y="660"/>
      <point x="701" y="660" type="curve" smooth="yes"/>
      <point x="462" y="660" type="line" smooth="yes"/>
      <point x="429" y="660"/>
      <point x="370" y="659"/>
      <point x="328" y="661" type="curve"/>
      <point x="326" y="619" type="line"/>
      <point x="358" y="617"/>
      <point x="401" y="609"/>
      <point x="413" y="605" type="curve"/>
      <point x="413" y="644" type="line"/>
      <point x="39" y="51" type="line"/>
      <point x="25" y="46"/>
      <point x="5" y="40"/>
      <point x="-16" y="39" type="curve"/>
      <point x="-14" y="-3" type="line"/>
      <point x="17" y="0"/>
      <point x="59" y="1"/>
      <point x="85" y="1" type="curve" smooth="yes"/>
      <point x="111" y="1"/>
      <point x="144" y="0"/>
      <point x="179" y="-3" type="curve"/>
      <point x="181" y="39" type="line"/>
      <point x="155" y="40"/>
      <point x="124" y="48"/>
      <point x="112" y="51" type="curve"/>
      <point x="449" y="614" type="line"/>
      <point x="418" y="590" type="line"/>
      <point x="418" y="147" type="line" smooth="yes"/>
      <point x="418" y="87"/>
      <point x="416" y="61"/>
      <point x="413" y="54" type="curve"/>
      <point x="405" y="50"/>
      <point x="371" y="40"/>
      <point x="345" y="39" type="curve"/>
      <point x="347" y="-3" type="line"/>
      <point x="382" y="0"/>
      <point x="429" y="0"/>
      <point x="462" y="0" type="curve" smooth="yes"/>
      <point x="723" y="0" type="line" smooth="yes"/>
      <point x="758" y="0"/>
      <point x="786" y="-1"/>
      <point x="820" y="-5" type="curve"/>
      <point x="863" y="153" type="line"/>
    </contour>
    <contour>
      <point x="461" y="0" type="move" name="bottom"/>
    </contour>
    <contour>
      <point x="461" y="660" type="move" name="top"/>
    </contour>
  </outline>
</glyph>
<glyph name="Thorn" format="1">
  <advance width="546"/>
  <unicode hex="00DE"/>
  <note>
    Thorn
  </note>
  <outline>
    <contour>
      <point x="47" y="-3" type="line"/>
      <point x="82" y="0"/>
      <point x="132" y="2"/>
      <point x="165" y="2" type="curve" smooth="yes"/>
      <point x="198" y="2"/>
      <point x="248" y="0"/>
      <point x="294" y="-3" type="curve"/>
      <point x="296" y="41" type="line"/>
      <point x="259" y="42"/>
      <point x="220" y="50"/>
      <point x="212" y="54" type="curve"/>
      <point x="209" y="61"/>
      <point x="207" y="87"/>
      <point x="207" y="127" type="curve" smooth="yes"/>
      <point x="207" y="487" type="line"/>
      <point x="222" y="489"/>
      <point x="241" y="490"/>
      <point x="256" y="490" type="curve" smooth="yes"/>
      <point x="361" y="490"/>
      <point x="423" y="436"/>
      <point x="423" y="335" type="curve" smooth="yes"/>
      <point x="423" y="239"/>
      <point x="366" y="195"/>
      <point x="275" y="195" type="curve" smooth="yes"/>
      <point x="248" y="195"/>
      <point x="223" y="199"/>
      <point x="193" y="208" type="curve"/>
      <point x="193" y="158" type="line"/>
      <point x="214" y="152"/>
      <point x="252" y="148"/>
      <point x="272" y="148" type="curve" smooth="yes"/>
      <point x="406" y="148"/>
      <point x="514" y="222"/>
      <point x="514" y="348" type="curve" smooth="yes"/>
      <point x="514" y="470"/>
      <point x="426" y="537"/>
      <point x="263" y="537" type="curve" smooth="yes"/>
      <point x="242" y="537"/>
      <point x="218" y="536"/>
      <point x="192" y="535" type="curve"/>
      <point x="207" y="513" type="line"/>
      <point x="207" y="552" type="line" smooth="yes"/>
      <point x="207" y="582"/>
      <point x="209" y="598"/>
      <point x="212" y="605" type="curve"/>
      <point x="220" y="609"/>
      <point x="256" y="619"/>
      <point x="279" y="619" type="curve"/>
      <point x="277" y="661" type="line"/>
      <point x="245" y="659"/>
      <point x="198" y="657"/>
      <point x="165" y="657" type="curve" smooth="yes"/>
      <point x="132" y="657"/>
      <point x="82" y="659"/>
      <point x="50" y="661" type="curve"/>
      <point x="48" y="619" type="line"/>
      <point x="71" y="619"/>
      <point x="106" y="609"/>
      <point x="113" y="605" type="curve"/>
      <point x="117" y="598"/>
      <point x="121" y="572"/>
      <point x="121" y="442" type="curve" smooth="yes"/>
      <point x="121" y="217" type="line" smooth="yes"/>
      <point x="121" y="87"/>
      <point x="117" y="61"/>
      <point x="113" y="54" type="curve"/>
      <point x="106" y="50"/>
      <point x="71" y="40"/>
      <point x="45" y="39" type="curve"/>
    </contour>
  </outline>
</glyph>
<glyph name="germandbls" format="1">
  <advance width="585"/>
  <unicode hex="00DF"/>
  <note>
    germandbls
  </note>
  <outline>
    <contour>
      <point x="408" y="-8" type="curve" smooth="yes"/>
      <point x="499" y="-8"/>
      <point x="560" y="45"/>
      <point x="560" y="119" type="curve" smooth="yes"/>
      <point x="560" y="254"/>
      <point x="351" y="248"/>
      <point x="351" y="364" type="curve" smooth="yes"/>
      <point x="351" y="433"/>
      <point x="448" y="492"/>
      <point x="448" y="577" type="curve" smooth="yes"/>
      <point x="448" y="650"/>
      <point x="393" y="698"/>
      <point x="298" y="698" type="curve" smooth="yes"/>
      <point x="176" y="698"/>
      <point x="95" y="609"/>
      <point x="95" y="480" type="curve" smooth="yes"/>
      <point x="95" y="378" type="line"/>
      <point x="97" y="189" type="line" smooth="yes"/>
      <point x="98" y="102"/>
      <point x="96" y="61"/>
      <point x="94" y="52" type="curve"/>
      <point x="88" y="48"/>
      <point x="49" y="40"/>
      <point x="34" y="39" type="curve"/>
      <point x="37" y="-1" type="line"/>
      <point x="67" y="1"/>
      <point x="108" y="3"/>
      <point x="142" y="3" type="curve" smooth="yes"/>
      <point x="174" y="3"/>
      <point x="186" y="2"/>
      <point x="233" y="-1" type="curve"/>
      <point x="234" y="39" type="line"/>
      <point x="217" y="40"/>
      <point x="185" y="48"/>
      <point x="177" y="52" type="curve"/>
      <point x="176" y="62"/>
      <point x="172" y="113"/>
      <point x="171" y="196" type="curve" smooth="yes"/>
      <point x="169" y="504" type="line"/>
      <point x="169" y="599"/>
      <point x="213" y="655"/>
      <point x="288" y="655" type="curve" smooth="yes"/>
      <point x="344" y="655"/>
      <point x="381" y="619"/>
      <point x="381" y="563" type="curve" smooth="yes"/>
      <point x="381" y="463"/>
      <point x="278" y="415"/>
      <point x="278" y="331" type="curve" smooth="yes"/>
      <point x="278" y="194"/>
      <point x="485" y="203"/>
      <point x="485" y="98" type="curve" smooth="yes"/>
      <point x="485" y="57"/>
      <point x="456" y="34"/>
      <point x="417" y="34" type="curve" smooth="yes"/>
      <point x="392" y="34"/>
      <point x="367" y="42"/>
      <point x="343" y="56" type="curve"/>
      <point x="336" y="82"/>
      <point x="331" y="106"/>
      <point x="326" y="128" type="curve"/>
      <point x="278" y="128" type="line"/>
      <point x="277" y="94"/>
      <point x="278" y="59"/>
      <point x="281" y="23" type="curve"/>
      <point x="315" y="3"/>
      <point x="365" y="-8"/>
    </contour>
    <contour>
      <point x="23" y="378" type="line"/>
      <point x="135" y="378" type="line"/>
      <point x="135" y="428" type="line"/>
      <point x="95" y="429" type="line"/>
      <point x="70" y="421"/>
      <point x="48" y="415"/>
      <point x="23" y="411" type="curve"/>
    </contour>
  </outline>
</glyph>
<glyph name="eth" format="1">
  <advance width="513"/>
  <unicode hex="00F0"/>
  <note>
    eth
  </note>
  <outline>
    <contour>
      <point x="388" y="369" type="curve"/>
      <point x="396" y="419" type="line"/>
      <point x="356" y="434"/>
      <point x="315" y="438"/>
      <point x="283" y="438" type="curve" smooth="yes"/>
      <point x="152" y="438"/>
      <point x="48" y="355"/>
      <point x="48" y="209" type="curve" smooth="yes"/>
      <point x="48" y="68"/>
      <point x="144" y="-8"/>
      <point x="257" y="-8" type="curve" smooth="yes"/>
      <point x="382" y="-8"/>
      <point x="465" y="90"/>
      <point x="465" y="271" type="curve" smooth="yes"/>
      <point x="465" y="454"/>
      <point x="336" y="632"/>
      <point x="162" y="688" type="curve"/>
      <point x="61" y="688" type="line"/>
      <point x="59" y="656" type="line"/>
      <point x="264" y="591"/>
      <point x="379" y="440"/>
      <point x="379" y="236" type="curve" smooth="yes"/>
      <point x="379" y="93"/>
      <point x="342" y="38"/>
      <point x="270" y="38" type="curve" smooth="yes"/>
      <point x="192" y="38"/>
      <point x="138" y="110"/>
      <point x="138" y="220" type="curve" smooth="yes"/>
      <point x="138" y="333"/>
      <point x="191" y="393"/>
      <point x="282" y="393" type="curve" smooth="yes"/>
      <point x="313" y="393"/>
      <point x="352" y="389"/>
    </contour>
    <contour>
      <point x="91" y="504" type="line"/>
      <point x="405" y="658" type="line"/>
      <point x="385" y="698" type="line"/>
      <point x="71" y="544" type="line"/>
    </contour>
  </outline>
</glyph>
<glyph name="Aogonek" format="1">
  <advance width="653"/>
  <unicode hex="0104"/>
  <note>
    Aogonek
  </note>
  <outline>
    <contour>
      <point x="555" y="-223" type="curve" smooth="yes"/>
      <point x="598" y="-223"/>
      <point x="634" y="-203"/>
      <point x="660" y="-173" type="curve"/>
      <point x="638" y="-146" type="line"/>
      <point x="617" y="-167"/>
      <point x="595" y="-181"/>
      <point x="569" y="-181" type="curve" smooth="yes"/>
      <point x="534" y="-181"/>
      <point x="511" y="-158"/>
      <point x="511" y="-122" type="curve" smooth="yes"/>
      <point x="511" y="-69"/>
      <point x="565" y="-21"/>
      <point x="646" y="0" type="curve"/>
      <point x="648" y="39" type="line"/>
      <point x="625" y="41"/>
      <point x="607" y="47"/>
      <point x="593" y="53" type="curve"/>
      <point x="349" y="680" type="line"/>
      <point x="289" y="645" type="line"/>
      <point x="58" y="51" type="line"/>
      <point x="44" y="46"/>
      <point x="24" y="40"/>
      <point x="3" y="39" type="curve"/>
      <point x="5" y="-3" type="line"/>
      <point x="36" y="0"/>
      <point x="68" y="1"/>
      <point x="94" y="1" type="curve" smooth="yes"/>
      <point x="120" y="1"/>
      <point x="153" y="0"/>
      <point x="188" y="-3" type="curve"/>
      <point x="190" y="39" type="line"/>
      <point x="164" y="40"/>
      <point x="133" y="48"/>
      <point x="121" y="51" type="curve"/>
      <point x="184" y="225" type="line"/>
      <point x="196" y="259" type="line"/>
      <point x="320" y="600" type="line"/>
      <point x="292" y="578" type="line"/>
      <point x="416" y="260" type="line"/>
      <point x="429" y="227" type="line"/>
      <point x="497" y="53" type="line"/>
      <point x="490" y="50"/>
      <point x="455" y="40"/>
      <point x="429" y="39" type="curve"/>
      <point x="431" y="-3" type="line"/>
      <point x="466" y="0"/>
      <point x="504" y="1"/>
      <point x="539" y="1" type="curve" smooth="yes"/>
      <point x="606" y="1" type="line"/>
      <point x="598" y="15" type="line"/>
      <point x="500" y="-18"/>
      <point x="441" y="-71"/>
      <point x="441" y="-132" type="curve" smooth="yes"/>
      <point x="441" y="-183"/>
      <point x="485" y="-223"/>
    </contour>
    <contour>
      <point x="158" y="213" type="line"/>
      <point x="190" y="215"/>
      <point x="240" y="216"/>
      <point x="313" y="216" type="curve" smooth="yes"/>
      <point x="386" y="216"/>
      <point x="434" y="215"/>
      <point x="466" y="212" type="curve"/>
      <point x="466" y="268" type="line"/>
      <point x="438" y="266"/>
      <point x="386" y="265"/>
      <point x="313" y="265" type="curve" smooth="yes"/>
      <point x="240" y="265"/>
      <point x="186" y="266"/>
      <point x="158" y="268" type="curve"/>
    </contour>
    <contour>
      <point x="309" y="0" type="move" name="bottom"/>
    </contour>
    <contour>
      <point x="319" y="660" type="move" name="top"/>
    </contour>
  </outline>
</glyph>
<glyph name="aogonek" format="1">
  <advance width="472"/>
  <unicode hex="0105"/>
  <note>
    aogonek
  </note>
  <outline>
    <contour>
      <point x="447" y="-146" type="line"/>
      <point x="426" y="-167"/>
      <point x="404" y="-181"/>
      <point x="378" y="-181" type="curve" smooth="yes"/>
      <point x="343" y="-181"/>
      <point x="320" y="-158"/>
      <point x="320" y="-122" type="curve" smooth="yes"/>
      <point x="320" y="-79"/>
      <point x="350" y="-37"/>
      <point x="443" y="22" type="curve"/>
      <point x="443" y="52" type="line"/>
      <point x="425" y="54"/>
      <point x="388" y="60"/>
      <point x="379" y="64" type="curve"/>
      <point x="377" y="70"/>
      <point x="372" y="93"/>
      <point x="372" y="128" type="curve" smooth="yes"/>
      <point x="375" y="297" type="line"/>
      <point x="374" y="385"/>
      <point x="305" y="438"/>
      <point x="211" y="438" type="curve"/>
      <point x="137" y="428"/>
      <point x="52" y="373"/>
      <point x="52" y="331" type="curve" smooth="yes"/>
      <point x="52" y="296"/>
      <point x="93" y="283"/>
      <point x="137" y="294" type="curve"/>
      <point x="139" y="335" type="line" smooth="yes"/>
      <point x="141" y="374"/>
      <point x="148" y="387"/>
      <point x="184" y="387" type="curve" smooth="yes"/>
      <point x="242" y="387"/>
      <point x="295" y="349"/>
      <point x="295" y="299" type="curve" smooth="yes"/>
      <point x="295" y="246" type="line"/>
      <point x="143" y="195" type="line" smooth="yes"/>
      <point x="74" y="172"/>
      <point x="49" y="144"/>
      <point x="49" y="101" type="curve" smooth="yes"/>
      <point x="49" y="51"/>
      <point x="103" y="-8"/>
      <point x="186" y="-8" type="curve" smooth="yes"/>
      <point x="218" y="-8"/>
      <point x="259" y="4"/>
      <point x="312" y="66" type="curve"/>
      <point x="297" y="66" type="line"/>
      <point x="308" y="27" type="line" smooth="yes"/>
      <point x="316" y="0"/>
      <point x="340" y="-16"/>
      <point x="391" y="4" type="curve"/>
      <point x="407" y="19" type="line"/>
      <point x="312" y="-17"/>
      <point x="250" y="-71"/>
      <point x="250" y="-132" type="curve" smooth="yes"/>
      <point x="250" y="-183"/>
      <point x="294" y="-223"/>
      <point x="364" y="-223" type="curve" smooth="yes"/>
      <point x="407" y="-223"/>
      <point x="443" y="-203"/>
      <point x="469" y="-173" type="curve"/>
    </contour>
    <contour>
      <point x="295" y="94" type="line"/>
      <point x="268" y="62"/>
      <point x="241" y="51"/>
      <point x="213" y="51" type="curve" smooth="yes"/>
      <point x="176" y="51"/>
      <point x="138" y="81"/>
      <point x="138" y="117" type="curve" smooth="yes"/>
      <point x="138" y="144"/>
      <point x="151" y="160"/>
      <point x="183" y="169" type="curve" smooth="yes"/>
      <point x="295" y="199" type="line"/>
    </contour>
    <contour>
      <point x="221" y="430" type="move" name="top"/>
    </contour>
  </outline>
</glyph>
<glyph name="Iogonek" format="1">
  <advance width="328"/>
  <unicode hex="012E"/>
  <note>
    Iogonek
  </note>
  <outline>
    <contour>
      <point x="207" y="217" type="curve" smooth="yes"/>
      <point x="207" y="442" type="line" smooth="yes"/>
      <point x="207" y="572"/>
      <point x="211" y="598"/>
      <point x="215" y="605" type="curve"/>
      <point x="222" y="609"/>
      <point x="257" y="619"/>
      <point x="283" y="619" type="curve"/>
      <point x="281" y="661" type="line"/>
      <point x="246" y="659"/>
      <point x="197" y="657"/>
      <point x="164" y="657" type="curve" smooth="yes"/>
      <point x="131" y="657"/>
      <point x="82" y="659"/>
      <point x="47" y="661" type="curve"/>
      <point x="45" y="619" type="line"/>
      <point x="71" y="619"/>
      <point x="106" y="609"/>
      <point x="113" y="605" type="curve"/>
      <point x="117" y="598"/>
      <point x="121" y="572"/>
      <point x="121" y="442" type="curve" smooth="yes"/>
      <point x="121" y="217" type="line" smooth="yes"/>
      <point x="121" y="87"/>
      <point x="117" y="61"/>
      <point x="113" y="54" type="curve"/>
      <point x="106" y="50"/>
      <point x="71" y="40"/>
      <point x="45" y="39" type="curve"/>
      <point x="47" y="-3" type="line"/>
      <point x="90" y="1"/>
      <point x="155" y="3"/>
      <point x="200" y="2" type="curve"/>
      <point x="198" y="11" type="line"/>
      <point x="102" y="-9"/>
      <point x="50" y="-70"/>
      <point x="50" y="-128" type="curve" smooth="yes"/>
      <point x="50" y="-178"/>
      <point x="97" y="-223"/>
      <point x="167" y="-223" type="curve" smooth="yes"/>
      <point x="210" y="-223"/>
      <point x="246" y="-203"/>
      <point x="272" y="-173" type="curve"/>
      <point x="250" y="-146" type="line"/>
      <point x="229" y="-167"/>
      <point x="207" y="-181"/>
      <point x="181" y="-181" type="curve" smooth="yes"/>
      <point x="144" y="-181"/>
      <point x="120" y="-158"/>
      <point x="120" y="-116" type="curve" smooth="yes"/>
      <point x="120" y="-67"/>
      <point x="169" y="0"/>
      <point x="281" y="0" type="curve"/>
      <point x="283" y="39" type="line"/>
      <point x="257" y="40"/>
      <point x="222" y="50"/>
      <point x="215" y="54" type="curve"/>
      <point x="211" y="61"/>
      <point x="207" y="87"/>
    </contour>
    <contour>
      <point x="164" y="660" type="move" name="top"/>
    </contour>
    <contour>
      <point x="20" y="660" type="move" name="topleft"/>
    </contour>
  </outline>
</glyph>
<glyph name="kgreenlandic" format="1">
  <advance width="491"/>
  <unicode hex="0138"/>
  <note>
    kgreenlandic
  </note>
  <outline>
    <contour>
      <point x="29" y="-3" type="line"/>
      <point x="67" y="0"/>
      <point x="106" y="2"/>
      <point x="139" y="2" type="curve" smooth="yes"/>
      <point x="171" y="2"/>
      <point x="212" y="0"/>
      <point x="250" y="-3" type="curve"/>
      <point x="253" y="36" type="line"/>
      <point x="231" y="37"/>
      <point x="190" y="47"/>
      <point x="181" y="51" type="curve"/>
      <point x="179" y="57"/>
      <point x="175" y="81"/>
      <point x="175" y="165" type="curve" smooth="yes"/>
      <point x="175" y="291" type="line" smooth="yes"/>
      <point x="175" y="352"/>
      <point x="177" y="387"/>
      <point x="181" y="421" type="curve"/>
      <point x="166" y="436" type="line"/>
      <point x="118" y="422"/>
      <point x="75" y="411"/>
      <point x="27" y="403" type="curve"/>
      <point x="27" y="370" type="line"/>
      <point x="51" y="366"/>
      <point x="75" y="360"/>
      <point x="90" y="353" type="curve"/>
      <point x="93" y="340"/>
      <point x="99" y="301"/>
      <point x="99" y="236" type="curve"/>
      <point x="98" y="158" type="line" smooth="yes"/>
      <point x="97" y="81"/>
      <point x="96" y="58"/>
      <point x="93" y="51" type="curve"/>
      <point x="85" y="47"/>
      <point x="48" y="38"/>
      <point x="26" y="37" type="curve"/>
    </contour>
    <contour>
      <point x="482" y="-2" type="curve"/>
      <point x="484" y="37" type="line"/>
      <point x="466" y="39"/>
      <point x="454" y="41"/>
      <point x="438" y="47" type="curve"/>
      <point x="428" y="57"/>
      <point x="406" y="80"/>
      <point x="384" y="104" type="curve" smooth="yes"/>
      <point x="244" y="257" type="line"/>
      <point x="231" y="220" type="line"/>
      <point x="412" y="381" type="line"/>
      <point x="433" y="386"/>
      <point x="460" y="391"/>
      <point x="478" y="393" type="curve"/>
      <point x="475" y="431" type="line"/>
      <point x="445" y="430"/>
      <point x="407" y="429"/>
      <point x="377" y="429" type="curve" smooth="yes"/>
      <point x="347" y="429"/>
      <point x="305" y="429"/>
      <point x="275" y="430" type="curve"/>
      <point x="273" y="392" type="line"/>
      <point x="292" y="390"/>
      <point x="316" y="386"/>
      <point x="338" y="381" type="curve"/>
      <point x="199" y="243" type="line"/>
      <point x="160" y="232" type="line"/>
      <point x="159" y="208" type="line"/>
      <point x="187" y="208" type="line"/>
      <point x="322" y="59" type="line" smooth="yes"/>
      <point x="340" y="39"/>
      <point x="353" y="20"/>
      <point x="369" y="0" type="curve"/>
      <point x="408" y="0"/>
      <point x="439" y="0"/>
    </contour>
  </outline>
</glyph>
<glyph name="Eng" format="1">
  <advance width="734"/>
  <unicode hex="014A"/>
  <note>
    Eng
  </note>
  <outline>
    <contour>
      <point x="455" y="-228" type="curve" smooth="yes"/>
      <point x="551" y="-228"/>
      <point x="612" y="-148"/>
      <point x="612" y="16" type="curve" smooth="yes"/>
      <point x="612" y="423" type="line" smooth="yes"/>
      <point x="612" y="553"/>
      <point x="616" y="599"/>
      <point x="620" y="606" type="curve"/>
      <point x="627" y="610"/>
      <point x="664" y="619"/>
      <point x="693" y="619" type="curve"/>
      <point x="691" y="661" type="line"/>
      <point x="653" y="659"/>
      <point x="618" y="658"/>
      <point x="586" y="658" type="curve" smooth="yes"/>
      <point x="556" y="658"/>
      <point x="513" y="659"/>
      <point x="475" y="661" type="curve"/>
      <point x="473" y="619" type="line"/>
      <point x="502" y="619"/>
      <point x="539" y="610"/>
      <point x="546" y="606" type="curve"/>
      <point x="550" y="599"/>
      <point x="554" y="553"/>
      <point x="554" y="423" type="curve" smooth="yes"/>
      <point x="554" y="150" type="line"/>
      <point x="569" y="150" type="line"/>
      <point x="198" y="661" type="line"/>
      <point x="179" y="660"/>
      <point x="151" y="658"/>
      <point x="126" y="658" type="curve" smooth="yes"/>
      <point x="101" y="658"/>
      <point x="81" y="658"/>
      <point x="46" y="659" type="curve"/>
      <point x="44" y="617" type="line"/>
      <point x="70" y="618"/>
      <point x="105" y="609"/>
      <point x="112" y="605" type="curve"/>
      <point x="117" y="588"/>
      <point x="120" y="572"/>
      <point x="120" y="442" type="curve" smooth="yes"/>
      <point x="120" y="237" type="line" smooth="yes"/>
      <point x="120" y="107"/>
      <point x="116" y="61"/>
      <point x="112" y="54" type="curve"/>
      <point x="105" y="50"/>
      <point x="68" y="40"/>
      <point x="39" y="39" type="curve"/>
      <point x="41" y="-3" type="line"/>
      <point x="79" y="0"/>
      <point x="114" y="2"/>
      <point x="145" y="2" type="curve" smooth="yes"/>
      <point x="176" y="2"/>
      <point x="221" y="0"/>
      <point x="259" y="-3" type="curve"/>
      <point x="261" y="39" type="line"/>
      <point x="232" y="40"/>
      <point x="195" y="50"/>
      <point x="188" y="54" type="curve"/>
      <point x="184" y="61"/>
      <point x="180" y="107"/>
      <point x="180" y="237" type="curve" smooth="yes"/>
      <point x="180" y="558" type="line"/>
      <point x="161" y="558" type="line"/>
      <point x="567" y="-4" type="line"/>
      <point x="552" y="60" type="line"/>
      <point x="552" y="-22" type="line" smooth="yes"/>
      <point x="552" y="-147"/>
      <point x="499" y="-190"/>
      <point x="445" y="-181" type="curve"/>
      <point x="489" y="-196" type="line"/>
      <point x="434" y="-143" type="line" smooth="yes"/>
      <point x="416" y="-126"/>
      <point x="398" y="-116"/>
      <point x="379" y="-116" type="curve" smooth="yes"/>
      <point x="354" y="-116"/>
      <point x="338" y="-130"/>
      <point x="338" y="-153" type="curve" smooth="yes"/>
      <point x="338" y="-192"/>
      <point x="395" y="-228"/>
    </contour>
  </outline>
</glyph>
<glyph name="OE" format="1">
  <advance width="1043"/>
  <unicode hex="0152"/>
  <note>
    OE
  </note>
  <outline>
    <contour>
      <point x="438" y="-10" type="curve" smooth="yes"/>
      <point x="497" y="-10"/>
      <point x="553" y="0"/>
      <point x="595" y="0" type="curve" smooth="yes"/>
      <point x="869" y="0" type="line" smooth="yes"/>
      <point x="904" y="0"/>
      <point x="932" y="-1"/>
      <point x="966" y="-5" type="curve"/>
      <point x="1009" y="153" type="line"/>
      <point x="961" y="163" type="line"/>
      <point x="936" y="109"/>
      <point x="916" y="71"/>
      <point x="904" y="54" type="curve"/>
      <point x="893" y="52"/>
      <point x="874" y="50"/>
      <point x="823" y="50" type="curve" smooth="yes"/>
      <point x="700" y="50" type="line" smooth="yes"/>
      <point x="669" y="50"/>
      <point x="650" y="52"/>
      <point x="633" y="54" type="curve"/>
      <point x="632" y="63"/>
      <point x="630" y="115"/>
      <point x="630" y="158" type="curve" smooth="yes"/>
      <point x="630" y="482" type="line" smooth="yes"/>
      <point x="630" y="526"/>
      <point x="632" y="599"/>
      <point x="633" y="608" type="curve"/>
      <point x="650" y="610"/>
      <point x="669" y="612"/>
      <point x="700" y="612" type="curve" smooth="yes"/>
      <point x="844" y="612" type="line" smooth="yes"/>
      <point x="857" y="612"/>
      <point x="873" y="611"/>
      <point x="884" y="609" type="curve"/>
      <point x="898" y="584"/>
      <point x="911" y="550"/>
      <point x="922" y="514" type="curve"/>
      <point x="970" y="521" type="line"/>
      <point x="949" y="664" type="line"/>
      <point x="913" y="661"/>
      <point x="881" y="660"/>
      <point x="847" y="660" type="curve" smooth="yes"/>
      <point x="578" y="660" type="line" smooth="yes"/>
      <point x="527" y="660"/>
      <point x="484" y="667"/>
      <point x="428" y="667" type="curve" smooth="yes"/>
      <point x="207" y="667"/>
      <point x="60" y="528"/>
      <point x="60" y="324" type="curve" smooth="yes"/>
      <point x="60" y="108"/>
      <point x="204" y="-10"/>
    </contour>
    <contour>
      <point x="447" y="43" type="curve" smooth="yes"/>
      <point x="271" y="43"/>
      <point x="166" y="156"/>
      <point x="166" y="337" type="curve" smooth="yes"/>
      <point x="166" y="513"/>
      <point x="265" y="615"/>
      <point x="420" y="615" type="curve" smooth="yes"/>
      <point x="470" y="615"/>
      <point x="505" y="608"/>
      <point x="539" y="599" type="curve"/>
      <point x="541" y="580"/>
      <point x="544" y="547"/>
      <point x="544" y="445" type="curve" smooth="yes"/>
      <point x="544" y="221" type="line" smooth="yes"/>
      <point x="544" y="111"/>
      <point x="543" y="81"/>
      <point x="541" y="58" type="curve"/>
      <point x="516" y="49"/>
      <point x="482" y="43"/>
    </contour>
    <contour>
      <point x="844" y="232" type="curve"/>
      <point x="890" y="232" type="line"/>
      <point x="888" y="268"/>
      <point x="887" y="308"/>
      <point x="887" y="340" type="curve" smooth="yes"/>
      <point x="887" y="372"/>
      <point x="888" y="411"/>
      <point x="890" y="447" type="curve"/>
      <point x="844" y="447" type="line"/>
      <point x="841" y="424"/>
      <point x="836" y="390"/>
      <point x="830" y="369" type="curve"/>
      <point x="821" y="366"/>
      <point x="803" y="365"/>
      <point x="781" y="365" type="curve" smooth="yes"/>
      <point x="680" y="365" type="line" smooth="yes"/>
      <point x="661" y="365"/>
      <point x="640" y="366"/>
      <point x="613" y="367" type="curve"/>
      <point x="613" y="312" type="line"/>
      <point x="640" y="313"/>
      <point x="661" y="314"/>
      <point x="680" y="314" type="curve" smooth="yes"/>
      <point x="781" y="314" type="line" smooth="yes"/>
      <point x="803" y="314"/>
      <point x="821" y="313"/>
      <point x="830" y="310" type="curve"/>
      <point x="836" y="289"/>
      <point x="841" y="255"/>
    </contour>
    <contour>
      <point x="587" y="0" type="move" name="bottom"/>
    </contour>
    <contour>
      <point x="587" y="660" type="move" name="top"/>
    </contour>
  </outline>
</glyph>
<glyph name="Uhorn" format="1">
  <advance width="728"/>
  <unicode hex="01AF"/>
  <note>
    Uhorn
  </note>
  <outline>
    <contour>
      <point x="373" y="-10" type="curve" smooth="yes"/>
      <point x="509" y="-10"/>
      <point x="611" y="72"/>
      <point x="611" y="260" type="curve" smooth="yes"/>
      <point x="611" y="422" type="line" smooth="yes"/>
      <point x="611" y="561"/>
      <point x="615" y="601"/>
      <point x="620" y="627" type="curve"/>
      <point x="607" y="610" type="line"/>
      <point x="700" y="615"/>
      <point x="753" y="667"/>
      <point x="753" y="725" type="curve" smooth="yes"/>
      <point x="753" y="777"/>
      <point x="713" y="793"/>
      <point x="663" y="784" type="curve"/>
      <point x="661" y="733" type="line" smooth="yes"/>
      <point x="659" y="674"/>
      <point x="642" y="658"/>
      <point x="575" y="658" type="curve" smooth="yes"/>
      <point x="539" y="658"/>
      <point x="508" y="659"/>
      <point x="473" y="661" type="curve"/>
      <point x="471" y="619" type="line"/>
      <point x="497" y="619"/>
      <point x="532" y="609"/>
      <point x="539" y="605" type="curve"/>
      <point x="543" y="598"/>
      <point x="547" y="572"/>
      <point x="547" y="422" type="curve" smooth="yes"/>
      <point x="547" y="261" type="line" smooth="yes"/>
      <point x="547" y="113"/>
      <point x="481" y="57"/>
      <point x="385" y="57" type="curve" smooth="yes"/>
      <point x="269" y="57"/>
      <point x="208" y="118"/>
      <point x="207" y="252" type="curve" smooth="yes"/>
      <point x="206" y="442" type="line" smooth="yes"/>
      <point x="205" y="572"/>
      <point x="210" y="598"/>
      <point x="214" y="605" type="curve"/>
      <point x="221" y="609"/>
      <point x="256" y="619"/>
      <point x="282" y="619" type="curve"/>
      <point x="280" y="661" type="line"/>
      <point x="245" y="659"/>
      <point x="196" y="658"/>
      <point x="162" y="658" type="curve" smooth="yes"/>
      <point x="129" y="658"/>
      <point x="80" y="659"/>
      <point x="45" y="661" type="curve"/>
      <point x="43" y="619" type="line"/>
      <point x="69" y="619"/>
      <point x="104" y="609"/>
      <point x="111" y="605" type="curve"/>
      <point x="115" y="598"/>
      <point x="119" y="572"/>
      <point x="119" y="442" type="curve" smooth="yes"/>
      <point x="119" y="240" type="line" smooth="yes"/>
      <point x="119" y="82"/>
      <point x="215" y="-10"/>
    </contour>
    <contour>
      <point x="377" y="0" type="move" name="bottom"/>
    </contour>
    <contour>
      <point x="655" y="10" type="move" name="ogonek"/>
    </contour>
    <contour>
      <point x="377" y="660" type="move" name="top"/>
    </contour>
  </outline>
</glyph>
<glyph name="Oogonek" format="1">
  <advance width="766"/>
  <unicode hex="01EA"/>
  <outline>
    <contour>
      <point x="415" y="-223" type="curve" smooth="yes"/>
      <point x="458" y="-223"/>
      <point x="494" y="-203"/>
      <point x="520" y="-173" type="curve"/>
      <point x="498" y="-146" type="line"/>
      <point x="477" y="-167"/>
      <point x="455" y="-181"/>
      <point x="429" y="-181" type="curve" smooth="yes"/>
      <point x="394" y="-181"/>
      <point x="371" y="-158"/>
      <point x="371" y="-122" type="curve" smooth="yes"/>
      <point x="371" y="-79"/>
      <point x="401" y="-28"/>
      <point x="501" y="11" type="curve" smooth="yes"/>
      <point x="620" y="58"/>
      <point x="708" y="183"/>
      <point x="708" y="333" type="curve" smooth="yes"/>
      <point x="708" y="532"/>
      <point x="579" y="670"/>
      <point x="393" y="670" type="curve" smooth="yes"/>
      <point x="202" y="670"/>
      <point x="58" y="525"/>
      <point x="58" y="328" type="curve" smooth="yes"/>
      <point x="58" y="128"/>
      <point x="194" y="-10"/>
      <point x="389" y="-10" type="curve" smooth="yes"/>
      <point x="423" y="-10" type="line"/>
      <point x="455" y="19" type="line"/>
      <point x="360" y="-17"/>
      <point x="301" y="-71"/>
      <point x="301" y="-132" type="curve" smooth="yes"/>
      <point x="301" y="-183"/>
      <point x="345" y="-223"/>
    </contour>
    <contour>
      <point x="401" y="44" type="curve" smooth="yes"/>
      <point x="263" y="44"/>
      <point x="164" y="170"/>
      <point x="164" y="346" type="curve" smooth="yes"/>
      <point x="164" y="514"/>
      <point x="246" y="618"/>
      <point x="380" y="618" type="curve" smooth="yes"/>
      <point x="514" y="618"/>
      <point x="606" y="491"/>
      <point x="606" y="308" type="curve" smooth="yes"/>
      <point x="606" y="148"/>
      <point x="525" y="44"/>
    </contour>
    <contour>
      <point x="383" y="330" type="move" name="center"/>
    </contour>
    <contour>
      <point x="383" y="660" type="move" name="top"/>
    </contour>
    <contour>
      <point x="20" y="660" type="move" name="topleft"/>
    </contour>
    <contour>
      <point x="746" y="660" type="move" name="topright"/>
    </contour>
  </outline>
</glyph>
<glyph name="commaturnedmod" format="1">
  <advance width="600"/>
  <unicode hex="02BB"/>
  <note>
    uni02BB
  </note>
  <outline>
    <contour>
      <point x="366" y="720" type="line"/>
      <point x="293" y="698"/>
      <point x="247" y="647"/>
      <point x="247" y="591" type="curve" smooth="yes"/>
      <point x="247" y="551"/>
      <point x="271" y="526"/>
      <point x="307" y="526" type="curve" smooth="yes"/>
      <point x="333" y="526"/>
      <point x="353" y="543"/>
      <point x="353" y="566" type="curve" smooth="yes"/>
      <point x="353" y="609"/>
      <point x="308" y="604"/>
      <point x="308" y="636" type="curve" smooth="yes"/>
      <point x="308" y="658"/>
      <point x="333" y="681"/>
      <point x="378" y="694" type="curve"/>
    </contour>
    <contour>
      <point x="300" y="430" type="move" name="_top"/>
    </contour>
    <contour>
      <point x="300" y="668" type="move" name="top"/>
    </contour>
  </outline>
</glyph>
<glyph name="verticallinemod" format="1">
  <advance width="600"/>
  <unicode hex="02C8"/>
  <outline>
    <contour>
      <point x="273" y="530" type="line"/>
      <point x="328" y="530" type="line"/>
      <point x="328" y="650" type="line"/>
      <point x="273" y="650" type="line"/>
    </contour>
    <contour>
      <point x="300" y="430" type="move" name="_top"/>
    </contour>
    <contour>
      <point x="300" y="687" type="move" name="top"/>
    </contour>
  </outline>
</glyph>
<glyph name="firsttonechinese" format="1">
  <advance width="600"/>
  <unicode hex="02C9"/>
  <note>
    uni0304
  </note>
  <outline>
    <contour>
      <point x="156" y="606" type="line"/>
      <point x="156" y="551" type="line"/>
      <point x="444" y="551" type="line"/>
      <point x="444" y="606" type="line"/>
    </contour>
    <contour>
      <point x="300" y="430" type="move" name="_top"/>
    </contour>
    <contour>
      <point x="300" y="687" type="move" name="top"/>
    </contour>
  </outline>
</glyph>
<glyph name="secondtonechinese" format="1">
  <advance width="600"/>
  <unicode hex="02CA"/>
  <note>
    acutecomb
  </note>
  <outline>
    <contour>
      <point x="320" y="482" type="line"/>
      <point x="460" y="654" type="line"/>
      <point x="379" y="677" type="line"/>
      <point x="280" y="496" type="line"/>
    </contour>
    <contour>
      <point x="300" y="430" type="move" name="_top"/>
    </contour>
    <contour>
      <point x="300" y="687" type="move" name="top"/>
    </contour>
  </outline>
</glyph>
<glyph name="fourthtonechinese" format="1">
  <advance width="600"/>
  <unicode hex="02CB"/>
  <note>
    gravecomb
  </note>
  <outline>
    <contour>
      <point x="279" y="482" type="line"/>
      <point x="321" y="496" type="line"/>
      <point x="222" y="677" type="line"/>
      <point x="139" y="654" type="line"/>
    </contour>
    <contour>
      <point x="300" y="430" type="move" name="_top"/>
    </contour>
    <contour>
      <point x="300" y="687" type="move" name="top"/>
    </contour>
  </outline>
</glyph>
<glyph name="circumflexcomb" format="1">
  <advance width="600"/>
  <unicode hex="0302"/>
  <note>
    uni0302
  </note>
  <outline>
    <contour>
      <point x="440" y="496" type="line"/>
      <point x="337" y="663" type="line"/>
      <point x="263" y="663" type="line"/>
      <point x="160" y="496" type="line"/>
      <point x="200" y="482" type="line"/>
      <point x="330" y="633" type="line"/>
      <point x="270" y="633" type="line"/>
      <point x="400" y="482" type="line"/>
    </contour>
    <contour>
      <point x="300" y="430" type="move" name="_top"/>
    </contour>
    <contour>
      <point x="300" y="687" type="move" name="top"/>
    </contour>
  </outline>
</glyph>
<glyph name="macroncomb" format="1">
  <advance width="600"/>
  <unicode hex="0304"/>
  <note>
    uni0304
  </note>
  <outline>
    <contour>
      <point x="156" y="606" type="line"/>
      <point x="156" y="551" type="line"/>
      <point x="444" y="551" type="line"/>
      <point x="444" y="606" type="line"/>
    </contour>
    <contour>
      <point x="300" y="430" type="move" name="_top"/>
    </contour>
    <contour>
      <point x="300" y="687" type="move" name="top"/>
    </contour>
  </outline>
</glyph>
<glyph name="dotaccentcomb" format="1">
  <advance width="600"/>
  <unicode hex="0307"/>
  <note>
    uni0307
  </note>
  <outline>
    <contour>
      <point x="301" y="526" type="curve" smooth="yes"/>
      <point x="331" y="526"/>
      <point x="354" y="548"/>
      <point x="354" y="578" type="curve" smooth="yes"/>
      <point x="354" y="607"/>
      <point x="331" y="630"/>
      <point x="301" y="630" type="curve" smooth="yes"/>
      <point x="270" y="630"/>
      <point x="246" y="607"/>
      <point x="246" y="578" type="curve" smooth="yes"/>
      <point x="246" y="548"/>
      <point x="270" y="526"/>
    </contour>
    <contour>
      <point x="300" y="430" type="move" name="_top"/>
    </contour>
    <contour>
      <point x="300" y="668" type="move" name="top"/>
    </contour>
  </outline>
</glyph>
<glyph name="breveinvertedcomb" format="1">
  <advance width="600"/>
  <unicode hex="0311"/>
  <outline>
    <contour>
      <point x="204" y="482" type="line"/>
      <point x="212" y="559"/>
      <point x="247" y="600"/>
      <point x="299" y="600" type="curve" smooth="yes"/>
      <point x="349" y="600"/>
      <point x="384" y="559"/>
      <point x="394" y="482" type="curve"/>
      <point x="436" y="496" type="line"/>
      <point x="433" y="603"/>
      <point x="382" y="665"/>
      <point x="302" y="665" type="curve" smooth="yes"/>
      <point x="222" y="665"/>
      <point x="167" y="603"/>
      <point x="164" y="496" type="curve"/>
    </contour>
    <contour>
      <point x="300" y="430" type="move" name="_top"/>
    </contour>
    <contour>
      <point x="300" y="687" type="move" name="top"/>
    </contour>
  </outline>
</glyph>
<glyph name="macronbelowcomb" format="1">
  <advance width="600"/>
  <unicode hex="0331"/>
  <outline>
    <contour>
      <point x="156" y="-121" type="line"/>
      <point x="156" y="-176" type="line"/>
      <point x="444" y="-176" type="line"/>
      <point x="444" y="-121" type="line"/>
    </contour>
    <contour>
      <point x="300" y="0" type="move" name="_bottom"/>
    </contour>
    <contour>
      <point x="300" y="-220" type="move" name="bottom"/>
    </contour>
  </outline>
</glyph>
<glyph name="strokelongcomb" format="1">
  <advance width="600"/>
  <unicode hex="0336"/>
  <outline>
    <contour>
      <point x="-61" y="381" type="line"/>
      <point x="577" y="381" type="line"/>
      <point x="577" y="431" type="line"/>
      <point x="-61" y="431" type="line"/>
    </contour>
    <contour>
      <point x="258" y="406" type="move" name="_center"/>
    </contour>
  </outline>
</glyph>
<glyph name="slashshortcomb" format="1">
  <advance width="600"/>
  <unicode hex="0337"/>
  <outline>
    <contour>
      <point x="220" y="236" type="line"/>
      <point x="445" y="391" type="line"/>
      <point x="422" y="424" type="line"/>
      <point x="197" y="269" type="line"/>
    </contour>
    <contour>
      <point x="321" y="330" type="move" name="_center"/>
    </contour>
  </outline>
</glyph>
<glyph name="Germandbls" format="1">
  <advance width="759"/>
  <unicode hex="1E9E"/>
  <outline>
    <contour>
      <point x="46" y="-3" type="line"/>
      <point x="81" y="0"/>
      <point x="130" y="2"/>
      <point x="163" y="2" type="curve" smooth="yes"/>
      <point x="196" y="2"/>
      <point x="244" y="0"/>
      <point x="279" y="-3" type="curve"/>
      <point x="281" y="39" type="line"/>
      <point x="255" y="39"/>
      <point x="220" y="50"/>
      <point x="213" y="54" type="curve"/>
      <point x="209" y="61"/>
      <point x="206" y="87"/>
      <point x="206" y="217" type="curve"/>
      <point x="205" y="429" type="line"/>
      <point x="205" y="550"/>
      <point x="267" y="619"/>
      <point x="369" y="619" type="curve" smooth="yes"/>
      <point x="440" y="619"/>
      <point x="489" y="584"/>
      <point x="509" y="526" type="curve"/>
      <point x="575" y="526" type="line"/>
      <point x="536" y="628"/>
      <point x="459" y="671"/>
      <point x="366" y="671" type="curve" smooth="yes"/>
      <point x="219" y="671"/>
      <point x="119" y="568"/>
      <point x="119" y="412" type="curve"/>
      <point x="120" y="217" type="line"/>
      <point x="120" y="87"/>
      <point x="116" y="61"/>
      <point x="112" y="54" type="curve"/>
      <point x="105" y="50"/>
      <point x="70" y="40"/>
      <point x="44" y="39" type="curve"/>
    </contour>
    <contour>
      <point x="521" y="-10" type="curve" smooth="yes"/>
      <point x="643" y="-10"/>
      <point x="724" y="50"/>
      <point x="724" y="147" type="curve" smooth="yes"/>
      <point x="724" y="324"/>
      <point x="440" y="292"/>
      <point x="440" y="421" type="curve" smooth="yes"/>
      <point x="440" y="467"/>
      <point x="479" y="505"/>
      <point x="554" y="505" type="curve" smooth="yes"/>
      <point x="581" y="505"/>
      <point x="605" y="501"/>
      <point x="624" y="493" type="curve"/>
      <point x="636" y="463"/>
      <point x="641" y="440"/>
      <point x="649" y="414" type="curve"/>
      <point x="693" y="417" type="line"/>
      <point x="686" y="532" type="line"/>
      <point x="653" y="543"/>
      <point x="603" y="550"/>
      <point x="557" y="550" type="curve" smooth="yes"/>
      <point x="428" y="550"/>
      <point x="352" y="483"/>
      <point x="352" y="398" type="curve" smooth="yes"/>
      <point x="352" y="218"/>
      <point x="636" y="254"/>
      <point x="636" y="124" type="curve" smooth="yes"/>
      <point x="636" y="74"/>
      <point x="596" y="39"/>
      <point x="532" y="39" type="curve" smooth="yes"/>
      <point x="494" y="39"/>
      <point x="451" y="52"/>
      <point x="417" y="75" type="curve"/>
      <point x="407" y="103"/>
      <point x="399" y="135"/>
      <point x="388" y="174" type="curve"/>
      <point x="343" y="168" type="line"/>
      <point x="343" y="121"/>
      <point x="345" y="75"/>
      <point x="349" y="30" type="curve"/>
      <point x="391" y="8"/>
      <point x="457" y="-10"/>
    </contour>
  </outline>
</glyph>
<glyph name="quoteright" format="1">
  <advance width="244"/>
  <unicode hex="2019"/>
  <note>
    quoteright
  </note>
  <outline>
    <contour>
      <point x="48" y="410" type="line"/>
      <point x="130" y="442"/>
      <point x="189" y="527"/>
      <point x="189" y="607" type="curve" smooth="yes"/>
      <point x="189" y="669"/>
      <point x="156" y="698"/>
      <point x="121" y="698" type="curve" smooth="yes"/>
      <point x="86" y="698"/>
      <point x="62" y="673"/>
      <point x="62" y="644" type="curve" smooth="yes"/>
      <point x="62" y="590"/>
      <point x="116" y="593"/>
      <point x="116" y="542" type="curve" smooth="yes"/>
      <point x="116" y="497"/>
      <point x="86" y="463"/>
      <point x="33" y="439" type="curve"/>
    </contour>
  </outline>
</glyph>
<glyph name="daggerdbl" format="1">
  <advance width="460"/>
  <unicode hex="2021"/>
  <note>
    daggerdbl
  </note>
  <outline>
    <contour>
      <point x="372" y="216" type="curve" smooth="yes"/>
      <point x="334" y="216"/>
      <point x="282" y="198"/>
      <point x="244" y="194" type="curve"/>
      <point x="253" y="246"/>
      <point x="262" y="292"/>
      <point x="276" y="345" type="curve"/>
      <point x="262" y="397"/>
      <point x="253" y="444"/>
      <point x="244" y="496" type="curve"/>
      <point x="282" y="492"/>
      <point x="334" y="474"/>
      <point x="372" y="474" type="curve" smooth="yes"/>
      <point x="401" y="474"/>
      <point x="417" y="490"/>
      <point x="417" y="511" type="curve" smooth="yes"/>
      <point x="417" y="532"/>
      <point x="401" y="548"/>
      <point x="372" y="548" type="curve" smooth="yes"/>
      <point x="334" y="548"/>
      <point x="283" y="530"/>
      <point x="245" y="526" type="curve"/>
      <point x="249" y="564"/>
      <point x="267" y="615"/>
      <point x="267" y="653" type="curve" smooth="yes"/>
      <point x="267" y="682"/>
      <point x="251" y="698"/>
      <point x="230" y="698" type="curve" smooth="yes"/>
      <point x="209" y="698"/>
      <point x="193" y="682"/>
      <point x="193" y="653" type="curve" smooth="yes"/>
      <point x="193" y="615"/>
      <point x="211" y="564"/>
      <point x="215" y="526" type="curve"/>
      <point x="177" y="530"/>
      <point x="126" y="548"/>
      <point x="88" y="548" type="curve" smooth="yes"/>
      <point x="59" y="548"/>
      <point x="43" y="532"/>
      <point x="43" y="511" type="curve" smooth="yes"/>
      <point x="43" y="490"/>
      <point x="59" y="474"/>
      <point x="88" y="474" type="curve" smooth="yes"/>
      <point x="126" y="474"/>
      <point x="178" y="492"/>
      <point x="216" y="496" type="curve"/>
      <point x="207" y="444"/>
      <point x="198" y="397"/>
      <point x="184" y="345" type="curve"/>
      <point x="198" y="292"/>
      <point x="207" y="246"/>
      <point x="216" y="194" type="curve"/>
      <point x="178" y="198"/>
      <point x="126" y="216"/>
      <point x="88" y="216" type="curve" smooth="yes"/>
      <point x="59" y="216"/>
      <point x="43" y="200"/>
      <point x="43" y="179" type="curve" smooth="yes"/>
      <point x="43" y="158"/>
      <point x="59" y="142"/>
      <point x="88" y="142" type="curve" smooth="yes"/>
      <point x="126" y="142"/>
      <point x="177" y="160"/>
      <point x="215" y="164" type="curve"/>
      <point x="211" y="126"/>
      <point x="193" y="75"/>
      <point x="193" y="37" type="curve" smooth="yes"/>
      <point x="193" y="8"/>
      <point x="209" y="-8"/>
      <point x="230" y="-8" type="curve" smooth="yes"/>
      <point x="251" y="-8"/>
      <point x="267" y="8"/>
      <point x="267" y="37" type="curve" smooth="yes"/>
      <point x="267" y="75"/>
      <point x="249" y="126"/>
      <point x="245" y="164" type="curve"/>
      <point x="283" y="160"/>
      <point x="334" y="142"/>
      <point x="372" y="142" type="curve" smooth="yes"/>
      <point x="401" y="142"/>
      <point x="417" y="158"/>
      <point x="417" y="179" type="curve" smooth="yes"/>
      <point x="417" y="200"/>
      <point x="401" y="216"/>
    </contour>
  </outline>
</glyph>
<glyph name="second" format="1">
  <advance width="419"/>
  <unicode hex="2033"/>
  <note>
    quotedbl
  </note>
  <outline>
    <contour>
      <point x="117" y="698" type="curve" smooth="yes"/>
      <point x="84" y="698"/>
      <point x="59" y="675"/>
      <point x="59" y="623" type="curve" smooth="yes"/>
      <point x="59" y="582"/>
      <point x="87" y="485"/>
      <point x="100" y="430" type="curve"/>
      <point x="134" y="430" type="line"/>
      <point x="147" y="485"/>
      <point x="175" y="582"/>
      <point x="175" y="623" type="curve" smooth="yes"/>
      <point x="175" y="675"/>
      <point x="150" y="698"/>
    </contour>
    <contour>
      <point x="302" y="698" type="curve" smooth="yes"/>
      <point x="269" y="698"/>
      <point x="244" y="675"/>
      <point x="244" y="623" type="curve" smooth="yes"/>
      <point x="244" y="582"/>
      <point x="272" y="485"/>
      <point x="285" y="430" type="curve"/>
      <point x="319" y="430" type="line"/>
      <point x="332" y="485"/>
      <point x="360" y="582"/>
      <point x="360" y="623" type="curve" smooth="yes"/>
      <point x="360" y="675"/>
      <point x="335" y="698"/>
    </contour>
  </outline>
</glyph>
<glyph name="guilsinglleft" format="1">
  <advance width="373"/>
  <unicode hex="2039"/>
  <note>
    guilsinglleft
  </note>
  <outline>
    <contour>
      <point x="308" y="382" type="line"/>
      <point x="281" y="416" type="line"/>
      <point x="80" y="241" type="line"/>
      <point x="80" y="200" type="line"/>
      <point x="281" y="25" type="line"/>
      <point x="308" y="59" type="line"/>
      <point x="140" y="258" type="line"/>
      <point x="140" y="183" type="line"/>
    </contour>
  </outline>
</glyph>
<glyph name="fraction" format="1">
  <advance width="0"/>
  <unicode hex="2044"/>
  <note>
    fraction
  </note>
  <outline>
    <contour>
      <point x="-278" y="15" type="line"/>
      <point x="-243" y="-15" type="line"/>
      <point x="278" y="645" type="line"/>
      <point x="243" y="675" type="line"/>
    </contour>
  </outline>
</glyph>
<glyph name="commercialMinusSign" format="1">
  <advance width="600"/>
  <unicode hex="2052"/>
  <outline>
    <contour>
      <point x="158" y="0" type="line"/>
      <point x="223" y="0" type="line"/>
      <point x="441" y="660" type="line"/>
      <point x="376" y="660" type="line"/>
    </contour>
    <contour>
      <point x="368" y="-8" type="curve" smooth="yes"/>
      <point x="404" y="-8"/>
      <point x="431" y="18"/>
      <point x="431" y="53" type="curve" smooth="yes"/>
      <point x="431" y="88"/>
      <point x="404" y="114"/>
      <point x="368" y="114" type="curve" smooth="yes"/>
      <point x="332" y="114"/>
      <point x="305" y="88"/>
      <point x="305" y="53" type="curve" smooth="yes"/>
      <point x="305" y="18"/>
      <point x="332" y="-8"/>
    </contour>
    <contour>
      <point x="231" y="546" type="curve" smooth="yes"/>
      <point x="267" y="546"/>
      <point x="294" y="572"/>
      <point x="294" y="607" type="curve" smooth="yes"/>
      <point x="294" y="642"/>
      <point x="267" y="668"/>
      <point x="231" y="668" type="curve" smooth="yes"/>
      <point x="195" y="668"/>
      <point x="168" y="642"/>
      <point x="168" y="607" type="curve" smooth="yes"/>
      <point x="168" y="572"/>
      <point x="195" y="546"/>
    </contour>
  </outline>
</glyph>
<glyph name="franc" format="1">
  <advance width="569"/>
  <unicode hex="20A3"/>
  <outline>
    <contour>
      <point x="53" y="-3" type="line"/>
      <point x="85" y="0"/>
      <point x="143" y="2"/>
      <point x="176" y="2" type="curve" smooth="yes"/>
      <point x="209" y="2"/>
      <point x="268" y="0"/>
      <point x="303" y="-3" type="curve"/>
      <point x="305" y="41" type="line"/>
      <point x="277" y="44"/>
      <point x="224" y="53"/>
      <point x="215" y="54" type="curve"/>
      <point x="211" y="61"/>
      <point x="207" y="87"/>
      <point x="207" y="217" type="curve" smooth="yes"/>
      <point x="207" y="482" type="line" smooth="yes"/>
      <point x="207" y="526"/>
      <point x="209" y="599"/>
      <point x="210" y="608" type="curve"/>
      <point x="226" y="610"/>
      <point x="257" y="612"/>
      <point x="278" y="612" type="curve" smooth="yes"/>
      <point x="405" y="612" type="line" smooth="yes"/>
      <point x="418" y="612"/>
      <point x="434" y="611"/>
      <point x="445" y="609" type="curve"/>
      <point x="459" y="584"/>
      <point x="472" y="550"/>
      <point x="483" y="514" type="curve"/>
      <point x="531" y="521" type="line"/>
      <point x="510" y="664" type="line"/>
      <point x="474" y="661"/>
      <point x="442" y="660"/>
      <point x="408" y="660" type="curve" smooth="yes"/>
      <point x="166" y="660" type="line" smooth="yes"/>
      <point x="133" y="660"/>
      <point x="83" y="660"/>
      <point x="48" y="661" type="curve"/>
      <point x="46" y="619" type="line"/>
      <point x="72" y="618"/>
      <point x="107" y="609"/>
      <point x="114" y="605" type="curve"/>
      <point x="118" y="598"/>
      <point x="122" y="572"/>
      <point x="122" y="442" type="curve" smooth="yes"/>
      <point x="122" y="217" type="line" smooth="yes"/>
      <point x="122" y="87"/>
      <point x="118" y="61"/>
      <point x="114" y="54" type="curve"/>
      <point x="107" y="50"/>
      <point x="74" y="40"/>
      <point x="51" y="39" type="curve"/>
    </contour>
    <contour>
      <point x="405" y="272" type="curve"/>
      <point x="451" y="272" type="line"/>
      <point x="449" y="297"/>
      <point x="448" y="325"/>
      <point x="448" y="357" type="curve" smooth="yes"/>
      <point x="448" y="389"/>
      <point x="449" y="416"/>
      <point x="451" y="441" type="curve"/>
      <point x="405" y="441" type="line"/>
      <point x="402" y="425"/>
      <point x="397" y="401"/>
      <point x="391" y="386" type="curve"/>
      <point x="382" y="383"/>
      <point x="364" y="382"/>
      <point x="342" y="382" type="curve" smooth="yes"/>
      <point x="242" y="382" type="line" smooth="yes"/>
      <point x="223" y="382"/>
      <point x="202" y="383"/>
      <point x="185" y="384" type="curve"/>
      <point x="185" y="329" type="line"/>
      <point x="202" y="330"/>
      <point x="223" y="331"/>
      <point x="242" y="331" type="curve" smooth="yes"/>
      <point x="342" y="331" type="line" smooth="yes"/>
      <point x="364" y="331"/>
      <point x="382" y="330"/>
      <point x="391" y="327" type="curve"/>
      <point x="397" y="313"/>
      <point x="402" y="289"/>
    </contour>
    <contour>
      <point x="22" y="147" type="line"/>
      <point x="428" y="147" type="line"/>
      <point x="428" y="193" type="line"/>
      <point x="22" y="193" type="line"/>
    </contour>
  </outline>
</glyph>
<glyph name="dong" format="1">
  <advance width="550"/>
  <unicode hex="20AB"/>
  <outline>
    <contour>
      <point x="64" y="-111" type="line"/>
      <point x="522" y="-111" type="line"/>
      <point x="522" y="-71" type="line"/>
      <point x="64" y="-71" type="line"/>
    </contour>
    <component base="dcroat"/>
  </outline>
</glyph>
<glyph name="euro" format="1">
  <advance width="735"/>
  <unicode hex="20AC"/>
  <note>
    Euro
  </note>
  <outline>
    <contour>
      <point x="472" y="-10" type="curve" smooth="yes"/>
      <point x="547" y="-10"/>
      <point x="618" y="10"/>
      <point x="671" y="37" type="curve"/>
      <point x="683" y="81"/>
      <point x="694" y="130"/>
      <point x="702" y="176" type="curve"/>
      <point x="654" y="181" type="line"/>
      <point x="635" y="135"/>
      <point x="621" y="106"/>
      <point x="603" y="74" type="curve"/>
      <point x="567" y="54"/>
      <point x="530" y="44"/>
      <point x="480" y="44" type="curve" smooth="yes"/>
      <point x="340" y="44"/>
      <point x="227" y="147"/>
      <point x="227" y="341" type="curve" smooth="yes"/>
      <point x="227" y="488"/>
      <point x="299" y="618"/>
      <point x="475" y="618" type="curve" smooth="yes"/>
      <point x="518" y="618"/>
      <point x="574" y="607"/>
      <point x="602" y="586" type="curve"/>
      <point x="616" y="553"/>
      <point x="626" y="518"/>
      <point x="635" y="483" type="curve"/>
      <point x="682" y="487" type="line"/>
      <point x="674" y="636" type="line"/>
      <point x="620" y="658"/>
      <point x="544" y="670"/>
      <point x="484" y="670" type="curve" smooth="yes"/>
      <point x="250" y="670"/>
      <point x="120" y="505"/>
      <point x="120" y="326" type="curve" smooth="yes"/>
      <point x="120" y="101"/>
      <point x="281" y="-10"/>
    </contour>
    <contour>
      <point x="30" y="380" type="line"/>
      <point x="490" y="380" type="line"/>
      <point x="490" y="426" type="line"/>
      <point x="30" y="426" type="line"/>
    </contour>
    <contour>
      <point x="30" y="244" type="line"/>
      <point x="490" y="244" type="line"/>
      <point x="490" y="290" type="line"/>
      <point x="30" y="290" type="line"/>
    </contour>
  </outline>
</glyph>
<glyph name="guarani" format="1">
  <advance width="729"/>
  <unicode hex="20B2"/>
  <outline>
    <contour>
      <point x="426" y="-10" type="curve" smooth="yes"/>
      <point x="482" y="-10"/>
      <point x="582" y="12"/>
      <point x="640" y="49" type="curve"/>
      <point x="638" y="87"/>
      <point x="637" y="119"/>
      <point x="637" y="181" type="curve" smooth="yes"/>
      <point x="637" y="223"/>
      <point x="640" y="251"/>
      <point x="641" y="259" type="curve"/>
      <point x="648" y="262"/>
      <point x="670" y="267"/>
      <point x="686" y="269" type="curve"/>
      <point x="684" y="311" type="line"/>
      <point x="664" y="310"/>
      <point x="626" y="308"/>
      <point x="594" y="308" type="curve" smooth="yes"/>
      <point x="561" y="308"/>
      <point x="510" y="308"/>
      <point x="474" y="310" type="curve"/>
      <point x="472" y="267" type="line"/>
      <point x="500" y="266"/>
      <point x="539" y="260"/>
      <point x="545" y="256" type="curve"/>
      <point x="549" y="249"/>
      <point x="553" y="223"/>
      <point x="553" y="121" type="curve" smooth="yes"/>
      <point x="553" y="26" type="line"/>
      <point x="581" y="93" type="line"/>
      <point x="537" y="56"/>
      <point x="476" y="42"/>
      <point x="431" y="42" type="curve" smooth="yes"/>
      <point x="281" y="42"/>
      <point x="166" y="147"/>
      <point x="166" y="341" type="curve" smooth="yes"/>
      <point x="166" y="488"/>
      <point x="242" y="618"/>
      <point x="418" y="618" type="curve" smooth="yes"/>
      <point x="462" y="618"/>
      <point x="518" y="607"/>
      <point x="546" y="586" type="curve"/>
      <point x="560" y="555"/>
      <point x="570" y="521"/>
      <point x="579" y="488" type="curve"/>
      <point x="626" y="492" type="line"/>
      <point x="618" y="636" type="line"/>
      <point x="565" y="658"/>
      <point x="488" y="670"/>
      <point x="428" y="670" type="curve" smooth="yes"/>
      <point x="193" y="670"/>
      <point x="59" y="505"/>
      <point x="59" y="326" type="curve" smooth="yes"/>
      <point x="59" y="101"/>
      <point x="221" y="-10"/>
    </contour>
    <contour>
      <point x="362" y="-130" type="line"/>
      <point x="410" y="-130" type="line"/>
      <point x="410" y="790" type="line"/>
      <point x="362" y="790" type="line"/>
    </contour>
  </outline>
</glyph>
<glyph name="partialdiff" format="1">
  <advance width="573"/>
  <unicode hex="2202"/>
  <note>
    partialdiff
  </note>
  <outline>
    <contour>
      <point x="284" y="-8" type="curve" smooth="yes"/>
      <point x="421" y="-9"/>
      <point x="509" y="107"/>
      <point x="509" y="310" type="curve" smooth="yes"/>
      <point x="509" y="589"/>
      <point x="373" y="698"/>
      <point x="207" y="698" type="curve" smooth="yes"/>
      <point x="183" y="698"/>
      <point x="165" y="696"/>
      <point x="142" y="693" type="curve"/>
      <point x="142" y="647" type="line"/>
      <point x="180" y="647" type="line" smooth="yes"/>
      <point x="309" y="647"/>
      <point x="414" y="578"/>
      <point x="416" y="343" type="curve"/>
      <point x="428" y="342" type="line"/>
      <point x="398" y="407"/>
      <point x="338" y="440"/>
      <point x="272" y="440" type="curve" smooth="yes"/>
      <point x="155" y="440"/>
      <point x="64" y="356"/>
      <point x="64" y="216" type="curve" smooth="yes"/>
      <point x="64" y="75"/>
      <point x="154" y="-7"/>
    </contour>
    <contour>
      <point x="293" y="41" type="curve" smooth="yes"/>
      <point x="218" y="41"/>
      <point x="158" y="105"/>
      <point x="153" y="216" type="curve" smooth="yes"/>
      <point x="148" y="328"/>
      <point x="202" y="391"/>
      <point x="276" y="391" type="curve" smooth="yes"/>
      <point x="348" y="391"/>
      <point x="410" y="333"/>
      <point x="416" y="225" type="curve" smooth="yes"/>
      <point x="422" y="108"/>
      <point x="369" y="41"/>
    </contour>
  </outline>
</glyph>
<glyph name="product" format="1">
  <advance width="688"/>
  <unicode hex="220F"/>
  <outline>
    <contour>
      <point x="567" y="217" type="curve" smooth="yes"/>
      <point x="567" y="442" type="line" smooth="yes"/>
      <point x="567" y="572"/>
      <point x="571" y="598"/>
      <point x="575" y="605" type="curve"/>
      <point x="582" y="609"/>
      <point x="617" y="619"/>
      <point x="643" y="619" type="curve"/>
      <point x="641" y="661" type="line"/>
      <point x="606" y="659"/>
      <point x="558" y="660"/>
      <point x="525" y="660" type="curve" smooth="yes"/>
      <point x="164" y="660" type="line" smooth="yes"/>
      <point x="131" y="660"/>
      <point x="82" y="659"/>
      <point x="47" y="661" type="curve"/>
      <point x="45" y="619" type="line"/>
      <point x="71" y="619"/>
      <point x="106" y="609"/>
      <point x="113" y="605" type="curve"/>
      <point x="117" y="598"/>
      <point x="121" y="572"/>
      <point x="121" y="442" type="curve" smooth="yes"/>
      <point x="121" y="217" type="line" smooth="yes"/>
      <point x="121" y="87"/>
      <point x="117" y="61"/>
      <point x="113" y="54" type="curve"/>
      <point x="106" y="50"/>
      <point x="71" y="40"/>
      <point x="45" y="39" type="curve"/>
      <point x="47" y="-3" type="line"/>
      <point x="82" y="0"/>
      <point x="131" y="2"/>
      <point x="164" y="2" type="curve" smooth="yes"/>
      <point x="197" y="2"/>
      <point x="246" y="0"/>
      <point x="281" y="-3" type="curve"/>
      <point x="283" y="39" type="line"/>
      <point x="257" y="40"/>
      <point x="222" y="50"/>
      <point x="215" y="54" type="curve"/>
      <point x="211" y="61"/>
      <point x="207" y="87"/>
      <point x="207" y="217" type="curve" smooth="yes"/>
      <point x="207" y="442" type="line" smooth="yes"/>
      <point x="207" y="568"/>
      <point x="211" y="596"/>
      <point x="215" y="604" type="curve"/>
      <point x="248" y="606"/>
      <point x="297" y="607"/>
      <point x="345" y="607" type="curve" smooth="yes"/>
      <point x="393" y="607"/>
      <point x="440" y="606"/>
      <point x="473" y="604" type="curve"/>
      <point x="477" y="596"/>
      <point x="481" y="568"/>
      <point x="481" y="442" type="curve" smooth="yes"/>
      <point x="481" y="217" type="line" smooth="yes"/>
      <point x="481" y="87"/>
      <point x="477" y="61"/>
      <point x="473" y="54" type="curve"/>
      <point x="466" y="50"/>
      <point x="431" y="40"/>
      <point x="405" y="39" type="curve"/>
      <point x="407" y="-3" type="line"/>
      <point x="442" y="0"/>
      <point x="492" y="2"/>
      <point x="525" y="2" type="curve" smooth="yes"/>
      <point x="558" y="2"/>
      <point x="606" y="0"/>
      <point x="641" y="-3" type="curve"/>
      <point x="643" y="39" type="line"/>
      <point x="617" y="40"/>
      <point x="582" y="50"/>
      <point x="575" y="54" type="curve"/>
      <point x="571" y="61"/>
      <point x="567" y="87"/>
    </contour>
  </outline>
</glyph>
<glyph name="divisionslash" format="1">
  <advance width="600"/>
  <unicode hex="2215"/>
  <note>
    slash
  </note>
  <outline>
    <contour>
      <point x="158" y="0" type="line"/>
      <point x="223" y="0" type="line"/>
      <point x="441" y="660" type="line"/>
      <point x="376" y="660" type="line"/>
    </contour>
  </outline>
</glyph>
<glyph name="bulletoperator" format="1">
  <advance width="600"/>
  <unicode hex="2219"/>
  <note>
    periodcentered
  </note>
  <outline>
    <contour>
      <point x="300" y="159" type="curve" smooth="yes"/>
      <point x="336" y="159"/>
      <point x="363" y="185"/>
      <point x="363" y="220" type="curve" smooth="yes"/>
      <point x="363" y="255"/>
      <point x="336" y="281"/>
      <point x="300" y="281" type="curve" smooth="yes"/>
      <point x="264" y="281"/>
      <point x="237" y="255"/>
      <point x="237" y="220" type="curve" smooth="yes"/>
      <point x="237" y="185"/>
      <point x="264" y="159"/>
    </contour>
  </outline>
</glyph>
<glyph name="radical" format="1">
  <advance width="515"/>
  <unicode hex="221A"/>
  <note>
    radical
  </note>
  <outline>
    <contour>
      <point x="253" y="-4" type="line"/>
      <point x="287" y="-4" type="line"/>
      <point x="517" y="660" type="line"/>
      <point x="451" y="660" type="line"/>
      <point x="267" y="74" type="line"/>
      <point x="304" y="75" type="line"/>
      <point x="192" y="372" type="line" smooth="yes"/>
      <point x="182" y="397"/>
      <point x="178" y="414"/>
      <point x="173" y="432" type="curve"/>
      <point x="130" y="430"/>
      <point x="83" y="430"/>
      <point x="43" y="431" type="curve"/>
      <point x="41" y="393" type="line"/>
      <point x="63" y="391"/>
      <point x="83" y="386"/>
      <point x="98" y="381" type="curve"/>
    </contour>
  </outline>
</glyph>
<glyph name="infinity" format="1">
  <advance width="600"/>
  <unicode hex="221E"/>
  <outline>
    <contour>
      <point x="43" y="295" type="curve" smooth="yes"/>
      <point x="43" y="203"/>
      <point x="94" y="143"/>
      <point x="172" y="143" type="curve" smooth="yes"/>
      <point x="235" y="143"/>
      <point x="286" y="186"/>
      <point x="307" y="258" type="curve"/>
      <point x="292" y="282" type="line"/>
      <point x="262" y="226"/>
      <point x="223" y="204"/>
      <point x="179" y="204" type="curve" smooth="yes"/>
      <point x="127" y="204"/>
      <point x="86" y="240"/>
      <point x="86" y="306" type="curve" smooth="yes"/>
      <point x="86" y="360"/>
      <point x="113" y="394"/>
      <point x="163" y="394" type="curve" smooth="yes"/>
      <point x="209" y="394"/>
      <point x="239" y="356"/>
      <point x="273" y="285" type="curve" smooth="yes"/>
      <point x="317" y="193"/>
      <point x="357" y="143"/>
      <point x="419" y="143" type="curve" smooth="yes"/>
      <point x="495" y="143"/>
      <point x="557" y="208"/>
      <point x="557" y="303" type="curve" smooth="yes"/>
      <point x="557" y="395"/>
      <point x="506" y="455"/>
      <point x="428" y="455" type="curve" smooth="yes"/>
      <point x="365" y="455"/>
      <point x="314" y="412"/>
      <point x="293" y="340" type="curve"/>
      <point x="308" y="316" type="line"/>
      <point x="338" y="372"/>
      <point x="377" y="394"/>
      <point x="421" y="394" type="curve" smooth="yes"/>
      <point x="483" y="394"/>
      <point x="514" y="345"/>
      <point x="514" y="292" type="curve" smooth="yes"/>
      <point x="514" y="238"/>
      <point x="487" y="204"/>
      <point x="437" y="204" type="curve" smooth="yes"/>
      <point x="391" y="204"/>
      <point x="360" y="242"/>
      <point x="318" y="333" type="curve" smooth="yes"/>
      <point x="284" y="406"/>
      <point x="243" y="455"/>
      <point x="181" y="455" type="curve" smooth="yes"/>
      <point x="103" y="455"/>
      <point x="43" y="390"/>
    </contour>
  </outline>
</glyph>
<glyph name="integral" format="1">
  <advance width="600"/>
  <unicode hex="222B"/>
  <outline>
    <contour>
      <point x="423" y="696" type="curve" smooth="yes"/>
      <point x="320" y="696"/>
      <point x="257" y="644"/>
      <point x="257" y="530" type="curve" smooth="yes"/>
      <point x="257" y="-84" type="line" smooth="yes"/>
      <point x="257" y="-157"/>
      <point x="235" y="-183"/>
      <point x="175" y="-183" type="curve" smooth="yes"/>
      <point x="163" y="-183"/>
      <point x="151" y="-182"/>
      <point x="139" y="-181" type="curve"/>
      <point x="139" y="-225" type="line"/>
      <point x="153" y="-227"/>
      <point x="168" y="-228"/>
      <point x="182" y="-228" type="curve" smooth="yes"/>
      <point x="285" y="-228"/>
      <point x="342" y="-177"/>
      <point x="342" y="-63" type="curve" smooth="yes"/>
      <point x="342" y="552" type="line" smooth="yes"/>
      <point x="342" y="625"/>
      <point x="368" y="651"/>
      <point x="429" y="651" type="curve" smooth="yes"/>
      <point x="451" y="651"/>
      <point x="464" y="650"/>
      <point x="466" y="649" type="curve"/>
      <point x="466" y="693" type="line"/>
      <point x="462" y="695"/>
      <point x="447" y="696"/>
    </contour>
  </outline>
</glyph>
<glyph name="notequal" format="1">
  <advance width="600"/>
  <unicode hex="2260"/>
  <outline>
    <contour>
      <point x="369" y="552" type="line"/>
      <point x="158" y="43" type="line"/>
      <point x="217" y="17" type="line"/>
      <point x="428" y="527" type="line"/>
    </contour>
    <contour>
      <point x="544" y="417" type="line"/>
      <point x="56" y="417" type="line"/>
      <point x="56" y="352" type="line"/>
      <point x="544" y="352" type="line"/>
    </contour>
    <contour>
      <point x="544" y="217" type="line"/>
      <point x="56" y="217" type="line"/>
      <point x="56" y="152" type="line"/>
      <point x="544" y="152" type="line"/>
    </contour>
  </outline>
</glyph>
<glyph name="lessequal" format="1">
  <advance width="600"/>
  <unicode hex="2264"/>
  <outline>
    <contour>
      <point x="56" y="294" type="line"/>
      <point x="544" y="117" type="line"/>
      <point x="544" y="187" type="line"/>
      <point x="89" y="348" type="line"/>
      <point x="89" y="306" type="line"/>
      <point x="544" y="467" type="line"/>
      <point x="544" y="537" type="line"/>
      <point x="56" y="360" type="line"/>
    </contour>
    <contour>
      <point x="544" y="65" type="line"/>
      <point x="56" y="65" type="line"/>
      <point x="56" y="0" type="line"/>
      <point x="544" y="0" type="line"/>
    </contour>
  </outline>
</glyph>
<glyph name="lozenge" format="1">
  <advance width="600"/>
  <unicode hex="25CA"/>
  <outline>
    <contour>
      <point x="552" y="279" type="line"/>
      <point x="333" y="758" type="line"/>
      <point x="267" y="758" type="line"/>
      <point x="48" y="279" type="line"/>
      <point x="267" y="-200" type="line"/>
      <point x="333" y="-200" type="line"/>
    </contour>
    <contour>
      <point x="477" y="279" type="line"/>
      <point x="300" y="-119" type="line"/>
      <point x="123" y="279" type="line"/>
      <point x="300" y="677" type="line"/>
    </contour>
  </outline>
</glyph>
<glyph name="leftanglebracket-math" format="1">
  <advance width="600"/>
  <unicode hex="27E8"/>
  <outline>
    <contour>
      <point x="192" y="274" type="line"/>
      <point x="342" y="-180" type="line"/>
      <point x="407" y="-180" type="line"/>
      <point x="257" y="274" type="line"/>
      <point x="407" y="728" type="line"/>
      <point x="342" y="728" type="line"/>
    </contour>
  </outline>
</glyph>
<glyph name="rightanglebracket-math" format="1">
  <advance width="600"/>
  <unicode hex="27E9"/>
  <outline>
    <contour>
      <point x="408" y="274" type="line"/>
      <point x="258" y="728" type="line"/>
      <point x="193" y="728" type="line"/>
      <point x="343" y="274" type="line"/>
      <point x="193" y="-180" type="line"/>
      <point x="258" y="-180" type="line"/>
    </contour>
  </outline>
</glyph>
<glyph name="T_h" format="1">
  <advance width="1041"/>
  <note>
    T_h
  </note>
  <outline>
    <contour>
      <point x="952" y="51" type="curve"/>
      <point x="950" y="57"/>
      <point x="945" y="78"/>
      <point x="945" y="155" type="curve" smooth="yes"/>
      <point x="945" y="264" type="line" smooth="yes"/>
      <point x="945" y="382"/>
      <point x="875" y="438"/>
      <point x="802" y="438" type="curve" smooth="yes"/>
      <point x="748" y="438"/>
      <point x="704" y="416"/>
      <point x="660" y="367" type="curve"/>
      <point x="657" y="368" type="line"/>
      <point x="659" y="525"/>
      <point x="658" y="583"/>
      <point x="660" y="666" type="curve"/>
      <point x="625" y="663"/>
      <point x="593" y="660"/>
      <point x="559" y="660" type="curve" smooth="yes"/>
      <point x="139" y="660" type="line" smooth="yes"/>
      <point x="105" y="660"/>
      <point x="72" y="661"/>
      <point x="36" y="664" type="curve"/>
      <point x="29" y="605"/>
      <point x="21" y="546"/>
      <point x="12" y="487" type="curve"/>
      <point x="61" y="481" type="line"/>
      <point x="79" y="541"/>
      <point x="97" y="590"/>
      <point x="108" y="607" type="curve"/>
      <point x="119" y="609"/>
      <point x="135" y="610"/>
      <point x="148" y="610" type="curve" smooth="yes"/>
      <point x="191" y="610" type="line" smooth="yes"/>
      <point x="220" y="610"/>
      <point x="238" y="609"/>
      <point x="258" y="608" type="curve"/>
      <point x="259" y="591"/>
      <point x="260" y="488"/>
      <point x="260" y="412" type="curve" smooth="yes"/>
      <point x="260" y="247" type="line" smooth="yes"/>
      <point x="260" y="147"/>
      <point x="256" y="71"/>
      <point x="255" y="54" type="curve"/>
      <point x="233" y="50"/>
      <point x="182" y="43"/>
      <point x="165" y="41" type="curve"/>
      <point x="167" y="-3" type="line"/>
      <point x="202" y="0"/>
      <point x="271" y="2"/>
      <point x="304" y="2" type="curve" smooth="yes"/>
      <point x="338" y="2"/>
      <point x="401" y="0"/>
      <point x="432" y="-3" type="curve"/>
      <point x="434" y="41" type="line"/>
      <point x="419" y="43"/>
      <point x="374" y="50"/>
      <point x="354" y="54" type="curve"/>
      <point x="353" y="71"/>
      <point x="349" y="147"/>
      <point x="349" y="247" type="curve" smooth="yes"/>
      <point x="349" y="412" type="line" smooth="yes"/>
      <point x="349" y="488"/>
      <point x="350" y="591"/>
      <point x="351" y="608" type="curve"/>
      <point x="371" y="609"/>
      <point x="391" y="610"/>
      <point x="419" y="610" type="curve" smooth="yes"/>
      <point x="528" y="610" type="line" smooth="yes"/>
      <point x="549" y="610"/>
      <point x="567" y="607"/>
      <point x="578" y="605" type="curve"/>
      <point x="580" y="581"/>
      <point x="582" y="454"/>
      <point x="582" y="363" type="curve" smooth="yes"/>
      <point x="582" y="238" type="line" smooth="yes"/>
      <point x="582" y="111"/>
      <point x="579" y="58"/>
      <point x="576" y="51" type="curve"/>
      <point x="568" y="47"/>
      <point x="531" y="38"/>
      <point x="512" y="37" type="curve"/>
      <point x="515" y="-3" type="line"/>
      <point x="550" y="0"/>
      <point x="588" y="2"/>
      <point x="621" y="2" type="curve" smooth="yes"/>
      <point x="654" y="2"/>
      <point x="695" y="0"/>
      <point x="730" y="-3" type="curve"/>
      <point x="733" y="36" type="line"/>
      <point x="714" y="37"/>
      <point x="673" y="47"/>
      <point x="664" y="51" type="curve"/>
      <point x="662" y="57"/>
      <point x="658" y="81"/>
      <point x="658" y="165" type="curve" smooth="yes"/>
      <point x="658" y="316" type="line"/>
      <point x="688" y="358"/>
      <point x="728" y="377"/>
      <point x="768" y="377" type="curve" smooth="yes"/>
      <point x="819" y="377"/>
      <point x="869" y="342"/>
      <point x="869" y="258" type="curve" smooth="yes"/>
      <point x="869" y="148" type="line" smooth="yes"/>
      <point x="869" y="81"/>
      <point x="867" y="58"/>
      <point x="864" y="51" type="curve"/>
      <point x="856" y="47"/>
      <point x="819" y="38"/>
      <point x="800" y="37" type="curve"/>
      <point x="803" y="-3" type="line"/>
      <point x="838" y="0"/>
      <point x="876" y="2"/>
      <point x="909" y="2" type="curve" smooth="yes"/>
      <point x="942" y="2"/>
      <point x="983" y="0"/>
      <point x="1018" y="-3" type="curve"/>
      <point x="1021" y="36" type="line"/>
      <point x="1002" y="37"/>
      <point x="961" y="47"/>
    </contour>
  </outline>
</glyph>
<glyph name="acutecomb_dotaccentcomb" format="1">
  <advance width="600"/>
  <outline>
    <contour>
      <point x="320" y="482" type="line"/>
      <point x="460" y="654" type="line"/>
      <point x="379" y="677" type="line"/>
      <point x="280" y="496" type="line"/>
    </contour>
    <contour>
      <point x="291" y="685" type="curve" smooth="yes"/>
      <point x="320" y="685"/>
      <point x="341" y="706"/>
      <point x="341" y="735" type="curve" smooth="yes"/>
      <point x="341" y="763"/>
      <point x="320" y="785"/>
      <point x="291" y="785" type="curve" smooth="yes"/>
      <point x="261" y="785"/>
      <point x="239" y="763"/>
      <point x="239" y="735" type="curve" smooth="yes"/>
      <point x="239" y="706"/>
      <point x="261" y="685"/>
    </contour>
    <contour>
      <point x="300" y="430" type="move" name="_top"/>
    </contour>
  </outline>
</glyph>
<glyph name="brevebelowcomb.case" format="1">
  <advance width="600"/>
  <outline>
    <contour>
      <point x="397" y="-74" type="line"/>
      <point x="389" y="-131"/>
      <point x="354" y="-164"/>
      <point x="302" y="-164" type="curve" smooth="yes"/>
      <point x="252" y="-164"/>
      <point x="217" y="-131"/>
      <point x="207" y="-74" type="curve"/>
      <point x="164" y="-88" type="line"/>
      <point x="172" y="-176"/>
      <point x="221" y="-227"/>
      <point x="301" y="-227" type="curve" smooth="yes"/>
      <point x="381" y="-227"/>
      <point x="429" y="-176"/>
      <point x="436" y="-88" type="curve"/>
    </contour>
    <contour>
      <point x="300" y="0" type="move" name="_bottom"/>
    </contour>
    <contour>
      <point x="300" y="-220" type="move" name="bottom"/>
    </contour>
  </outline>
</glyph>
<glyph name="caroncomb_dotaccentcomb.case" format="1">
  <advance width="600"/>
  <outline>
    <contour>
      <point x="301" y="876" type="curve" smooth="yes"/>
      <point x="330" y="876"/>
      <point x="351" y="897"/>
      <point x="351" y="926" type="curve" smooth="yes"/>
      <point x="351" y="954"/>
      <point x="330" y="976"/>
      <point x="301" y="976" type="curve" smooth="yes"/>
      <point x="271" y="976"/>
      <point x="249" y="954"/>
      <point x="249" y="926" type="curve" smooth="yes"/>
      <point x="249" y="897"/>
      <point x="271" y="876"/>
    </contour>
    <contour>
      <point x="130" y="827" type="line"/>
      <point x="263" y="720" type="line"/>
      <point x="337" y="720" type="line"/>
      <point x="470" y="827" type="line"/>
      <point x="435" y="851" type="line"/>
      <point x="270" y="760" type="line"/>
      <point x="330" y="760" type="line"/>
      <point x="165" y="851" type="line"/>
    </contour>
    <contour>
      <point x="300" y="660" type="move" name="_top"/>
    </contour>
  </outline>
</glyph>
<glyph name="circumflexcomb_gravecomb.case" format="1">
  <advance width="600"/>
  <outline>
    <contour>
      <point x="424" y="822" type="line"/>
      <point x="464" y="836" type="line"/>
      <point x="394" y="976" type="line"/>
      <point x="313" y="953" type="line"/>
    </contour>
    <contour>
      <point x="470" y="736" type="line"/>
      <point x="337" y="843" type="line"/>
      <point x="263" y="843" type="line"/>
      <point x="130" y="736" type="line"/>
      <point x="165" y="712" type="line"/>
      <point x="330" y="803" type="line"/>
      <point x="270" y="803" type="line"/>
      <point x="435" y="712" type="line"/>
    </contour>
    <contour>
      <point x="300" y="660" type="move" name="_top"/>
    </contour>
  </outline>
</glyph>
<glyph name="circumflexcomb_gravecomb" format="1">
  <advance width="600"/>
  <outline>
    <contour>
      <point x="440" y="496" type="line"/>
      <point x="337" y="663" type="line"/>
      <point x="263" y="663" type="line"/>
      <point x="160" y="496" type="line"/>
      <point x="200" y="482" type="line"/>
      <point x="330" y="633" type="line"/>
      <point x="270" y="633" type="line"/>
      <point x="400" y="482" type="line"/>
    </contour>
    <contour>
      <point x="424" y="634" type="line"/>
      <point x="466" y="648" type="line"/>
      <point x="393" y="790" type="line"/>
      <point x="310" y="767" type="line"/>
    </contour>
    <contour>
      <point x="300" y="430" type="move" name="_top"/>
    </contour>
  </outline>
</glyph>
<glyph name="circumflexcomb_tildecomb" format="1">
  <advance width="600"/>
  <outline>
    <contour>
      <point x="200" y="482" type="line"/>
      <point x="330" y="605" type="line"/>
      <point x="270" y="605" type="line"/>
      <point x="400" y="482" type="line"/>
      <point x="440" y="496" type="line"/>
      <point x="337" y="635" type="line"/>
      <point x="263" y="635" type="line"/>
      <point x="160" y="496" type="line"/>
    </contour>
    <contour>
      <point x="362" y="669" type="curve" smooth="yes"/>
      <point x="403" y="669"/>
      <point x="436" y="707"/>
      <point x="454" y="766" type="curve"/>
      <point x="424" y="784" type="line"/>
      <point x="409" y="754"/>
      <point x="394" y="735"/>
      <point x="370" y="735" type="curve" smooth="yes"/>
      <point x="331" y="735"/>
      <point x="283" y="790"/>
      <point x="238" y="790" type="curve" smooth="yes"/>
      <point x="197" y="790"/>
      <point x="164" y="752"/>
      <point x="146" y="693" type="curve"/>
      <point x="176" y="675" type="line"/>
      <point x="191" y="705"/>
      <point x="205" y="724"/>
      <point x="231" y="724" type="curve" smooth="yes"/>
      <point x="268" y="724"/>
      <point x="317" y="669"/>
    </contour>
    <contour>
      <point x="300" y="430" type="move" name="_top"/>
    </contour>
  </outline>
</glyph>
<glyph name="dieresiscomb.case" format="1">
  <advance width="600"/>
  <note>
    uni0308.cap
  </note>
  <outline>
    <contour>
      <point x="201" y="733" type="curve" smooth="yes"/>
      <point x="230" y="733"/>
      <point x="251" y="754"/>
      <point x="251" y="783" type="curve" smooth="yes"/>
      <point x="251" y="811"/>
      <point x="230" y="833"/>
      <point x="201" y="833" type="curve" smooth="yes"/>
      <point x="171" y="833"/>
      <point x="149" y="811"/>
      <point x="149" y="783" type="curve" smooth="yes"/>
      <point x="149" y="754"/>
      <point x="171" y="733"/>
    </contour>
    <contour>
      <point x="401" y="733" type="curve" smooth="yes"/>
      <point x="430" y="733"/>
      <point x="451" y="754"/>
      <point x="451" y="783" type="curve" smooth="yes"/>
      <point x="451" y="811"/>
      <point x="430" y="833"/>
      <point x="401" y="833" type="curve" smooth="yes"/>
      <point x="371" y="833"/>
      <point x="349" y="811"/>
      <point x="349" y="783" type="curve" smooth="yes"/>
      <point x="349" y="754"/>
      <point x="371" y="733"/>
    </contour>
    <contour>
      <point x="300" y="660" type="move" name="_top"/>
    </contour>
    <contour>
      <point x="300" y="858" type="move" name="top"/>
    </contour>
  </outline>
</glyph>
<glyph name="dotaccentcomb.case" format="1">
  <advance width="600"/>
  <note>
    uni0307.cap
  </note>
  <outline>
    <contour>
      <point x="301" y="731" type="curve" smooth="yes"/>
      <point x="331" y="731"/>
      <point x="354" y="753"/>
      <point x="354" y="783" type="curve" smooth="yes"/>
      <point x="354" y="812"/>
      <point x="331" y="835"/>
      <point x="301" y="835" type="curve" smooth="yes"/>
      <point x="270" y="835"/>
      <point x="246" y="812"/>
      <point x="246" y="783" type="curve" smooth="yes"/>
      <point x="246" y="753"/>
      <point x="270" y="731"/>
    </contour>
    <contour>
      <point x="300" y="660" type="move" name="_top"/>
    </contour>
    <contour>
      <point x="300" y="858" type="move" name="top"/>
    </contour>
  </outline>
</glyph>
<glyph name="dotaccentcomb.i" format="1">
  <advance width="600"/>
  <note>
    uni0307
  </note>
  <outline>
    <contour>
      <point x="301" y="548" type="curve" smooth="yes"/>
      <point x="336" y="548"/>
      <point x="362" y="574"/>
      <point x="362" y="608" type="curve" smooth="yes"/>
      <point x="362" y="641"/>
      <point x="336" y="668"/>
      <point x="301" y="668" type="curve" smooth="yes"/>
      <point x="266" y="668"/>
      <point x="238" y="641"/>
      <point x="238" y="608" type="curve" smooth="yes"/>
      <point x="238" y="574"/>
      <point x="266" y="548"/>
    </contour>
    <contour>
      <point x="300" y="430" type="move" name="_top"/>
    </contour>
    <contour>
      <point x="300" y="668" type="move" name="top"/>
    </contour>
  </outline>
</glyph>
<glyph name="eight.osf" format="1">
  <advance width="534"/>
  <note>
    eight.onum
  </note>
  <outline>
    <contour>
      <point x="261" y="-10" type="curve" smooth="yes"/>
      <point x="393" y="-10"/>
      <point x="483" y="69"/>
      <point x="483" y="176" type="curve" smooth="yes"/>
      <point x="483" y="252"/>
      <point x="439" y="302"/>
      <point x="314" y="359" type="curve" smooth="yes"/>
      <point x="189" y="416"/>
      <point x="161" y="452"/>
      <point x="161" y="519" type="curve" smooth="yes"/>
      <point x="161" y="587"/>
      <point x="206" y="626"/>
      <point x="266" y="626" type="curve" smooth="yes"/>
      <point x="338" y="626"/>
      <point x="380" y="573"/>
      <point x="380" y="489" type="curve" smooth="yes"/>
      <point x="380" y="437"/>
      <point x="361" y="393"/>
      <point x="317" y="345" type="curve"/>
      <point x="341" y="330" type="line"/>
      <point x="414" y="366"/>
      <point x="462" y="425"/>
      <point x="462" y="498" type="curve" smooth="yes"/>
      <point x="462" y="599"/>
      <point x="384" y="670"/>
      <point x="275" y="670" type="curve" smooth="yes"/>
      <point x="162" y="670"/>
      <point x="76" y="596"/>
      <point x="76" y="495" type="curve" smooth="yes"/>
      <point x="76" y="415"/>
      <point x="121" y="359"/>
      <point x="248" y="302" type="curve" smooth="yes"/>
      <point x="368" y="248"/>
      <point x="398" y="211"/>
      <point x="398" y="147" type="curve" smooth="yes"/>
      <point x="398" y="78"/>
      <point x="351" y="37"/>
      <point x="277" y="37" type="curve" smooth="yes"/>
      <point x="187" y="37"/>
      <point x="138" y="97"/>
      <point x="138" y="168" type="curve" smooth="yes"/>
      <point x="138" y="228"/>
      <point x="168" y="280"/>
      <point x="245" y="320" type="curve"/>
      <point x="211" y="339" type="line"/>
      <point x="114" y="312"/>
      <point x="52" y="251"/>
      <point x="52" y="167" type="curve" smooth="yes"/>
      <point x="52" y="64"/>
      <point x="135" y="-10"/>
    </contour>
  </outline>
</glyph>
<glyph name="eight.tosf" format="1">
  <advance width="600"/>
  <note>
    eight.onum
  </note>
  <outline>
    <contour>
      <point x="294" y="-10" type="curve" smooth="yes"/>
      <point x="426" y="-10"/>
      <point x="516" y="69"/>
      <point x="516" y="176" type="curve" smooth="yes"/>
      <point x="516" y="252"/>
      <point x="472" y="302"/>
      <point x="347" y="359" type="curve" smooth="yes"/>
      <point x="222" y="416"/>
      <point x="194" y="452"/>
      <point x="194" y="519" type="curve" smooth="yes"/>
      <point x="194" y="587"/>
      <point x="239" y="626"/>
      <point x="299" y="626" type="curve" smooth="yes"/>
      <point x="371" y="626"/>
      <point x="413" y="573"/>
      <point x="413" y="489" type="curve" smooth="yes"/>
      <point x="413" y="437"/>
      <point x="394" y="393"/>
      <point x="350" y="345" type="curve"/>
      <point x="374" y="330" type="line"/>
      <point x="447" y="366"/>
      <point x="495" y="425"/>
      <point x="495" y="498" type="curve" smooth="yes"/>
      <point x="495" y="599"/>
      <point x="417" y="670"/>
      <point x="308" y="670" type="curve" smooth="yes"/>
      <point x="195" y="670"/>
      <point x="109" y="596"/>
      <point x="109" y="495" type="curve" smooth="yes"/>
      <point x="109" y="415"/>
      <point x="154" y="359"/>
      <point x="281" y="302" type="curve" smooth="yes"/>
      <point x="401" y="248"/>
      <point x="431" y="211"/>
      <point x="431" y="147" type="curve" smooth="yes"/>
      <point x="431" y="78"/>
      <point x="384" y="37"/>
      <point x="310" y="37" type="curve" smooth="yes"/>
      <point x="220" y="37"/>
      <point x="171" y="97"/>
      <point x="171" y="168" type="curve" smooth="yes"/>
      <point x="171" y="228"/>
      <point x="201" y="280"/>
      <point x="278" y="320" type="curve"/>
      <point x="244" y="339" type="line"/>
      <point x="147" y="312"/>
      <point x="85" y="251"/>
      <point x="85" y="167" type="curve" smooth="yes"/>
      <point x="85" y="64"/>
      <point x="168" y="-10"/>
    </contour>
  </outline>
</glyph>
<glyph name="f_f_i" format="1">
  <advance width="831"/>
  <note>
    f_f_i
  </note>
  <outline>
    <contour>
      <point x="585" y="-3" type="line"/>
      <point x="623" y="0"/>
      <point x="662" y="2"/>
      <point x="695" y="2" type="curve" smooth="yes"/>
      <point x="727" y="2"/>
      <point x="768" y="0"/>
      <point x="806" y="-3" type="curve"/>
      <point x="809" y="36" type="line"/>
      <point x="787" y="37"/>
      <point x="746" y="47"/>
      <point x="737" y="51" type="curve"/>
      <point x="735" y="57"/>
      <point x="731" y="81"/>
      <point x="731" y="165" type="curve" smooth="yes"/>
      <point x="731" y="291" type="line" smooth="yes"/>
      <point x="731" y="352"/>
      <point x="732" y="388"/>
      <point x="734" y="431" type="curve"/>
      <point x="708" y="429"/>
      <point x="681" y="428"/>
      <point x="655" y="428" type="curve" smooth="yes"/>
      <point x="172" y="428" type="line"/>
      <point x="95" y="429" type="line"/>
      <point x="70" y="421"/>
      <point x="48" y="415"/>
      <point x="23" y="411" type="curve"/>
      <point x="23" y="378" type="line"/>
      <point x="647" y="378" type="line"/>
      <point x="650" y="354"/>
      <point x="656" y="316"/>
      <point x="655" y="246" type="curve" smooth="yes"/>
      <point x="654" y="158" type="line" smooth="yes"/>
      <point x="653" y="81"/>
      <point x="652" y="58"/>
      <point x="649" y="51" type="curve"/>
      <point x="641" y="47"/>
      <point x="604" y="38"/>
      <point x="582" y="37" type="curve"/>
    </contour>
    <contour>
      <point x="247" y="-2" type="curve"/>
      <point x="248" y="39" type="line"/>
      <point x="225" y="42"/>
      <point x="191" y="50"/>
      <point x="181" y="54" type="curve"/>
      <point x="178" y="64"/>
      <point x="175" y="113"/>
      <point x="174" y="206" type="curve" smooth="yes"/>
      <point x="172" y="378" type="line"/>
      <point x="172" y="428" type="line"/>
      <point x="172" y="465" type="line" smooth="yes"/>
      <point x="172" y="572"/>
      <point x="224" y="626"/>
      <point x="301" y="626" type="curve" smooth="yes"/>
      <point x="345" y="626"/>
      <point x="394" y="605"/>
      <point x="408" y="539" type="curve"/>
      <point x="436" y="612" type="line"/>
      <point x="407" y="652"/>
      <point x="354" y="668"/>
      <point x="305" y="668" type="curve" smooth="yes"/>
      <point x="179" y="668"/>
      <point x="100" y="578"/>
      <point x="95" y="429" type="curve"/>
      <point x="95" y="378" type="line"/>
      <point x="97" y="199" type="line"/>
      <point x="97" y="102"/>
      <point x="96" y="61"/>
      <point x="94" y="52" type="curve"/>
      <point x="88" y="48"/>
      <point x="46" y="40"/>
      <point x="29" y="39" type="curve"/>
      <point x="32" y="-1" type="line"/>
      <point x="64" y="1"/>
      <point x="109" y="3"/>
      <point x="143" y="3" type="curve" smooth="yes"/>
      <point x="175" y="3"/>
      <point x="210" y="1"/>
    </contour>
    <contour>
      <point x="527" y="-2" type="curve"/>
      <point x="528" y="39" type="line"/>
      <point x="505" y="42"/>
      <point x="471" y="50"/>
      <point x="461" y="54" type="curve"/>
      <point x="458" y="64"/>
      <point x="455" y="113"/>
      <point x="454" y="206" type="curve" smooth="yes"/>
      <point x="452" y="378" type="line"/>
      <point x="452" y="428" type="line"/>
      <point x="452" y="485" type="line" smooth="yes"/>
      <point x="452" y="614"/>
      <point x="540" y="671"/>
      <point x="635" y="654" type="curve"/>
      <point x="581" y="669" type="line"/>
      <point x="645" y="605" type="line" smooth="yes"/>
      <point x="670" y="580"/>
      <point x="685" y="573"/>
      <point x="706" y="573" type="curve" smooth="yes"/>
      <point x="733" y="573"/>
      <point x="749" y="589"/>
      <point x="749" y="614" type="curve" smooth="yes"/>
      <point x="749" y="658"/>
      <point x="692" y="698"/>
      <point x="605" y="698" type="curve" smooth="yes"/>
      <point x="480" y="698"/>
      <point x="375" y="619"/>
      <point x="375" y="466" type="curve" smooth="yes"/>
      <point x="375" y="378" type="line"/>
      <point x="377" y="199" type="line"/>
      <point x="377" y="102"/>
      <point x="376" y="61"/>
      <point x="374" y="52" type="curve"/>
      <point x="368" y="48"/>
      <point x="326" y="40"/>
      <point x="309" y="39" type="curve"/>
      <point x="312" y="-1" type="line"/>
      <point x="344" y="1"/>
      <point x="389" y="3"/>
      <point x="423" y="3" type="curve" smooth="yes"/>
      <point x="455" y="3"/>
      <point x="490" y="1"/>
    </contour>
  </outline>
</glyph>
<glyph name="f_f_l" format="1">
  <advance width="825"/>
  <note>
    f_f_l
  </note>
  <outline>
    <contour>
      <point x="247" y="-2" type="curve"/>
      <point x="248" y="39" type="line"/>
      <point x="225" y="42"/>
      <point x="191" y="50"/>
      <point x="181" y="54" type="curve"/>
      <point x="178" y="64"/>
      <point x="175" y="113"/>
      <point x="174" y="206" type="curve" smooth="yes"/>
      <point x="172" y="378" type="line"/>
      <point x="172" y="428" type="line"/>
      <point x="172" y="465" type="line" smooth="yes"/>
      <point x="172" y="572"/>
      <point x="224" y="626"/>
      <point x="301" y="626" type="curve" smooth="yes"/>
      <point x="345" y="626"/>
      <point x="394" y="605"/>
      <point x="408" y="539" type="curve"/>
      <point x="436" y="612" type="line"/>
      <point x="407" y="652"/>
      <point x="354" y="668"/>
      <point x="305" y="668" type="curve" smooth="yes"/>
      <point x="179" y="668"/>
      <point x="100" y="578"/>
      <point x="95" y="429" type="curve"/>
      <point x="95" y="378" type="line"/>
      <point x="97" y="199" type="line"/>
      <point x="97" y="102"/>
      <point x="96" y="61"/>
      <point x="94" y="52" type="curve"/>
      <point x="88" y="48"/>
      <point x="46" y="40"/>
      <point x="29" y="39" type="curve"/>
      <point x="32" y="-1" type="line"/>
      <point x="64" y="1"/>
      <point x="109" y="3"/>
      <point x="143" y="3" type="curve" smooth="yes"/>
      <point x="175" y="3"/>
      <point x="210" y="1"/>
    </contour>
    <contour>
      <point x="527" y="-2" type="curve"/>
      <point x="528" y="39" type="line"/>
      <point x="505" y="42"/>
      <point x="471" y="50"/>
      <point x="461" y="54" type="curve"/>
      <point x="458" y="64"/>
      <point x="455" y="113"/>
      <point x="454" y="206" type="curve" smooth="yes"/>
      <point x="452" y="378" type="line"/>
      <point x="450" y="428" type="line"/>
      <point x="450" y="485" type="line" smooth="yes"/>
      <point x="450" y="589"/>
      <point x="501" y="655"/>
      <point x="584" y="655" type="curve" smooth="yes"/>
      <point x="612" y="655"/>
      <point x="640" y="643"/>
      <point x="668" y="614" type="curve"/>
      <point x="711" y="665" type="line"/>
      <point x="674" y="689"/>
      <point x="636" y="698"/>
      <point x="593" y="698" type="curve" smooth="yes"/>
      <point x="477" y="698"/>
      <point x="375" y="619"/>
      <point x="375" y="466" type="curve" smooth="yes"/>
      <point x="375" y="378" type="line"/>
      <point x="377" y="199" type="line"/>
      <point x="377" y="102"/>
      <point x="376" y="61"/>
      <point x="374" y="52" type="curve"/>
      <point x="368" y="48"/>
      <point x="326" y="40"/>
      <point x="309" y="39" type="curve"/>
      <point x="312" y="-1" type="line"/>
      <point x="344" y="1"/>
      <point x="389" y="3"/>
      <point x="423" y="3" type="curve" smooth="yes"/>
      <point x="455" y="3"/>
      <point x="490" y="1"/>
    </contour>
    <contour>
      <point x="23" y="378" type="line"/>
      <point x="563" y="378" type="line"/>
      <point x="563" y="428" type="line"/>
      <point x="170" y="428" type="line"/>
      <point x="95" y="429" type="line"/>
      <point x="70" y="421"/>
      <point x="48" y="415"/>
      <point x="23" y="411" type="curve"/>
    </contour>
    <contour>
      <point x="579" y="-3" type="line"/>
      <point x="617" y="0"/>
      <point x="654" y="2"/>
      <point x="688" y="2" type="curve" smooth="yes"/>
      <point x="722" y="2"/>
      <point x="762" y="0"/>
      <point x="800" y="-3" type="curve"/>
      <point x="803" y="36" type="line"/>
      <point x="781" y="37"/>
      <point x="740" y="47"/>
      <point x="731" y="51" type="curve"/>
      <point x="729" y="57"/>
      <point x="725" y="101"/>
      <point x="725" y="219" type="curve"/>
      <point x="726" y="380" type="line"/>
      <point x="726" y="525"/>
      <point x="727" y="597"/>
      <point x="730" y="680" type="curve"/>
      <point x="711" y="694" type="line"/>
      <point x="690" y="685"/>
      <point x="666" y="676"/>
      <point x="641" y="669" type="curve"/>
      <point x="645" y="605"/>
      <point x="648" y="479"/>
      <point x="648" y="363" type="curve" smooth="yes"/>
      <point x="648" y="238" type="line" smooth="yes"/>
      <point x="648" y="111"/>
      <point x="645" y="58"/>
      <point x="642" y="51" type="curve"/>
      <point x="634" y="47"/>
      <point x="598" y="38"/>
      <point x="576" y="37" type="curve"/>
    </contour>
  </outline>
</glyph>
<glyph name="five.tosf" format="1">
  <advance width="600"/>
  <note>
    five.onum
  </note>
  <outline>
    <contour>
      <point x="241" y="-228" type="curve" smooth="yes"/>
      <point x="383" y="-228"/>
      <point x="504" y="-136"/>
      <point x="504" y="-32" type="curve" smooth="yes"/>
      <point x="504" y="68"/>
      <point x="429" y="131"/>
      <point x="284" y="163" type="curve" smooth="yes"/>
      <point x="247" y="171"/>
      <point x="210" y="177"/>
      <point x="172" y="183" type="curve"/>
      <point x="196" y="135" type="line"/>
      <point x="242" y="348" type="line"/>
      <point x="474" y="348" type="line"/>
      <point x="474" y="430" type="line"/>
      <point x="198" y="430" type="line"/>
      <point x="139" y="108" type="line"/>
      <point x="179" y="102"/>
      <point x="217" y="94"/>
      <point x="256" y="86" type="curve" smooth="yes"/>
      <point x="372" y="61"/>
      <point x="415" y="23"/>
      <point x="415" y="-53" type="curve" smooth="yes"/>
      <point x="415" y="-140"/>
      <point x="315" y="-196"/>
      <point x="198" y="-179" type="curve"/>
      <point x="254" y="-196" type="line"/>
      <point x="189" y="-142" type="line" smooth="yes"/>
      <point x="165" y="-122"/>
      <point x="149" y="-115"/>
      <point x="129" y="-115" type="curve" smooth="yes"/>
      <point x="107" y="-115"/>
      <point x="89" y="-131"/>
      <point x="89" y="-154" type="curve" smooth="yes"/>
      <point x="89" y="-197"/>
      <point x="155" y="-228"/>
    </contour>
  </outline>
</glyph>
<glyph name="four.tf" format="1">
  <advance width="600"/>
  <note>
    four
  </note>
  <outline>
    <contour>
      <point x="433" y="170" type="curve"/>
      <point x="432" y="503" type="line"/>
      <point x="432" y="557"/>
      <point x="433" y="610"/>
      <point x="435" y="664" type="curve"/>
      <point x="394" y="664" type="line"/>
      <point x="47" y="205" type="line"/>
      <point x="57" y="170" type="line"/>
      <point x="534" y="170" type="line"/>
      <point x="534" y="235" type="line"/>
      <point x="194" y="235" type="line" smooth="yes"/>
      <point x="169" y="235"/>
      <point x="143" y="237"/>
      <point x="118" y="238" type="curve"/>
      <point x="123" y="212" type="line"/>
      <point x="379" y="565" type="line"/>
      <point x="348" y="569" type="line"/>
      <point x="348" y="170" type="line"/>
      <point x="348" y="95"/>
      <point x="346" y="71"/>
      <point x="345" y="54" type="curve"/>
      <point x="336" y="50"/>
      <point x="291" y="42"/>
      <point x="257" y="39" type="curve"/>
      <point x="260" y="-3" type="line"/>
      <point x="305" y="0"/>
      <point x="358" y="2"/>
      <point x="391" y="2" type="curve" smooth="yes"/>
      <point x="423" y="2"/>
      <point x="468" y="0"/>
      <point x="503" y="-3" type="curve"/>
      <point x="505" y="39" type="line"/>
      <point x="479" y="42"/>
      <point x="444" y="50"/>
      <point x="437" y="54" type="curve"/>
      <point x="435" y="71"/>
      <point x="433" y="95"/>
    </contour>
  </outline>
</glyph>
<glyph name="hookabovecomb.case" format="1">
  <advance width="600"/>
  <note>
    hookabovecomb.cap
  </note>
  <outline>
    <contour>
      <point x="303" y="898" type="curve" smooth="yes"/>
      <point x="247" y="898"/>
      <point x="210" y="873"/>
      <point x="210" y="847" type="curve" smooth="yes"/>
      <point x="210" y="832"/>
      <point x="220" y="822"/>
      <point x="236" y="822" type="curve" smooth="yes"/>
      <point x="251" y="822"/>
      <point x="257" y="827"/>
      <point x="273" y="842" type="curve" smooth="yes"/>
      <point x="308" y="876" type="line"/>
      <point x="272" y="867" type="line"/>
      <point x="303" y="875"/>
      <point x="329" y="872"/>
      <point x="329" y="839" type="curve" smooth="yes"/>
      <point x="329" y="811"/>
      <point x="284" y="793"/>
      <point x="284" y="738" type="curve" smooth="yes"/>
      <point x="284" y="721" type="line"/>
      <point x="317" y="721" type="line"/>
      <point x="317" y="780"/>
      <point x="397" y="770"/>
      <point x="397" y="835" type="curve" smooth="yes"/>
      <point x="397" y="874"/>
      <point x="359" y="898"/>
    </contour>
    <contour>
      <point x="300" y="660" type="move" name="_top"/>
    </contour>
    <contour>
      <point x="300" y="877" type="move" name="top"/>
    </contour>
  </outline>
</glyph>
<glyph name="horncomb.case" format="1">
  <advance width="600"/>
  <outline>
    <contour>
      <point x="373" y="650" type="curve"/>
      <point x="356" y="650" type="line"/>
      <point x="356" y="611" type="line"/>
      <point x="373" y="611" type="line" smooth="yes"/>
      <point x="455" y="611"/>
      <point x="506" y="656"/>
      <point x="506" y="707" type="curve" smooth="yes"/>
      <point x="506" y="744"/>
      <point x="465" y="758"/>
      <point x="421" y="748" type="curve"/>
      <point x="419" y="705" type="line" smooth="yes"/>
      <point x="417" y="667"/>
      <point x="407" y="650"/>
    </contour>
    <contour>
      <point x="373" y="650" type="move" name="_topright"/>
    </contour>
  </outline>
</glyph>
<glyph name="hungarumlautcomb.case" format="1">
  <advance width="600"/>
  <note>
    uni030B.cap
  </note>
  <outline>
    <contour>
      <point x="379" y="712" type="line"/>
      <point x="461" y="832" type="line"/>
      <point x="390" y="847" type="line"/>
      <point x="345" y="725" type="line"/>
    </contour>
    <contour>
      <point x="255" y="712" type="line"/>
      <point x="337" y="832" type="line"/>
      <point x="266" y="847" type="line"/>
      <point x="221" y="725" type="line"/>
    </contour>
    <contour>
      <point x="300" y="660" type="move" name="_top"/>
    </contour>
    <contour>
      <point x="300" y="877" type="move" name="top"/>
    </contour>
  </outline>
</glyph>
<glyph name="macroncomb_gravecomb.case" format="1">
  <advance width="600"/>
  <outline>
    <contour>
      <point x="464" y="811" type="line"/>
      <point x="136" y="811" type="line"/>
      <point x="136" y="756" type="line"/>
      <point x="464" y="756" type="line"/>
    </contour>
    <contour>
      <point x="280" y="840" type="line"/>
      <point x="320" y="854" type="line"/>
      <point x="254" y="976" type="line"/>
      <point x="173" y="953" type="line"/>
    </contour>
    <contour>
      <point x="300" y="660" type="move" name="_top"/>
    </contour>
  </outline>
</glyph>
<glyph name="macroncomb_gravecomb" format="1">
  <advance width="600"/>
  <outline>
    <contour>
      <point x="444" y="606" type="line"/>
      <point x="156" y="606" type="line"/>
      <point x="156" y="551" type="line"/>
      <point x="444" y="551" type="line"/>
    </contour>
    <contour>
      <point x="280" y="634" type="line"/>
      <point x="320" y="648" type="line"/>
      <point x="248" y="790" type="line"/>
      <point x="167" y="767" type="line"/>
    </contour>
    <contour>
      <point x="300" y="430" type="move" name="_top"/>
    </contour>
  </outline>
</glyph>
<glyph name="one.osf" format="1">
  <advance width="328"/>
  <note>
    one.onum
  </note>
  <outline>
    <contour>
      <point x="227" y="54" type="curve"/>
      <point x="223" y="58"/>
      <point x="219" y="75"/>
      <point x="219" y="156" type="curve" smooth="yes"/>
      <point x="219" y="313" type="line" smooth="yes"/>
      <point x="219" y="367"/>
      <point x="221" y="411"/>
      <point x="223" y="440" type="curve"/>
      <point x="53" y="360" type="line"/>
      <point x="56" y="316" type="line"/>
      <point x="81" y="323"/>
      <point x="120" y="333"/>
      <point x="137" y="336" type="curve"/>
      <point x="138" y="326"/>
      <point x="140" y="307"/>
      <point x="140" y="272" type="curve" smooth="yes"/>
      <point x="140" y="144" type="line" smooth="yes"/>
      <point x="140" y="72"/>
      <point x="136" y="58"/>
      <point x="132" y="54" type="curve"/>
      <point x="125" y="50"/>
      <point x="88" y="42"/>
      <point x="61" y="39" type="curve"/>
      <point x="63" y="-3" type="line"/>
      <point x="99" y="0"/>
      <point x="147" y="2"/>
      <point x="180" y="2" type="curve" smooth="yes"/>
      <point x="212" y="2"/>
      <point x="260" y="0"/>
      <point x="296" y="-3" type="curve"/>
      <point x="298" y="39" type="line"/>
      <point x="271" y="42"/>
      <point x="234" y="50"/>
    </contour>
  </outline>
</glyph>
<glyph name="one.tosf" format="1">
  <advance width="600"/>
  <note>
    one.onum
  </note>
  <outline>
    <contour>
      <point x="363" y="54" type="curve"/>
      <point x="359" y="58"/>
      <point x="355" y="75"/>
      <point x="355" y="156" type="curve" smooth="yes"/>
      <point x="355" y="313" type="line" smooth="yes"/>
      <point x="355" y="367"/>
      <point x="357" y="411"/>
      <point x="359" y="440" type="curve"/>
      <point x="161" y="361" type="line"/>
      <point x="165" y="317" type="line"/>
      <point x="197" y="323"/>
      <point x="250" y="333"/>
      <point x="273" y="336" type="curve"/>
      <point x="274" y="326"/>
      <point x="276" y="307"/>
      <point x="276" y="272" type="curve" smooth="yes"/>
      <point x="276" y="144" type="line" smooth="yes"/>
      <point x="276" y="72"/>
      <point x="272" y="58"/>
      <point x="268" y="54" type="curve"/>
      <point x="258" y="50"/>
      <point x="205" y="42"/>
      <point x="167" y="39" type="curve"/>
      <point x="170" y="-3" type="line"/>
      <point x="221" y="0"/>
      <point x="283" y="2"/>
      <point x="316" y="2" type="curve" smooth="yes"/>
      <point x="348" y="2"/>
      <point x="410" y="0"/>
      <point x="461" y="-3" type="curve"/>
      <point x="464" y="39" type="line"/>
      <point x="426" y="42"/>
      <point x="373" y="50"/>
    </contour>
  </outline>
</glyph>
<glyph name="periodcentered.loclCAT" format="1">
  <advance width="600"/>
  <outline>
    <contour>
      <point x="301" y="326" type="curve" smooth="yes"/>
      <point x="331" y="326"/>
      <point x="354" y="348"/>
      <point x="354" y="378" type="curve" smooth="yes"/>
      <point x="354" y="407"/>
      <point x="331" y="430"/>
      <point x="301" y="430" type="curve" smooth="yes"/>
      <point x="270" y="430"/>
      <point x="246" y="407"/>
      <point x="246" y="378" type="curve" smooth="yes"/>
      <point x="246" y="348"/>
      <point x="270" y="326"/>
    </contour>
    <contour>
      <point x="300" y="378" type="move" name="_dotacc"/>
    </contour>
  </outline>
</glyph>
<glyph name="seven.osf" format="1">
  <advance width="488"/>
  <note>
    seven.onum
  </note>
  <outline>
    <contour>
      <point x="225" y="-220" type="line"/>
      <point x="463" y="395" type="line"/>
      <point x="459" y="431" type="line"/>
      <point x="431" y="431"/>
      <point x="401" y="430"/>
      <point x="374" y="430" type="curve" smooth="yes"/>
      <point x="166" y="430" type="line" smooth="yes"/>
      <point x="119" y="430"/>
      <point x="88" y="431"/>
      <point x="55" y="434" type="curve"/>
      <point x="37" y="261" type="line"/>
      <point x="80" y="256" type="line"/>
      <point x="88" y="287"/>
      <point x="97" y="319"/>
      <point x="108" y="350" type="curve"/>
      <point x="116" y="352"/>
      <point x="131" y="353"/>
      <point x="147" y="353" type="curve" smooth="yes"/>
      <point x="403" y="353" type="line"/>
      <point x="406" y="384" type="line"/>
      <point x="148" y="-188" type="line"/>
      <point x="148" y="-220" type="line"/>
    </contour>
  </outline>
</glyph>
<glyph name="seven.tf" format="1">
  <advance width="600"/>
  <note>
    seven
  </note>
  <outline>
    <contour>
      <point x="275" y="0" type="line"/>
      <point x="539" y="625" type="line"/>
      <point x="535" y="661" type="line"/>
      <point x="507" y="661"/>
      <point x="477" y="660"/>
      <point x="450" y="660" type="curve" smooth="yes"/>
      <point x="187" y="660" type="line" smooth="yes"/>
      <point x="140" y="660"/>
      <point x="109" y="661"/>
      <point x="76" y="664" type="curve"/>
      <point x="50" y="485" type="line"/>
      <point x="93" y="480" type="line"/>
      <point x="107" y="518"/>
      <point x="118" y="547"/>
      <point x="129" y="574" type="curve"/>
      <point x="137" y="576"/>
      <point x="152" y="577"/>
      <point x="168" y="577" type="curve" smooth="yes"/>
      <point x="479" y="577" type="line"/>
      <point x="479" y="614" type="line"/>
      <point x="190" y="32" type="line"/>
      <point x="190" y="0" type="line"/>
    </contour>
  </outline>
</glyph>
<glyph name="seven.tosf" format="1">
  <advance width="600"/>
  <note>
    seven.onum
  </note>
  <outline>
    <contour>
      <point x="270" y="-220" type="line"/>
      <point x="523" y="395" type="line"/>
      <point x="519" y="431" type="line"/>
      <point x="491" y="431"/>
      <point x="461" y="430"/>
      <point x="434" y="430" type="curve" smooth="yes"/>
      <point x="196" y="430" type="line" smooth="yes"/>
      <point x="149" y="430"/>
      <point x="118" y="431"/>
      <point x="85" y="434" type="curve"/>
      <point x="67" y="261" type="line"/>
      <point x="110" y="256" type="line"/>
      <point x="118" y="287"/>
      <point x="127" y="319"/>
      <point x="138" y="350" type="curve"/>
      <point x="146" y="352"/>
      <point x="161" y="353"/>
      <point x="177" y="353" type="curve" smooth="yes"/>
      <point x="463" y="353" type="line"/>
      <point x="466" y="384" type="line"/>
      <point x="193" y="-188" type="line"/>
      <point x="193" y="-220" type="line"/>
    </contour>
  </outline>
</glyph>
<glyph name="three.osf" format="1">
  <advance width="443"/>
  <note>
    three.onum
  </note>
  <outline>
    <contour>
      <point x="163" y="-228" type="curve" smooth="yes"/>
      <point x="294" y="-228"/>
      <point x="401" y="-136"/>
      <point x="401" y="-22" type="curve" smooth="yes"/>
      <point x="401" y="78"/>
      <point x="333" y="138"/>
      <point x="230" y="143" type="curve"/>
      <point x="222" y="130" type="line"/>
      <point x="322" y="169"/>
      <point x="366" y="230"/>
      <point x="366" y="295" type="curve" smooth="yes"/>
      <point x="366" y="376"/>
      <point x="305" y="438"/>
      <point x="206" y="438" type="curve" smooth="yes"/>
      <point x="130" y="438"/>
      <point x="65" y="401"/>
      <point x="34" y="346" type="curve"/>
      <point x="60" y="323" type="line"/>
      <point x="90" y="354"/>
      <point x="128" y="373"/>
      <point x="177" y="373" type="curve" smooth="yes"/>
      <point x="241" y="373"/>
      <point x="278" y="335"/>
      <point x="278" y="277" type="curve" smooth="yes"/>
      <point x="278" y="206"/>
      <point x="233" y="150"/>
      <point x="126" y="137" type="curve"/>
      <point x="132" y="90" type="line"/>
      <point x="153" y="94"/>
      <point x="170" y="96"/>
      <point x="189" y="96" type="curve" smooth="yes"/>
      <point x="265" y="96"/>
      <point x="313" y="44"/>
      <point x="313" y="-40" type="curve" smooth="yes"/>
      <point x="313" y="-137"/>
      <point x="235" y="-198"/>
      <point x="137" y="-180" type="curve"/>
      <point x="191" y="-197" type="line"/>
      <point x="119" y="-142" type="line" smooth="yes"/>
      <point x="92" y="-121"/>
      <point x="79" y="-115"/>
      <point x="58" y="-115" type="curve" smooth="yes"/>
      <point x="35" y="-115"/>
      <point x="17" y="-131"/>
      <point x="17" y="-154" type="curve" smooth="yes"/>
      <point x="17" y="-198"/>
      <point x="78" y="-228"/>
    </contour>
  </outline>
</glyph>
<glyph name="three.tf" format="1">
  <advance width="600"/>
  <note>
    three
  </note>
  <outline>
    <contour>
      <point x="311" y="356" type="line"/>
      <point x="405" y="380"/>
      <point x="466" y="446"/>
      <point x="466" y="524" type="curve" smooth="yes"/>
      <point x="466" y="611"/>
      <point x="395" y="670"/>
      <point x="279" y="670" type="curve" smooth="yes"/>
      <point x="185" y="670"/>
      <point x="111" y="625"/>
      <point x="76" y="550" type="curve"/>
      <point x="105" y="530" type="line"/>
      <point x="140" y="577"/>
      <point x="186" y="601"/>
      <point x="248" y="601" type="curve" smooth="yes"/>
      <point x="329" y="601"/>
      <point x="374" y="562"/>
      <point x="374" y="498" type="curve" smooth="yes"/>
      <point x="374" y="420"/>
      <point x="316" y="373"/>
      <point x="182" y="360" type="curve"/>
      <point x="188" y="312" type="line"/>
      <point x="219" y="316"/>
      <point x="242" y="318"/>
      <point x="263" y="318" type="curve" smooth="yes"/>
      <point x="362" y="318"/>
      <point x="419" y="265"/>
      <point x="419" y="182" type="curve" smooth="yes"/>
      <point x="419" y="83"/>
      <point x="333" y="22"/>
      <point x="199" y="39" type="curve"/>
      <point x="263" y="24" type="line"/>
      <point x="184" y="83" type="line" smooth="yes"/>
      <point x="155" y="105"/>
      <point x="141" y="111"/>
      <point x="119" y="111" type="curve" smooth="yes"/>
      <point x="95" y="111"/>
      <point x="76" y="94"/>
      <point x="76" y="70" type="curve" smooth="yes"/>
      <point x="76" y="23"/>
      <point x="141" y="-10"/>
      <point x="242" y="-10" type="curve" smooth="yes"/>
      <point x="393" y="-10"/>
      <point x="508" y="84"/>
      <point x="508" y="200" type="curve" smooth="yes"/>
      <point x="508" y="299"/>
      <point x="434" y="361"/>
      <point x="313" y="366" type="curve"/>
    </contour>
  </outline>
</glyph>
<glyph name="three.tosf" format="1">
  <advance width="600"/>
  <note>
    three.onum
  </note>
  <outline>
    <contour>
      <point x="238" y="-228" type="curve" smooth="yes"/>
      <point x="380" y="-228"/>
      <point x="492" y="-136"/>
      <point x="492" y="-22" type="curve" smooth="yes"/>
      <point x="492" y="78"/>
      <point x="422" y="138"/>
      <point x="311" y="143" type="curve"/>
      <point x="302" y="130" type="line"/>
      <point x="410" y="169"/>
      <point x="457" y="230"/>
      <point x="457" y="295" type="curve" smooth="yes"/>
      <point x="457" y="376"/>
      <point x="396" y="438"/>
      <point x="285" y="438" type="curve" smooth="yes"/>
      <point x="203" y="438"/>
      <point x="133" y="400"/>
      <point x="101" y="342" type="curve"/>
      <point x="127" y="319" type="line"/>
      <point x="160" y="353"/>
      <point x="201" y="373"/>
      <point x="259" y="373" type="curve" smooth="yes"/>
      <point x="326" y="373"/>
      <point x="369" y="335"/>
      <point x="369" y="277" type="curve" smooth="yes"/>
      <point x="369" y="206"/>
      <point x="321" y="150"/>
      <point x="199" y="137" type="curve"/>
      <point x="205" y="90" type="line"/>
      <point x="228" y="94"/>
      <point x="246" y="96"/>
      <point x="266" y="96" type="curve" smooth="yes"/>
      <point x="348" y="96"/>
      <point x="404" y="44"/>
      <point x="404" y="-40" type="curve" smooth="yes"/>
      <point x="404" y="-137"/>
      <point x="307" y="-198"/>
      <point x="201" y="-180" type="curve"/>
      <point x="255" y="-197" type="line"/>
      <point x="183" y="-142" type="line" smooth="yes"/>
      <point x="155" y="-120"/>
      <point x="143" y="-115"/>
      <point x="122" y="-115" type="curve" smooth="yes"/>
      <point x="99" y="-115"/>
      <point x="81" y="-131"/>
      <point x="81" y="-154" type="curve" smooth="yes"/>
      <point x="81" y="-198"/>
      <point x="142" y="-228"/>
    </contour>
  </outline>
</glyph>
<glyph name="tildecomb_acutecomb" format="1">
  <advance width="600"/>
  <outline>
    <contour>
      <point x="369" y="518" type="curve" smooth="yes"/>
      <point x="414" y="518"/>
      <point x="451" y="556"/>
      <point x="471" y="615" type="curve"/>
      <point x="438" y="633" type="line"/>
      <point x="421" y="603"/>
      <point x="405" y="584"/>
      <point x="378" y="584" type="curve" smooth="yes"/>
      <point x="335" y="584"/>
      <point x="281" y="639"/>
      <point x="231" y="639" type="curve" smooth="yes"/>
      <point x="186" y="639"/>
      <point x="149" y="601"/>
      <point x="129" y="542" type="curve"/>
      <point x="162" y="524" type="line"/>
      <point x="179" y="554"/>
      <point x="194" y="573"/>
      <point x="223" y="573" type="curve" smooth="yes"/>
      <point x="265" y="573"/>
      <point x="319" y="518"/>
    </contour>
    <contour>
      <point x="320" y="644" type="line"/>
      <point x="427" y="767" type="line"/>
      <point x="346" y="790" type="line"/>
      <point x="280" y="658" type="line"/>
    </contour>
    <contour>
      <point x="298" y="430" type="move" name="_top"/>
    </contour>
  </outline>
</glyph>
<glyph name="two.osf" format="1">
  <advance width="443"/>
  <note>
    two.onum
  </note>
  <outline>
    <contour>
      <point x="55" y="-3" type="line"/>
      <point x="87" y="-2"/>
      <point x="103" y="-1"/>
      <point x="119" y="-1" type="curve" smooth="yes"/>
      <point x="301" y="-1" type="line" smooth="yes"/>
      <point x="358" y="-1"/>
      <point x="370" y="-1"/>
      <point x="389" y="-2" type="curve"/>
      <point x="408" y="133" type="line"/>
      <point x="362" y="133" type="line"/>
      <point x="357" y="112"/>
      <point x="353" y="98"/>
      <point x="345" y="78" type="curve"/>
      <point x="327" y="75"/>
      <point x="307" y="74"/>
      <point x="282" y="74" type="curve" smooth="yes"/>
      <point x="142" y="74" type="line"/>
      <point x="131" y="50" type="line"/>
      <point x="276" y="125"/>
      <point x="360" y="219"/>
      <point x="360" y="305" type="curve" smooth="yes"/>
      <point x="360" y="386"/>
      <point x="299" y="438"/>
      <point x="203" y="438" type="curve" smooth="yes"/>
      <point x="124" y="438"/>
      <point x="59" y="400"/>
      <point x="28" y="337" type="curve"/>
      <point x="54" y="314" type="line"/>
      <point x="84" y="353"/>
      <point x="126" y="373"/>
      <point x="176" y="373" type="curve" smooth="yes"/>
      <point x="236" y="373"/>
      <point x="272" y="342"/>
      <point x="272" y="285" type="curve" smooth="yes"/>
      <point x="272" y="207"/>
      <point x="204" y="129"/>
      <point x="51" y="29" type="curve"/>
    </contour>
  </outline>
</glyph>
<glyph name="two.tosf" format="1">
  <advance width="600"/>
  <note>
    two.onum
  </note>
  <outline>
    <contour>
      <point x="121" y="-3" type="line"/>
      <point x="156" y="-2"/>
      <point x="173" y="-1"/>
      <point x="190" y="-1" type="curve" smooth="yes"/>
      <point x="387" y="-1" type="line" smooth="yes"/>
      <point x="448" y="-1"/>
      <point x="461" y="-1"/>
      <point x="482" y="-2" type="curve"/>
      <point x="501" y="133" type="line"/>
      <point x="455" y="133" type="line"/>
      <point x="450" y="112"/>
      <point x="446" y="98"/>
      <point x="437" y="78" type="curve"/>
      <point x="418" y="75"/>
      <point x="396" y="74"/>
      <point x="369" y="74" type="curve" smooth="yes"/>
      <point x="215" y="74" type="line"/>
      <point x="203" y="50" type="line"/>
      <point x="360" y="125"/>
      <point x="450" y="219"/>
      <point x="450" y="305" type="curve" smooth="yes"/>
      <point x="450" y="386"/>
      <point x="389" y="438"/>
      <point x="281" y="438" type="curve" smooth="yes"/>
      <point x="194" y="438"/>
      <point x="127" y="398"/>
      <point x="94" y="332" type="curve"/>
      <point x="120" y="309" type="line"/>
      <point x="152" y="350"/>
      <point x="200" y="373"/>
      <point x="257" y="373" type="curve" smooth="yes"/>
      <point x="323" y="373"/>
      <point x="362" y="342"/>
      <point x="362" y="285" type="curve" smooth="yes"/>
      <point x="362" y="207"/>
      <point x="282" y="129"/>
      <point x="117" y="29" type="curve"/>
    </contour>
  </outline>
</glyph>
<glyph name="zero.tf" format="1">
  <advance width="600"/>
  <note>
    zero
  </note>
  <outline>
    <contour>
      <point x="305" y="-10" type="curve" smooth="yes"/>
      <point x="443" y="-10"/>
      <point x="552" y="134"/>
      <point x="552" y="333" type="curve" smooth="yes"/>
      <point x="552" y="538"/>
      <point x="452" y="670"/>
      <point x="308" y="670" type="curve" smooth="yes"/>
      <point x="158" y="670"/>
      <point x="48" y="531"/>
      <point x="48" y="328" type="curve" smooth="yes"/>
      <point x="48" y="122"/>
      <point x="152" y="-10"/>
    </contour>
    <contour>
      <point x="309" y="40" type="curve" smooth="yes"/>
      <point x="215" y="40"/>
      <point x="150" y="156"/>
      <point x="150" y="346" type="curve" smooth="yes"/>
      <point x="150" y="524"/>
      <point x="206" y="620"/>
      <point x="298" y="620" type="curve" smooth="yes"/>
      <point x="390" y="620"/>
      <point x="450" y="505"/>
      <point x="450" y="308" type="curve" smooth="yes"/>
      <point x="450" y="140"/>
      <point x="394" y="40"/>
    </contour>
  </outline>
</glyph>
<glyph name="zero.tosf" format="1">
  <advance width="600"/>
  <note>
    zero.onum
  </note>
  <outline>
    <contour>
      <point x="300" y="-3" type="curve" smooth="yes"/>
      <point x="419" y="-3"/>
      <point x="525" y="94"/>
      <point x="525" y="220" type="curve" smooth="yes"/>
      <point x="525" y="356"/>
      <point x="420" y="443"/>
      <point x="300" y="443" type="curve" smooth="yes"/>
      <point x="183" y="443"/>
      <point x="75" y="346"/>
      <point x="75" y="220" type="curve" smooth="yes"/>
      <point x="75" y="84"/>
      <point x="180" y="-3"/>
    </contour>
    <contour>
      <point x="300" y="64" type="curve" smooth="yes"/>
      <point x="223" y="64"/>
      <point x="155" y="125"/>
      <point x="155" y="221" type="curve" smooth="yes"/>
      <point x="155" y="317"/>
      <point x="223" y="378"/>
      <point x="300" y="378" type="curve" smooth="yes"/>
      <point x="379" y="378"/>
      <point x="447" y="317"/>
      <point x="447" y="221" type="curve" smooth="yes"/>
      <point x="447" y="125"/>
      <point x="379" y="64"/>
    </contour>
  </outline>
</glyph>
